{"glyphs":{"0":{"ha":663,"x_min":51,"x_max":611,"o":"m 333 -18 q 188 19 253 -18 q 88 123 124 57 q 51 272 51 189 q 88 418 51 354 q 188 518 124 482 q 335 554 253 554 q 478 517 415 554 q 576 415 540 481 q 611 268 611 350 q 576 121 611 186 q 477 19 540 56 q 333 -18 414 -18 m 349 -1 q 483 67 438 -1 q 528 251 528 135 q 468 464 528 390 q 319 538 408 538 q 183 467 232 538 q 133 283 133 396 q 160 138 133 203 q 235 35 186 72 q 349 -1 283 -1 z "},"1":{"ha":461,"x_min":68,"x_max":429,"o":"m 81 0 q 78 8 78 0 q 81 17 78 17 q 170 24 142 17 q 210 51 199 32 q 221 113 221 71 l 221 374 q 214 452 221 431 q 185 474 207 474 q 81 438 157 474 l 78 436 q 71 443 74 436 q 74 451 68 450 l 272 549 q 276 550 274 550 q 283 547 281 550 q 286 539 286 543 l 286 113 q 296 50 286 69 q 334 24 306 31 q 425 17 363 17 q 429 8 429 17 q 425 0 429 0 q 354 1 381 0 l 253 3 l 154 1 q 81 0 128 0 z "},"2":{"ha":558,"x_min":47,"x_max":517,"o":"m 51 17 q 244 178 175 113 q 344 296 313 243 q 375 400 375 349 q 339 492 375 458 q 247 526 303 526 q 150 484 192 526 q 86 358 108 442 q 81 357 86 357 q 69 363 68 357 l 122 567 q 128 569 122 569 q 135 567 132 569 q 138 564 139 565 q 136 550 136 558 q 157 528 136 528 q 199 538 169 528 q 246 549 219 543 q 297 554 272 554 q 408 516 367 554 q 449 415 449 478 q 420 321 449 368 q 328 214 392 274 q 150 67 264 154 q 147 60 144 63 q 156 57 149 57 q 378 62 318 57 q 464 85 439 67 q 500 153 489 104 q 509 155 501 156 q 517 151 517 154 l 497 15 q 494 5 497 10 q 485 0 490 0 l 61 0 q 51 6 56 0 q 51 17 47 11 z "},"3":{"ha":539,"x_min":46,"x_max":479,"o":"m 293 181 q 431 119 383 174 q 479 -11 479 64 q 435 -152 479 -81 q 303 -285 392 -224 q 83 -382 214 -347 q 74 -376 78 -383 q 76 -367 71 -368 q 319 -222 246 -318 q 393 -26 393 -126 q 356 99 393 47 q 236 151 318 151 q 165 143 197 151 q 158 150 161 142 q 161 160 156 158 q 317 238 272 188 q 363 372 363 288 q 331 485 363 443 q 232 526 299 526 q 129 486 171 526 q 64 358 88 446 q 58 357 63 357 q 47 363 46 357 l 99 565 q 104 568 101 568 q 113 566 108 568 q 115 563 117 564 q 113 547 113 551 q 136 524 113 524 q 178 535 151 524 q 229 549 207 544 q 278 554 251 554 q 396 508 353 554 q 439 396 439 461 q 400 269 439 329 q 293 181 361 210 z "},"4":{"ha":625,"x_min":24,"x_max":579,"o":"m 572 60 q 577 51 575 60 q 579 31 579 42 q 577 10 579 19 q 572 1 575 1 q 449 7 526 4 l 449 -219 q 438 -239 449 -235 l 393 -261 q 385 -264 385 -264 q 381 -253 381 -264 l 381 8 q 39 11 293 11 q 28 17 32 11 q 29 28 24 22 l 428 550 q 436 553 431 553 q 444 551 440 553 q 449 544 449 549 l 449 57 q 572 60 483 57 m 103 51 q 381 54 228 51 l 381 433 l 96 61 q 94 54 92 57 q 103 51 96 51 z "},"5":{"ha":568,"x_min":79,"x_max":496,"o":"m 165 465 q 144 444 147 465 l 114 272 q 395 202 306 271 q 485 13 485 133 q 445 -131 485 -67 q 320 -256 406 -196 q 94 -382 235 -317 l 93 -382 q 84 -376 88 -382 q 86 -367 81 -369 q 334 -196 263 -282 q 406 -11 406 -110 q 325 168 406 104 q 94 232 244 232 q 83 237 88 232 q 81 249 79 242 l 125 496 q 129 508 126 506 q 143 511 132 510 q 378 540 318 532 q 455 558 438 549 q 479 588 472 567 q 488 591 481 592 q 494 585 496 590 l 467 496 q 453 475 461 479 q 428 471 446 471 l 165 465 z "},"6":{"ha":646,"x_min":68,"x_max":594,"o":"m 411 392 q 550 342 506 392 q 594 221 594 293 q 558 101 594 156 q 458 14 521 46 q 319 -18 394 -18 q 135 63 203 -18 q 68 289 68 143 q 126 543 68 418 q 295 767 185 668 q 556 918 406 867 q 564 913 561 919 q 563 903 567 906 q 333 747 428 843 q 192 537 239 650 q 144 314 144 424 q 202 94 144 182 q 358 7 260 7 q 474 55 431 7 q 518 185 518 103 q 481 309 518 261 q 371 357 443 357 q 299 341 332 357 q 222 286 265 325 q 218 285 221 285 q 210 289 214 285 q 208 296 207 293 q 411 392 285 392 z "},"7":{"ha":596,"x_min":35,"x_max":546,"o":"m 221 -306 q 205 -329 215 -321 q 192 -339 194 -337 l 133 -382 q 126 -379 131 -383 q 124 -372 122 -375 l 496 469 q 489 479 500 479 q 200 474 281 479 q 92 450 119 468 q 51 385 65 432 q 46 382 51 382 q 38 384 42 382 q 36 389 35 386 l 81 574 q 90 576 82 576 q 97 572 99 575 q 96 558 96 567 q 109 540 96 544 q 163 536 122 536 l 531 536 q 541 530 536 536 q 543 518 546 524 l 221 -306 z "},"8":{"ha":679,"x_min":68,"x_max":626,"o":"m 408 475 q 522 408 476 440 q 597 331 567 376 q 626 224 626 285 q 587 100 626 156 q 481 13 547 44 q 336 -18 415 -18 q 196 13 257 -18 q 101 97 135 44 q 68 207 68 149 q 126 365 68 292 q 264 481 183 439 q 175 549 206 514 q 144 633 144 585 q 178 723 144 686 q 261 778 211 760 q 361 797 311 797 q 455 776 414 797 q 518 721 496 754 q 540 651 540 688 q 506 561 540 607 q 408 475 472 515 m 210 671 q 234 597 210 629 q 295 540 258 564 q 394 483 332 515 q 452 552 433 518 q 471 629 471 586 q 431 736 471 696 q 328 776 390 776 q 243 749 276 776 q 210 671 210 721 m 375 6 q 506 53 454 6 q 558 183 558 100 q 526 298 558 250 q 449 377 494 346 q 329 444 403 408 l 281 471 q 181 374 215 433 q 146 243 146 315 q 175 127 146 182 q 257 39 204 72 q 375 6 310 6 z "},"9":{"ha":646,"x_min":51,"x_max":578,"o":"m 250 153 q 138 181 182 153 q 72 251 93 208 q 51 339 51 293 q 85 450 51 401 q 176 526 118 499 q 303 554 233 554 q 448 513 386 554 q 544 399 510 472 q 578 228 578 325 q 519 -22 578 101 q 351 -240 461 -144 q 90 -382 240 -336 q 83 -376 86 -383 q 85 -367 79 -369 q 313 -220 218 -314 q 454 -16 407 -126 q 501 200 501 94 q 478 351 501 275 q 406 478 456 426 q 279 529 356 529 q 169 485 210 529 q 128 364 128 442 q 169 238 128 289 q 289 188 211 188 q 357 199 328 188 q 424 242 386 211 q 428 243 425 243 q 436 239 432 243 q 439 232 440 235 q 250 153 368 153 z "}," ":{"ha":325,"x_min":0,"x_max":0,"o":""},"A":{"ha":969,"x_min":-4,"x_max":969,"o":"m 964 17 q 969 8 969 17 q 964 0 969 0 q 883 3 939 0 q 806 6 831 6 q 729 3 776 6 q 663 0 685 0 q 657 8 657 0 q 663 17 657 17 q 744 27 719 17 q 769 63 769 38 q 754 117 769 82 l 589 471 l 324 471 l 199 171 q 179 93 179 124 q 213 35 179 53 q 317 17 246 17 q 324 8 324 17 q 317 0 324 0 q 244 3 292 0 q 153 6 192 6 q 71 3 118 6 q 3 0 29 0 q -4 8 -4 0 q 3 17 -4 17 q 69 31 42 17 q 120 81 96 44 q 172 183 144 117 l 463 882 q 472 886 465 886 q 479 882 478 886 l 801 190 q 858 83 833 119 q 908 31 883 46 q 964 17 932 17 m 335 497 l 578 497 l 449 772 l 335 497 z "},"Á":{"ha":969,"x_min":-4,"x_max":969,"o":"m 964 17 q 969 8 969 17 q 964 0 969 0 q 883 3 939 0 q 806 6 831 6 q 729 3 776 6 q 663 0 685 0 q 657 8 657 0 q 663 17 657 17 q 744 27 719 17 q 769 63 769 38 q 754 117 769 82 l 589 471 l 324 471 l 199 171 q 179 93 179 124 q 213 35 179 53 q 317 17 246 17 q 324 8 324 17 q 317 0 324 0 q 244 3 292 0 q 153 6 192 6 q 71 3 118 6 q 3 0 29 0 q -4 8 -4 0 q 3 17 -4 17 q 69 31 42 17 q 120 81 96 44 q 172 183 144 117 l 463 882 q 472 886 465 886 q 479 882 478 886 l 801 190 q 858 83 833 119 q 908 31 883 46 q 964 17 932 17 m 335 497 l 578 497 l 449 772 l 335 497 m 332 942 q 325 948 326 942 q 328 957 324 954 q 497 1047 392 986 l 567 1086 q 595 1081 572 1089 q 635 1062 618 1072 q 643 1050 653 1051 q 485 1003 557 1029 q 335 943 414 978 l 332 942 z "},"Ă":{"ha":969,"x_min":-4,"x_max":969,"o":"m 964 17 q 969 8 969 17 q 964 0 969 0 q 883 3 939 0 q 806 6 831 6 q 729 3 776 6 q 663 0 685 0 q 657 8 657 0 q 663 17 657 17 q 744 27 719 17 q 769 63 769 38 q 754 117 769 82 l 589 471 l 324 471 l 199 171 q 179 93 179 124 q 213 35 179 53 q 317 17 246 17 q 324 8 324 17 q 317 0 324 0 q 244 3 292 0 q 153 6 192 6 q 71 3 118 6 q 3 0 29 0 q -4 8 -4 0 q 3 17 -4 17 q 69 31 42 17 q 120 81 96 44 q 172 183 144 117 l 463 882 q 472 886 465 886 q 479 882 478 886 l 801 190 q 858 83 833 119 q 908 31 883 46 q 964 17 932 17 m 335 497 l 578 497 l 449 772 l 335 497 m 469 958 q 376 995 413 958 q 326 1100 339 1032 q 332 1106 325 1106 q 342 1104 339 1107 q 390 1034 353 1063 q 469 1006 428 1006 q 548 1035 511 1006 q 596 1104 585 1064 q 601 1107 596 1107 q 609 1105 606 1107 q 611 1100 613 1103 q 563 995 599 1032 q 469 958 526 958 z "},"Ắ":{"ha":969,"x_min":-4,"x_max":969,"o":"m 964 17 q 969 8 969 17 q 964 0 969 0 q 883 3 939 0 q 806 6 831 6 q 729 3 776 6 q 663 0 685 0 q 657 8 657 0 q 663 17 657 17 q 744 27 719 17 q 769 63 769 38 q 754 117 769 82 l 589 471 l 324 471 l 199 171 q 179 93 179 124 q 213 35 179 53 q 317 17 246 17 q 324 8 324 17 q 317 0 324 0 q 244 3 292 0 q 153 6 192 6 q 71 3 118 6 q 3 0 29 0 q -4 8 -4 0 q 3 17 -4 17 q 69 31 42 17 q 120 81 96 44 q 172 183 144 117 l 463 882 q 472 886 465 886 q 479 882 478 886 l 801 190 q 858 83 833 119 q 908 31 883 46 q 964 17 932 17 m 335 497 l 578 497 l 449 772 l 335 497 m 469 910 q 376 946 413 910 q 326 1051 339 982 q 333 1057 325 1056 q 342 1054 340 1058 q 390 985 353 1014 q 469 957 426 957 q 548 985 511 957 q 596 1054 585 1014 q 605 1057 597 1058 q 611 1051 613 1056 q 563 946 599 982 q 469 910 526 910 m 396 1033 q 392 1032 394 1032 q 385 1037 388 1032 q 386 1044 383 1042 q 499 1176 440 1099 q 526 1172 503 1181 q 567 1153 549 1164 q 575 1140 585 1142 q 484 1094 525 1119 q 396 1033 443 1069 z "},"Ặ":{"ha":969,"x_min":-4,"x_max":969,"o":"m 964 17 q 969 8 969 17 q 964 0 969 0 q 883 3 939 0 q 806 6 831 6 q 729 3 776 6 q 663 0 685 0 q 657 8 657 0 q 663 17 657 17 q 744 27 719 17 q 769 63 769 38 q 754 117 769 82 l 589 471 l 324 471 l 199 171 q 179 93 179 124 q 213 35 179 53 q 317 17 246 17 q 324 8 324 17 q 317 0 324 0 q 244 3 292 0 q 153 6 192 6 q 71 3 118 6 q 3 0 29 0 q -4 8 -4 0 q 3 17 -4 17 q 69 31 42 17 q 120 81 96 44 q 172 183 144 117 l 463 882 q 472 886 465 886 q 479 882 478 886 l 801 190 q 858 83 833 119 q 908 31 883 46 q 964 17 932 17 m 335 497 l 578 497 l 449 772 l 335 497 m 488 -258 q 447 -244 461 -258 q 432 -206 432 -231 q 447 -167 432 -181 q 488 -153 461 -153 q 526 -167 513 -153 q 540 -206 540 -181 q 526 -244 540 -231 q 488 -258 513 -258 m 469 958 q 376 995 413 958 q 326 1100 339 1032 q 332 1106 325 1106 q 342 1104 339 1107 q 390 1034 353 1063 q 469 1006 428 1006 q 548 1035 511 1006 q 596 1104 585 1064 q 601 1107 596 1107 q 609 1105 606 1107 q 611 1100 613 1103 q 563 995 599 1032 q 469 958 526 958 z "},"Ằ":{"ha":969,"x_min":-4,"x_max":969,"o":"m 964 17 q 969 8 969 17 q 964 0 969 0 q 883 3 939 0 q 806 6 831 6 q 729 3 776 6 q 663 0 685 0 q 657 8 657 0 q 663 17 657 17 q 744 27 719 17 q 769 63 769 38 q 754 117 769 82 l 589 471 l 324 471 l 199 171 q 179 93 179 124 q 213 35 179 53 q 317 17 246 17 q 324 8 324 17 q 317 0 324 0 q 244 3 292 0 q 153 6 192 6 q 71 3 118 6 q 3 0 29 0 q -4 8 -4 0 q 3 17 -4 17 q 69 31 42 17 q 120 81 96 44 q 172 183 144 117 l 463 882 q 472 886 465 886 q 479 882 478 886 l 801 190 q 858 83 833 119 q 908 31 883 46 q 964 17 932 17 m 335 497 l 578 497 l 449 772 l 335 497 m 469 910 q 376 946 413 910 q 326 1051 339 982 q 333 1057 325 1056 q 342 1054 340 1058 q 390 985 353 1014 q 469 957 426 957 q 548 985 511 957 q 596 1054 585 1014 q 605 1057 597 1058 q 611 1051 613 1056 q 563 946 599 982 q 469 910 526 910 m 540 1033 q 452 1094 493 1069 q 361 1140 411 1119 q 369 1153 351 1142 q 411 1172 388 1164 q 438 1176 435 1181 q 550 1046 485 1113 l 553 1040 q 549 1034 553 1036 q 540 1033 544 1032 z "},"Ẳ":{"ha":969,"x_min":-4,"x_max":969,"o":"m 964 17 q 969 8 969 17 q 964 0 969 0 q 883 3 939 0 q 806 6 831 6 q 729 3 776 6 q 663 0 685 0 q 657 8 657 0 q 663 17 657 17 q 744 27 719 17 q 769 63 769 38 q 754 117 769 82 l 589 471 l 324 471 l 199 171 q 179 93 179 124 q 213 35 179 53 q 317 17 246 17 q 324 8 324 17 q 317 0 324 0 q 244 3 292 0 q 153 6 192 6 q 71 3 118 6 q 3 0 29 0 q -4 8 -4 0 q 3 17 -4 17 q 69 31 42 17 q 120 81 96 44 q 172 183 144 117 l 463 882 q 472 886 465 886 q 479 882 478 886 l 801 190 q 858 83 833 119 q 908 31 883 46 q 964 17 932 17 m 335 497 l 578 497 l 449 772 l 335 497 m 469 910 q 376 946 413 910 q 326 1051 339 982 q 333 1057 325 1056 q 342 1054 340 1058 q 390 985 353 1014 q 469 957 426 957 q 548 985 511 957 q 596 1054 585 1014 q 605 1057 597 1058 q 611 1051 613 1056 q 563 946 599 982 q 469 910 526 910 m 450 1006 q 447 1024 447 1013 q 468 1075 447 1044 q 485 1103 479 1092 q 490 1129 490 1115 q 475 1161 490 1150 q 442 1172 460 1172 q 407 1164 422 1172 l 406 1164 q 397 1169 401 1164 q 397 1175 393 1174 q 441 1194 418 1188 q 481 1201 464 1201 q 527 1183 510 1201 q 544 1143 544 1165 q 533 1108 544 1124 q 500 1071 521 1092 q 470 1036 479 1050 q 465 1006 461 1022 q 460 1002 468 1003 q 450 1006 451 1001 z "},"Ẵ":{"ha":969,"x_min":-4,"x_max":969,"o":"m 964 17 q 969 8 969 17 q 964 0 969 0 q 883 3 939 0 q 806 6 831 6 q 729 3 776 6 q 663 0 685 0 q 657 8 657 0 q 663 17 657 17 q 744 27 719 17 q 769 63 769 38 q 754 117 769 82 l 589 471 l 324 471 l 199 171 q 179 93 179 124 q 213 35 179 53 q 317 17 246 17 q 324 8 324 17 q 317 0 324 0 q 244 3 292 0 q 153 6 192 6 q 71 3 118 6 q 3 0 29 0 q -4 8 -4 0 q 3 17 -4 17 q 69 31 42 17 q 120 81 96 44 q 172 183 144 117 l 463 882 q 472 886 465 886 q 479 882 478 886 l 801 190 q 858 83 833 119 q 908 31 883 46 q 964 17 932 17 m 335 497 l 578 497 l 449 772 l 335 497 m 474 931 q 380 967 417 931 q 331 1072 343 1004 q 336 1078 329 1078 q 346 1076 343 1079 q 394 1006 357 1035 q 474 978 432 978 q 552 1007 515 978 q 600 1076 589 1036 q 606 1079 600 1079 q 613 1077 610 1079 q 615 1072 617 1075 q 567 967 603 1004 q 474 931 531 931 m 576 1146 q 615 1156 600 1146 q 644 1183 629 1165 l 646 1183 q 653 1180 650 1183 q 654 1174 657 1176 q 594 1110 618 1126 q 546 1093 571 1093 q 503 1098 525 1093 q 458 1110 481 1103 q 411 1122 436 1117 q 363 1128 386 1128 q 328 1120 340 1128 q 308 1103 317 1113 q 294 1090 299 1094 l 292 1090 q 285 1094 288 1090 q 285 1100 282 1097 q 338 1155 307 1131 q 401 1179 369 1179 q 445 1173 421 1179 q 474 1165 469 1167 q 576 1146 535 1146 z "},"Ǎ":{"ha":969,"x_min":-4,"x_max":969,"o":"m 964 17 q 969 8 969 17 q 964 0 969 0 q 883 3 939 0 q 806 6 831 6 q 729 3 776 6 q 663 0 685 0 q 657 8 657 0 q 663 17 657 17 q 744 27 719 17 q 769 63 769 38 q 754 117 769 82 l 589 471 l 324 471 l 199 171 q 179 93 179 124 q 213 35 179 53 q 317 17 246 17 q 324 8 324 17 q 317 0 324 0 q 244 3 292 0 q 153 6 192 6 q 71 3 118 6 q 3 0 29 0 q -4 8 -4 0 q 3 17 -4 17 q 69 31 42 17 q 120 81 96 44 q 172 183 144 117 l 463 882 q 472 886 465 886 q 479 882 478 886 l 801 190 q 858 83 833 119 q 908 31 883 46 q 964 17 932 17 m 335 497 l 578 497 l 449 772 l 335 497 m 310 1082 q 308 1083 308 1082 q 308 1083 308 1083 q 312 1090 308 1086 q 318 1092 315 1093 l 469 1006 l 619 1092 l 621 1092 q 628 1088 625 1092 q 626 1082 631 1083 l 485 954 q 469 949 479 949 q 453 954 458 949 l 310 1082 z "},"Â":{"ha":969,"x_min":-4,"x_max":969,"o":"m 964 17 q 969 8 969 17 q 964 0 969 0 q 883 3 939 0 q 806 6 831 6 q 729 3 776 6 q 663 0 685 0 q 657 8 657 0 q 663 17 657 17 q 744 27 719 17 q 769 63 769 38 q 754 117 769 82 l 589 471 l 324 471 l 199 171 q 179 93 179 124 q 213 35 179 53 q 317 17 246 17 q 324 8 324 17 q 317 0 324 0 q 244 3 292 0 q 153 6 192 6 q 71 3 118 6 q 3 0 29 0 q -4 8 -4 0 q 3 17 -4 17 q 69 31 42 17 q 120 81 96 44 q 172 183 144 117 l 463 882 q 472 886 465 886 q 479 882 478 886 l 801 190 q 858 83 833 119 q 908 31 883 46 q 964 17 932 17 m 335 497 l 578 497 l 449 772 l 335 497 m 453 1038 q 468 1044 460 1044 q 485 1038 478 1044 l 626 910 q 628 907 628 910 q 624 901 628 904 q 619 900 621 899 l 469 986 l 318 900 q 311 903 315 899 q 310 910 307 908 l 453 1038 z "},"Ấ":{"ha":969,"x_min":-4,"x_max":969,"o":"m 964 17 q 969 8 969 17 q 964 0 969 0 q 883 3 939 0 q 806 6 831 6 q 729 3 776 6 q 663 0 685 0 q 657 8 657 0 q 663 17 657 17 q 744 27 719 17 q 769 63 769 38 q 754 117 769 82 l 589 471 l 324 471 l 199 171 q 179 93 179 124 q 213 35 179 53 q 317 17 246 17 q 324 8 324 17 q 317 0 324 0 q 244 3 292 0 q 153 6 192 6 q 71 3 118 6 q 3 0 29 0 q -4 8 -4 0 q 3 17 -4 17 q 69 31 42 17 q 120 81 96 44 q 172 183 144 117 l 463 882 q 472 886 465 886 q 479 882 478 886 l 801 190 q 858 83 833 119 q 908 31 883 46 q 964 17 932 17 m 335 497 l 578 497 l 449 772 l 335 497 m 453 1038 q 468 1044 460 1044 q 485 1038 478 1044 l 626 910 q 628 907 628 910 q 624 901 628 904 q 619 900 621 899 l 469 986 l 318 900 q 311 903 315 899 q 310 910 307 908 l 453 1038 m 561 997 q 557 996 560 996 q 551 1001 553 996 q 551 1008 549 1006 q 664 1140 606 1063 q 691 1136 668 1144 q 732 1117 714 1128 q 740 1104 750 1106 q 649 1058 690 1083 q 561 997 608 1033 z "},"Ậ":{"ha":969,"x_min":-4,"x_max":969,"o":"m 964 17 q 969 8 969 17 q 964 0 969 0 q 883 3 939 0 q 806 6 831 6 q 729 3 776 6 q 663 0 685 0 q 657 8 657 0 q 663 17 657 17 q 744 27 719 17 q 769 63 769 38 q 754 117 769 82 l 589 471 l 324 471 l 199 171 q 179 93 179 124 q 213 35 179 53 q 317 17 246 17 q 324 8 324 17 q 317 0 324 0 q 244 3 292 0 q 153 6 192 6 q 71 3 118 6 q 3 0 29 0 q -4 8 -4 0 q 3 17 -4 17 q 69 31 42 17 q 120 81 96 44 q 172 183 144 117 l 463 882 q 472 886 465 886 q 479 882 478 886 l 801 190 q 858 83 833 119 q 908 31 883 46 q 964 17 932 17 m 335 497 l 578 497 l 449 772 l 335 497 m 488 -258 q 447 -244 461 -258 q 432 -206 432 -231 q 447 -167 432 -181 q 488 -153 461 -153 q 526 -167 513 -153 q 540 -206 540 -181 q 526 -244 540 -231 q 488 -258 513 -258 m 453 1038 q 468 1044 460 1044 q 485 1038 478 1044 l 626 910 q 628 907 628 910 q 624 901 628 904 q 619 900 621 899 l 469 986 l 318 900 q 311 903 315 899 q 310 910 307 908 l 453 1038 z "},"Ầ":{"ha":969,"x_min":-4,"x_max":969,"o":"m 964 17 q 969 8 969 17 q 964 0 969 0 q 883 3 939 0 q 806 6 831 6 q 729 3 776 6 q 663 0 685 0 q 657 8 657 0 q 663 17 657 17 q 744 27 719 17 q 769 63 769 38 q 754 117 769 82 l 589 471 l 324 471 l 199 171 q 179 93 179 124 q 213 35 179 53 q 317 17 246 17 q 324 8 324 17 q 317 0 324 0 q 244 3 292 0 q 153 6 192 6 q 71 3 118 6 q 3 0 29 0 q -4 8 -4 0 q 3 17 -4 17 q 69 31 42 17 q 120 81 96 44 q 172 183 144 117 l 463 882 q 472 886 465 886 q 479 882 478 886 l 801 190 q 858 83 833 119 q 908 31 883 46 q 964 17 932 17 m 335 497 l 578 497 l 449 772 l 335 497 m 453 1038 q 468 1044 460 1044 q 485 1038 478 1044 l 626 910 q 628 907 628 910 q 624 901 628 904 q 619 900 621 899 l 469 986 l 318 900 q 311 903 315 899 q 310 910 307 908 l 453 1038 m 707 965 q 619 1026 660 1001 q 528 1072 578 1051 q 536 1085 518 1074 q 578 1104 554 1096 q 604 1108 601 1113 q 717 978 651 1044 l 719 972 q 715 966 719 968 q 707 965 711 964 z "},"Ẩ":{"ha":969,"x_min":-4,"x_max":969,"o":"m 964 17 q 969 8 969 17 q 964 0 969 0 q 883 3 939 0 q 806 6 831 6 q 729 3 776 6 q 663 0 685 0 q 657 8 657 0 q 663 17 657 17 q 744 27 719 17 q 769 63 769 38 q 754 117 769 82 l 589 471 l 324 471 l 199 171 q 179 93 179 124 q 213 35 179 53 q 317 17 246 17 q 324 8 324 17 q 317 0 324 0 q 244 3 292 0 q 153 6 192 6 q 71 3 118 6 q 3 0 29 0 q -4 8 -4 0 q 3 17 -4 17 q 69 31 42 17 q 120 81 96 44 q 172 183 144 117 l 463 882 q 472 886 465 886 q 479 882 478 886 l 801 190 q 858 83 833 119 q 908 31 883 46 q 964 17 932 17 m 335 497 l 578 497 l 449 772 l 335 497 m 453 1038 q 468 1044 460 1044 q 485 1038 478 1044 l 626 910 q 628 907 628 910 q 624 901 628 904 q 619 900 621 899 l 469 986 l 318 900 q 311 903 315 899 q 310 910 307 908 l 453 1038 m 578 1003 q 575 1021 575 1010 q 596 1072 575 1042 q 613 1101 607 1089 q 618 1126 618 1113 q 603 1158 618 1147 q 569 1169 588 1169 q 535 1161 550 1169 l 533 1161 q 525 1166 529 1161 q 525 1172 521 1171 q 569 1192 546 1185 q 608 1199 592 1199 q 655 1181 638 1199 q 672 1140 672 1163 q 660 1105 672 1121 q 628 1068 649 1089 q 598 1033 607 1047 q 593 1003 589 1019 q 588 999 596 1000 q 578 1003 579 999 z "},"Ẫ":{"ha":969,"x_min":-4,"x_max":969,"o":"m 964 17 q 969 8 969 17 q 964 0 969 0 q 883 3 939 0 q 806 6 831 6 q 729 3 776 6 q 663 0 685 0 q 657 8 657 0 q 663 17 657 17 q 744 27 719 17 q 769 63 769 38 q 754 117 769 82 l 589 471 l 324 471 l 199 171 q 179 93 179 124 q 213 35 179 53 q 317 17 246 17 q 324 8 324 17 q 317 0 324 0 q 244 3 292 0 q 153 6 192 6 q 71 3 118 6 q 3 0 29 0 q -4 8 -4 0 q 3 17 -4 17 q 69 31 42 17 q 120 81 96 44 q 172 183 144 117 l 463 882 q 472 886 465 886 q 479 882 478 886 l 801 190 q 858 83 833 119 q 908 31 883 46 q 964 17 932 17 m 335 497 l 578 497 l 449 772 l 335 497 m 453 1038 q 468 1044 460 1044 q 485 1038 478 1044 l 626 910 q 628 907 628 910 q 624 901 628 904 q 619 900 621 899 l 469 986 l 318 900 q 311 903 315 899 q 310 910 307 908 l 453 1038 m 583 1111 q 622 1121 607 1111 q 651 1149 636 1131 l 653 1149 q 660 1145 657 1149 q 661 1139 664 1142 q 601 1075 625 1092 q 553 1058 578 1058 q 510 1063 532 1058 q 465 1075 488 1068 q 418 1088 443 1082 q 369 1093 393 1093 q 335 1085 347 1093 q 315 1069 324 1078 q 301 1056 306 1060 l 299 1056 q 292 1059 294 1056 q 292 1065 289 1063 q 345 1120 314 1096 q 408 1144 376 1144 q 452 1138 428 1144 q 481 1131 476 1132 q 583 1111 542 1111 z "},"Ä":{"ha":969,"x_min":-4,"x_max":969,"o":"m 964 17 q 969 8 969 17 q 964 0 969 0 q 883 3 939 0 q 806 6 831 6 q 729 3 776 6 q 663 0 685 0 q 657 8 657 0 q 663 17 657 17 q 744 27 719 17 q 769 63 769 38 q 754 117 769 82 l 589 471 l 324 471 l 199 171 q 179 93 179 124 q 213 35 179 53 q 317 17 246 17 q 324 8 324 17 q 317 0 324 0 q 244 3 292 0 q 153 6 192 6 q 71 3 118 6 q 3 0 29 0 q -4 8 -4 0 q 3 17 -4 17 q 69 31 42 17 q 120 81 96 44 q 172 183 144 117 l 463 882 q 472 886 465 886 q 479 882 478 886 l 801 190 q 858 83 833 119 q 908 31 883 46 q 964 17 932 17 m 335 497 l 578 497 l 449 772 l 335 497 m 349 1000 q 308 1014 322 1000 q 293 1053 293 1028 q 308 1092 293 1078 q 349 1106 322 1106 q 388 1092 374 1106 q 401 1053 401 1078 q 388 1014 401 1028 q 349 1000 374 1000 m 592 1000 q 551 1014 567 1000 q 536 1053 536 1028 q 551 1092 536 1078 q 592 1106 567 1106 q 632 1092 618 1106 q 646 1053 646 1078 q 632 1014 646 1028 q 592 1000 618 1000 z "},"Ạ":{"ha":969,"x_min":-4,"x_max":969,"o":"m 964 17 q 969 8 969 17 q 964 0 969 0 q 883 3 939 0 q 806 6 831 6 q 729 3 776 6 q 663 0 685 0 q 657 8 657 0 q 663 17 657 17 q 744 27 719 17 q 769 63 769 38 q 754 117 769 82 l 589 471 l 324 471 l 199 171 q 179 93 179 124 q 213 35 179 53 q 317 17 246 17 q 324 8 324 17 q 317 0 324 0 q 244 3 292 0 q 153 6 192 6 q 71 3 118 6 q 3 0 29 0 q -4 8 -4 0 q 3 17 -4 17 q 69 31 42 17 q 120 81 96 44 q 172 183 144 117 l 463 882 q 472 886 465 886 q 479 882 478 886 l 801 190 q 858 83 833 119 q 908 31 883 46 q 964 17 932 17 m 335 497 l 578 497 l 449 772 l 335 497 m 488 -258 q 447 -244 461 -258 q 432 -206 432 -231 q 447 -167 432 -181 q 488 -153 461 -153 q 526 -167 513 -153 q 540 -206 540 -181 q 526 -244 540 -231 q 488 -258 513 -258 z "},"À":{"ha":969,"x_min":-4,"x_max":969,"o":"m 964 17 q 969 8 969 17 q 964 0 969 0 q 883 3 939 0 q 806 6 831 6 q 729 3 776 6 q 663 0 685 0 q 657 8 657 0 q 663 17 657 17 q 744 27 719 17 q 769 63 769 38 q 754 117 769 82 l 589 471 l 324 471 l 199 171 q 179 93 179 124 q 213 35 179 53 q 317 17 246 17 q 324 8 324 17 q 317 0 324 0 q 244 3 292 0 q 153 6 192 6 q 71 3 118 6 q 3 0 29 0 q -4 8 -4 0 q 3 17 -4 17 q 69 31 42 17 q 120 81 96 44 q 172 183 144 117 l 463 882 q 472 886 465 886 q 479 882 478 886 l 801 190 q 858 83 833 119 q 908 31 883 46 q 964 17 932 17 m 335 497 l 578 497 l 449 772 l 335 497 m 607 943 q 297 1050 450 1013 q 305 1062 288 1051 q 345 1081 322 1072 q 374 1086 368 1089 q 491 1019 429 1054 q 613 957 553 985 q 615 951 615 956 q 613 944 615 947 q 607 943 610 942 z "},"Ả":{"ha":969,"x_min":-4,"x_max":969,"o":"m 964 17 q 969 8 969 17 q 964 0 969 0 q 883 3 939 0 q 806 6 831 6 q 729 3 776 6 q 663 0 685 0 q 657 8 657 0 q 663 17 657 17 q 744 27 719 17 q 769 63 769 38 q 754 117 769 82 l 589 471 l 324 471 l 199 171 q 179 93 179 124 q 213 35 179 53 q 317 17 246 17 q 324 8 324 17 q 317 0 324 0 q 244 3 292 0 q 153 6 192 6 q 71 3 118 6 q 3 0 29 0 q -4 8 -4 0 q 3 17 -4 17 q 69 31 42 17 q 120 81 96 44 q 172 183 144 117 l 463 882 q 472 886 465 886 q 479 882 478 886 l 801 190 q 858 83 833 119 q 908 31 883 46 q 964 17 932 17 m 335 497 l 578 497 l 449 772 l 335 497 m 474 904 q 467 901 475 901 q 458 904 460 901 q 454 933 454 921 q 463 971 454 954 q 486 1013 471 988 q 508 1049 501 1033 q 515 1081 515 1064 q 497 1122 515 1107 q 451 1138 478 1138 q 415 1129 435 1138 l 414 1129 q 406 1134 410 1129 q 406 1140 401 1139 q 490 1167 449 1167 q 553 1146 531 1167 q 576 1094 576 1125 q 564 1051 576 1069 q 522 1003 551 1033 q 484 960 497 979 q 471 921 471 942 q 474 904 471 915 z "},"Ā":{"ha":969,"x_min":-4,"x_max":969,"o":"m 964 17 q 969 8 969 17 q 964 0 969 0 q 883 3 939 0 q 806 6 831 6 q 729 3 776 6 q 663 0 685 0 q 657 8 657 0 q 663 17 657 17 q 744 27 719 17 q 769 63 769 38 q 754 117 769 82 l 589 471 l 324 471 l 199 171 q 179 93 179 124 q 213 35 179 53 q 317 17 246 17 q 324 8 324 17 q 317 0 324 0 q 244 3 292 0 q 153 6 192 6 q 71 3 118 6 q 3 0 29 0 q -4 8 -4 0 q 3 17 -4 17 q 69 31 42 17 q 120 81 96 44 q 172 183 144 117 l 463 882 q 472 886 465 886 q 479 882 478 886 l 801 190 q 858 83 833 119 q 908 31 883 46 q 964 17 932 17 m 335 497 l 578 497 l 449 772 l 335 497 m 294 1006 q 290 1011 292 1006 q 288 1024 288 1017 q 294 1042 288 1042 l 643 1042 q 650 1024 650 1042 q 643 1006 650 1006 l 294 1006 z "},"Ą":{"ha":974,"x_min":-4,"x_max":969,"o":"m 964 13 q 969 5 969 13 q 964 -3 969 -3 q 892 0 936 -3 l 836 1 q 744 -22 788 1 q 675 -88 701 -46 q 649 -183 649 -131 q 688 -297 649 -249 q 808 -344 728 -344 q 890 -325 857 -344 l 892 -325 q 899 -329 896 -325 q 900 -336 903 -333 q 756 -382 838 -382 q 628 -342 675 -382 q 582 -231 582 -301 q 610 -130 582 -171 q 690 -37 638 -89 q 746 22 728 -3 q 764 74 764 46 q 754 114 764 94 l 586 471 l 322 471 l 199 171 q 179 93 179 124 q 213 35 179 53 q 317 17 246 17 q 324 8 324 17 q 317 0 324 0 q 244 3 292 0 q 153 6 192 6 q 71 3 118 6 q 3 0 29 0 q -4 8 -4 0 q 3 17 -4 17 q 69 31 42 17 q 120 81 96 44 q 172 183 144 117 l 463 882 q 472 886 465 886 q 479 882 478 886 l 801 188 q 882 49 847 85 q 964 13 917 13 m 333 497 l 574 497 l 446 768 l 333 497 z "},"Å":{"ha":969,"x_min":-4,"x_max":969,"o":"m 964 17 q 969 8 969 17 q 964 0 969 0 q 883 3 939 0 q 806 6 831 6 q 729 3 776 6 q 663 0 685 0 q 657 8 657 0 q 663 17 657 17 q 744 27 719 17 q 769 63 769 38 q 754 117 769 82 l 589 471 l 324 471 l 199 171 q 179 93 179 124 q 213 35 179 53 q 317 17 246 17 q 324 8 324 17 q 317 0 324 0 q 244 3 292 0 q 153 6 192 6 q 71 3 118 6 q 3 0 29 0 q -4 8 -4 0 q 3 17 -4 17 q 69 31 42 17 q 120 81 96 44 q 172 183 144 117 l 463 882 q 472 886 465 886 q 479 882 478 886 l 801 190 q 858 83 833 119 q 908 31 883 46 q 964 17 932 17 m 335 497 l 578 497 l 449 772 l 335 497 m 464 924 q 381 957 413 924 q 349 1035 349 990 q 388 1113 349 1085 q 478 1142 428 1142 q 559 1110 525 1142 q 593 1032 593 1078 q 553 953 593 983 q 464 924 514 924 m 485 938 q 526 954 513 938 q 539 1007 539 971 q 513 1093 539 1057 q 450 1129 488 1129 q 413 1113 424 1129 q 401 1063 401 1097 q 424 976 401 1015 q 485 938 447 938 z "},"Ǻ":{"ha":969,"x_min":-4,"x_max":969,"o":"m 964 17 q 969 8 969 17 q 964 0 969 0 q 883 3 939 0 q 806 6 831 6 q 729 3 776 6 q 663 0 685 0 q 657 8 657 0 q 663 17 657 17 q 744 27 719 17 q 769 63 769 38 q 754 117 769 82 l 589 471 l 324 471 l 199 171 q 179 93 179 124 q 213 35 179 53 q 317 17 246 17 q 324 8 324 17 q 317 0 324 0 q 244 3 292 0 q 153 6 192 6 q 71 3 118 6 q 3 0 29 0 q -4 8 -4 0 q 3 17 -4 17 q 69 31 42 17 q 120 81 96 44 q 172 183 144 117 l 463 882 q 472 886 465 886 q 479 882 478 886 l 801 190 q 858 83 833 119 q 908 31 883 46 q 964 17 932 17 m 335 497 l 578 497 l 449 772 l 335 497 m 340 1126 q 334 1133 336 1126 q 336 1140 332 1139 q 463 1203 360 1151 l 526 1236 q 555 1231 532 1239 q 595 1213 578 1224 q 603 1201 613 1203 q 343 1126 481 1176 l 340 1126 m 460 938 q 376 965 408 938 q 344 1032 344 993 q 385 1099 344 1074 q 474 1124 425 1124 q 555 1096 521 1124 q 589 1029 589 1068 q 549 963 589 988 q 460 938 510 938 m 482 951 q 522 964 510 951 q 535 1004 535 976 q 509 1078 535 1047 q 446 1110 483 1110 q 408 1098 419 1110 q 397 1060 397 1086 q 421 985 397 1018 q 482 951 444 951 z "},"Ã":{"ha":969,"x_min":-4,"x_max":969,"o":"m 964 17 q 969 8 969 17 q 964 0 969 0 q 883 3 939 0 q 806 6 831 6 q 729 3 776 6 q 663 0 685 0 q 657 8 657 0 q 663 17 657 17 q 744 27 719 17 q 769 63 769 38 q 754 117 769 82 l 589 471 l 324 471 l 199 171 q 179 93 179 124 q 213 35 179 53 q 317 17 246 17 q 324 8 324 17 q 317 0 324 0 q 244 3 292 0 q 153 6 192 6 q 71 3 118 6 q 3 0 29 0 q -4 8 -4 0 q 3 17 -4 17 q 69 31 42 17 q 120 81 96 44 q 172 183 144 117 l 463 882 q 472 886 465 886 q 479 882 478 886 l 801 190 q 858 83 833 119 q 908 31 883 46 q 964 17 932 17 m 335 497 l 578 497 l 449 772 l 335 497 m 576 1024 q 615 1033 600 1024 q 644 1061 629 1043 l 647 1061 q 654 1058 651 1061 q 654 1051 657 1054 q 594 988 618 1004 q 546 972 571 972 q 503 977 525 972 q 458 989 481 982 q 363 1006 400 1006 q 328 998 340 1006 q 308 981 317 990 q 294 968 299 972 l 293 968 q 285 972 289 968 q 285 978 282 975 q 338 1033 307 1008 q 401 1058 369 1058 q 474 1043 425 1058 q 576 1024 535 1024 z "},"Æ":{"ha":1210,"x_min":1,"x_max":1139,"o":"m 1122 203 q 1131 206 1122 207 q 1139 201 1139 206 q 1126 21 1126 114 q 1122 5 1126 10 q 1104 0 1117 0 l 547 0 q 544 8 544 0 q 547 17 544 17 q 627 24 601 17 q 662 51 653 31 q 671 113 671 71 l 671 439 l 424 439 l 238 171 q 194 74 194 108 q 304 17 194 17 q 311 8 311 17 q 304 0 311 0 q 232 3 279 0 q 140 6 179 6 q 67 3 108 6 q 7 0 28 0 q 1 8 1 0 q 7 17 1 17 q 101 62 47 17 q 210 183 156 107 l 636 797 q 654 832 654 822 q 631 848 654 844 q 547 851 608 851 q 544 860 544 851 q 547 868 544 868 l 1081 868 q 1093 856 1093 868 l 1096 688 q 1088 683 1096 683 q 1081 688 1081 683 q 1043 799 1081 756 q 944 842 1006 842 l 864 842 q 787 835 811 842 q 753 810 763 828 q 744 754 744 793 l 744 465 l 911 465 q 1000 487 975 465 q 1025 561 1025 508 q 1033 564 1025 564 q 1042 561 1042 564 l 1040 451 q 1042 392 1040 411 l 1043 326 q 1035 324 1043 324 q 1026 326 1026 324 q 1000 414 1026 389 q 907 439 974 439 l 744 439 l 744 118 q 753 59 744 78 q 787 33 763 40 q 864 26 811 26 l 976 26 q 1072 75 1032 26 q 1122 203 1111 124 m 442 465 l 671 465 l 671 794 l 442 465 z "},"Ǽ":{"ha":1210,"x_min":1,"x_max":1139,"o":"m 1122 203 q 1131 206 1122 207 q 1139 201 1139 206 q 1126 21 1126 114 q 1122 5 1126 10 q 1104 0 1117 0 l 547 0 q 544 8 544 0 q 547 17 544 17 q 627 24 601 17 q 662 51 653 31 q 671 113 671 71 l 671 439 l 424 439 l 238 171 q 194 74 194 108 q 304 17 194 17 q 311 8 311 17 q 304 0 311 0 q 232 3 279 0 q 140 6 179 6 q 67 3 108 6 q 7 0 28 0 q 1 8 1 0 q 7 17 1 17 q 101 62 47 17 q 210 183 156 107 l 636 797 q 654 832 654 822 q 631 848 654 844 q 547 851 608 851 q 544 860 544 851 q 547 868 544 868 l 1081 868 q 1093 856 1093 868 l 1096 688 q 1088 683 1096 683 q 1081 688 1081 683 q 1043 799 1081 756 q 944 842 1006 842 l 864 842 q 787 835 811 842 q 753 810 763 828 q 744 754 744 793 l 744 465 l 911 465 q 1000 487 975 465 q 1025 561 1025 508 q 1033 564 1025 564 q 1042 561 1042 564 l 1040 451 q 1042 392 1040 411 l 1043 326 q 1035 324 1043 324 q 1026 326 1026 324 q 1000 414 1026 389 q 907 439 974 439 l 744 439 l 744 118 q 753 59 744 78 q 787 33 763 40 q 864 26 811 26 l 976 26 q 1072 75 1032 26 q 1122 203 1111 124 m 442 465 l 671 465 l 671 794 l 442 465 m 667 942 q 660 948 661 942 q 663 957 658 954 q 832 1047 726 986 l 901 1086 q 930 1081 907 1089 q 970 1062 953 1072 q 978 1050 988 1051 q 820 1003 892 1029 q 669 943 749 978 l 667 942 z "},"Ǣ":{"ha":1210,"x_min":1,"x_max":1139,"o":"m 1122 203 q 1131 206 1122 207 q 1139 201 1139 206 q 1126 21 1126 114 q 1122 5 1126 10 q 1104 0 1117 0 l 547 0 q 544 8 544 0 q 547 17 544 17 q 627 24 601 17 q 662 51 653 31 q 671 113 671 71 l 671 439 l 424 439 l 238 171 q 194 74 194 108 q 304 17 194 17 q 311 8 311 17 q 304 0 311 0 q 232 3 279 0 q 140 6 179 6 q 67 3 108 6 q 7 0 28 0 q 1 8 1 0 q 7 17 1 17 q 101 62 47 17 q 210 183 156 107 l 636 797 q 654 832 654 822 q 631 848 654 844 q 547 851 608 851 q 544 860 544 851 q 547 868 544 868 l 1081 868 q 1093 856 1093 868 l 1096 688 q 1088 683 1096 683 q 1081 688 1081 683 q 1043 799 1081 756 q 944 842 1006 842 l 864 842 q 787 835 811 842 q 753 810 763 828 q 744 754 744 793 l 744 465 l 911 465 q 1000 487 975 465 q 1025 561 1025 508 q 1033 564 1025 564 q 1042 561 1042 564 l 1040 451 q 1042 392 1040 411 l 1043 326 q 1035 324 1043 324 q 1026 326 1026 324 q 1000 414 1026 389 q 907 439 974 439 l 744 439 l 744 118 q 753 59 744 78 q 787 33 763 40 q 864 26 811 26 l 976 26 q 1072 75 1032 26 q 1122 203 1111 124 m 442 465 l 671 465 l 671 794 l 442 465 m 629 1006 q 624 1011 626 1006 q 622 1024 622 1017 q 629 1042 622 1042 l 978 1042 q 985 1024 985 1042 q 978 1006 985 1006 l 629 1006 z "},"B":{"ha":763,"x_min":58,"x_max":693,"o":"m 451 490 q 626 418 560 483 q 693 257 693 353 q 658 122 693 182 q 563 28 624 63 q 428 -6 501 -6 q 328 -1 381 -6 q 282 1 308 0 q 222 3 256 3 l 131 1 q 61 0 106 0 q 58 8 58 0 q 61 17 58 17 q 142 24 117 17 q 178 51 168 31 q 188 113 188 71 l 188 756 q 178 817 188 797 q 144 844 169 836 q 64 851 118 851 q 60 860 60 851 q 64 868 60 868 l 131 867 q 222 864 186 864 q 269 865 247 864 q 308 868 292 867 q 385 872 351 872 q 555 820 500 872 q 610 688 610 768 q 567 569 610 619 q 451 490 524 518 m 353 854 q 296 849 314 854 q 269 822 278 843 q 260 753 260 801 l 260 489 l 325 488 q 485 540 435 488 q 535 678 535 592 q 491 805 535 756 q 353 854 447 854 m 408 17 q 562 70 511 17 q 613 222 613 124 q 548 394 613 328 q 374 461 483 460 q 260 458 322 463 l 260 113 q 272 55 260 75 q 315 26 283 35 q 408 17 347 17 z "},"C":{"ha":929,"x_min":68,"x_max":869,"o":"m 574 883 q 710 869 642 883 q 821 832 779 856 q 835 819 832 825 q 840 799 839 813 l 856 653 q 849 648 856 649 q 840 651 842 647 q 519 854 790 854 q 328 808 411 854 q 200 676 246 761 q 154 481 154 592 q 211 240 154 350 q 363 65 268 129 q 567 0 457 0 q 744 54 669 0 q 853 219 818 108 q 858 224 853 224 q 866 222 863 224 q 869 218 869 221 l 850 69 q 844 48 847 53 q 828 38 840 43 q 563 -17 704 -17 q 285 51 396 -17 q 121 223 174 118 q 68 443 68 328 q 139 670 68 569 q 326 827 210 771 q 574 883 443 883 z "},"Ć":{"ha":929,"x_min":68,"x_max":869,"o":"m 574 883 q 710 869 642 883 q 821 832 779 856 q 835 819 832 825 q 840 799 839 813 l 856 653 q 849 648 856 649 q 840 651 842 647 q 519 854 790 854 q 328 808 411 854 q 200 676 246 761 q 154 481 154 592 q 211 240 154 350 q 363 65 268 129 q 567 0 457 0 q 744 54 669 0 q 853 219 818 108 q 858 224 853 224 q 866 222 863 224 q 869 218 869 221 l 850 69 q 844 48 847 53 q 828 38 840 43 q 563 -17 704 -17 q 285 51 396 -17 q 121 223 174 118 q 68 443 68 328 q 139 670 68 569 q 326 827 210 771 q 574 883 443 883 m 389 942 q 382 948 383 942 q 385 957 381 954 q 554 1047 449 986 l 624 1086 q 652 1081 629 1089 q 692 1062 675 1072 q 700 1050 710 1051 q 542 1003 614 1029 q 392 943 471 978 l 389 942 z "},"Č":{"ha":929,"x_min":68,"x_max":869,"o":"m 574 883 q 710 869 642 883 q 821 832 779 856 q 835 819 832 825 q 840 799 839 813 l 856 653 q 849 648 856 649 q 840 651 842 647 q 519 854 790 854 q 328 808 411 854 q 200 676 246 761 q 154 481 154 592 q 211 240 154 350 q 363 65 268 129 q 567 0 457 0 q 744 54 669 0 q 853 219 818 108 q 858 224 853 224 q 866 222 863 224 q 869 218 869 221 l 850 69 q 844 48 847 53 q 828 38 840 43 q 563 -17 704 -17 q 285 51 396 -17 q 121 223 174 118 q 68 443 68 328 q 139 670 68 569 q 326 827 210 771 q 574 883 443 883 m 367 1082 q 365 1083 365 1082 q 365 1083 365 1083 q 369 1090 365 1086 q 375 1092 372 1093 l 526 1006 l 676 1092 l 678 1092 q 685 1088 682 1092 q 683 1082 688 1083 l 542 954 q 526 949 536 949 q 510 954 515 949 l 367 1082 z "},"Ç":{"ha":929,"x_min":68,"x_max":869,"o":"m 853 219 q 858 224 853 224 q 866 222 863 224 q 869 218 869 221 l 850 69 q 844 48 847 53 q 828 38 840 43 q 563 -17 704 -17 l 535 -17 q 517 -87 517 -74 q 526 -111 517 -103 q 552 -129 535 -119 q 579 -144 569 -139 q 634 -189 614 -164 q 654 -251 654 -214 q 619 -342 654 -301 q 517 -382 583 -382 q 456 -369 481 -382 q 431 -332 431 -356 q 442 -305 431 -315 q 469 -294 453 -294 q 491 -301 483 -294 q 506 -322 499 -308 q 526 -347 517 -339 q 557 -356 536 -356 q 608 -299 608 -356 q 583 -234 608 -262 q 489 -169 557 -206 q 472 -160 478 -164 q 467 -150 467 -156 q 475 -126 467 -143 q 517 -15 496 -76 q 265 63 365 -6 q 116 232 164 131 q 68 443 68 333 q 139 670 68 569 q 326 827 210 771 q 574 883 443 883 q 710 869 642 883 q 821 832 779 856 q 835 819 832 825 q 840 799 839 813 l 856 653 q 849 648 856 649 q 840 651 842 647 q 519 854 790 854 q 328 808 411 854 q 200 676 246 761 q 154 481 154 592 q 211 240 154 350 q 363 65 268 129 q 567 0 457 0 q 744 54 669 0 q 853 219 818 108 z "},"Ĉ":{"ha":929,"x_min":68,"x_max":869,"o":"m 574 883 q 710 869 642 883 q 821 832 779 856 q 835 819 832 825 q 840 799 839 813 l 856 653 q 849 648 856 649 q 840 651 842 647 q 519 854 790 854 q 328 808 411 854 q 200 676 246 761 q 154 481 154 592 q 211 240 154 350 q 363 65 268 129 q 567 0 457 0 q 744 54 669 0 q 853 219 818 108 q 858 224 853 224 q 866 222 863 224 q 869 218 869 221 l 850 69 q 844 48 847 53 q 828 38 840 43 q 563 -17 704 -17 q 285 51 396 -17 q 121 223 174 118 q 68 443 68 328 q 139 670 68 569 q 326 827 210 771 q 574 883 443 883 m 511 1088 q 528 1094 518 1094 q 543 1088 536 1094 l 685 958 q 686 956 686 958 q 683 950 686 953 q 678 949 679 947 l 528 1035 l 376 949 q 369 952 374 947 q 368 958 365 957 l 511 1088 z "},"Ċ":{"ha":929,"x_min":68,"x_max":869,"o":"m 574 883 q 710 869 642 883 q 821 832 779 856 q 835 819 832 825 q 840 799 839 813 l 856 653 q 849 648 856 649 q 840 651 842 647 q 519 854 790 854 q 328 808 411 854 q 200 676 246 761 q 154 481 154 592 q 211 240 154 350 q 363 65 268 129 q 567 0 457 0 q 744 54 669 0 q 853 219 818 108 q 858 224 853 224 q 866 222 863 224 q 869 218 869 221 l 850 69 q 844 48 847 53 q 828 38 840 43 q 563 -17 704 -17 q 285 51 396 -17 q 121 223 174 118 q 68 443 68 328 q 139 670 68 569 q 326 827 210 771 q 574 883 443 883 m 526 990 q 485 1004 500 990 q 471 1044 471 1018 q 485 1082 471 1068 q 526 1096 500 1096 q 565 1082 551 1096 q 579 1044 579 1068 q 565 1004 579 1018 q 526 990 551 990 z "},"D":{"ha":956,"x_min":47,"x_max":888,"o":"m 413 -6 q 322 -1 372 -6 q 274 1 303 0 q 211 3 246 3 l 119 1 q 50 0 94 0 q 47 8 47 0 q 50 17 47 17 q 130 24 104 17 q 165 51 156 31 q 175 113 175 71 l 175 756 q 166 817 175 797 q 131 844 157 836 q 51 851 106 851 q 49 860 49 851 q 51 868 49 868 l 119 867 q 211 864 178 864 q 310 868 260 864 q 393 871 371 871 q 651 815 539 871 q 826 664 764 760 q 888 449 888 568 q 823 210 888 314 q 650 51 758 107 q 413 -6 542 -6 m 399 13 q 606 60 515 13 q 747 199 696 107 q 797 418 797 290 q 749 639 797 540 q 612 795 701 738 q 406 853 522 853 q 312 846 344 853 q 264 817 279 839 q 249 753 249 796 l 249 128 q 261 61 249 86 q 306 24 274 36 q 399 13 338 13 z "},"Ð":{"ha":956,"x_min":47,"x_max":888,"o":"m 393 871 q 651 815 539 871 q 826 664 764 760 q 888 449 888 568 q 823 210 888 314 q 650 51 758 107 q 413 -6 542 -6 q 322 -1 372 -6 q 274 1 303 0 q 211 3 246 3 l 119 1 q 50 0 94 0 q 47 8 47 0 q 50 17 47 17 q 130 24 104 17 q 165 51 156 31 q 175 113 175 71 l 175 419 l 74 419 q 68 432 68 419 q 74 444 68 444 l 175 444 l 175 756 q 166 817 175 797 q 131 844 157 836 q 51 851 106 851 q 49 860 49 851 q 51 868 49 868 l 119 867 q 211 864 178 864 q 310 868 260 864 q 393 871 371 871 m 399 13 q 606 60 515 13 q 747 199 696 107 q 797 418 797 290 q 749 639 797 540 q 612 795 701 738 q 406 853 522 853 q 312 846 344 853 q 264 817 279 839 q 249 753 249 796 l 249 444 l 438 444 q 443 432 443 444 q 438 419 443 419 l 249 419 l 249 128 q 261 61 249 86 q 306 24 274 36 q 399 13 338 13 z "},"Ď":{"ha":956,"x_min":47,"x_max":888,"o":"m 413 -6 q 322 -1 372 -6 q 274 1 303 0 q 211 3 246 3 l 119 1 q 50 0 94 0 q 47 8 47 0 q 50 17 47 17 q 130 24 104 17 q 165 51 156 31 q 175 113 175 71 l 175 756 q 166 817 175 797 q 131 844 157 836 q 51 851 106 851 q 49 860 49 851 q 51 868 49 868 l 119 867 q 211 864 178 864 q 310 868 260 864 q 393 871 371 871 q 651 815 539 871 q 826 664 764 760 q 888 449 888 568 q 823 210 888 314 q 650 51 758 107 q 413 -6 542 -6 m 399 13 q 606 60 515 13 q 747 199 696 107 q 797 418 797 290 q 749 639 797 540 q 612 795 701 738 q 406 853 522 853 q 312 846 344 853 q 264 817 279 839 q 249 753 249 796 l 249 128 q 261 61 249 86 q 306 24 274 36 q 399 13 338 13 m 281 1082 q 279 1083 279 1082 q 279 1083 279 1083 q 283 1090 279 1086 q 289 1092 286 1093 l 440 1006 l 590 1092 l 592 1092 q 599 1088 596 1092 q 597 1082 601 1083 l 456 954 q 440 949 450 949 q 424 954 429 949 l 281 1082 z "},"Đ":{"ha":956,"x_min":47,"x_max":888,"o":"m 393 871 q 651 815 539 871 q 826 664 764 760 q 888 449 888 568 q 823 210 888 314 q 650 51 758 107 q 413 -6 542 -6 q 322 -1 372 -6 q 274 1 303 0 q 211 3 246 3 l 119 1 q 50 0 94 0 q 47 8 47 0 q 50 17 47 17 q 130 24 104 17 q 165 51 156 31 q 175 113 175 71 l 175 419 l 74 419 q 68 432 68 419 q 74 444 68 444 l 175 444 l 175 756 q 166 817 175 797 q 131 844 157 836 q 51 851 106 851 q 49 860 49 851 q 51 868 49 868 l 119 867 q 211 864 178 864 q 310 868 260 864 q 393 871 371 871 m 399 13 q 606 60 515 13 q 747 199 696 107 q 797 418 797 290 q 749 639 797 540 q 612 795 701 738 q 406 853 522 853 q 312 846 344 853 q 264 817 279 839 q 249 753 249 796 l 249 444 l 438 444 q 443 432 443 444 q 438 419 443 419 l 249 419 l 249 128 q 261 61 249 86 q 306 24 274 36 q 399 13 338 13 z "},"Ḍ":{"ha":956,"x_min":47,"x_max":888,"o":"m 413 -6 q 322 -1 372 -6 q 274 1 303 0 q 211 3 246 3 l 119 1 q 50 0 94 0 q 47 8 47 0 q 50 17 47 17 q 130 24 104 17 q 165 51 156 31 q 175 113 175 71 l 175 756 q 166 817 175 797 q 131 844 157 836 q 51 851 106 851 q 49 860 49 851 q 51 868 49 868 l 119 867 q 211 864 178 864 q 310 868 260 864 q 393 871 371 871 q 651 815 539 871 q 826 664 764 760 q 888 449 888 568 q 823 210 888 314 q 650 51 758 107 q 413 -6 542 -6 m 399 13 q 606 60 515 13 q 747 199 696 107 q 797 418 797 290 q 749 639 797 540 q 612 795 701 738 q 406 853 522 853 q 312 846 344 853 q 264 817 279 839 q 249 753 249 796 l 249 128 q 261 61 249 86 q 306 24 274 36 q 399 13 338 13 m 446 -258 q 405 -244 419 -258 q 390 -206 390 -231 q 405 -167 390 -181 q 446 -153 419 -153 q 485 -167 471 -153 q 499 -206 499 -181 q 485 -244 499 -231 q 446 -258 471 -258 z "},"Ḏ":{"ha":956,"x_min":47,"x_max":888,"o":"m 413 -6 q 322 -1 372 -6 q 274 1 303 0 q 211 3 246 3 l 119 1 q 50 0 94 0 q 47 8 47 0 q 50 17 47 17 q 130 24 104 17 q 165 51 156 31 q 175 113 175 71 l 175 756 q 166 817 175 797 q 131 844 157 836 q 51 851 106 851 q 49 860 49 851 q 51 868 49 868 l 119 867 q 211 864 178 864 q 310 868 260 864 q 393 871 371 871 q 651 815 539 871 q 826 664 764 760 q 888 449 888 568 q 823 210 888 314 q 650 51 758 107 q 413 -6 542 -6 m 399 13 q 606 60 515 13 q 747 199 696 107 q 797 418 797 290 q 749 639 797 540 q 612 795 701 738 q 406 853 522 853 q 312 846 344 853 q 264 817 279 839 q 249 753 249 796 l 249 128 q 261 61 249 86 q 306 24 274 36 q 399 13 338 13 m 269 -154 q 263 -136 263 -154 q 269 -118 263 -118 l 618 -118 q 623 -124 621 -118 q 625 -136 625 -129 q 618 -154 625 -154 l 269 -154 z "},"E":{"ha":740,"x_min":58,"x_max":669,"o":"m 653 203 q 661 206 653 207 q 669 201 669 206 q 657 21 657 114 q 652 5 657 10 q 635 0 647 0 l 61 0 q 58 8 58 0 q 61 17 58 17 q 141 24 115 17 q 176 51 167 31 q 185 113 185 71 l 185 756 q 176 817 185 797 q 141 844 167 836 q 61 851 115 851 q 58 860 58 851 q 61 868 58 868 l 611 868 q 624 856 624 868 l 626 688 q 619 683 626 683 q 611 688 611 683 q 574 800 611 758 q 475 842 536 842 l 379 842 q 301 835 326 842 q 267 808 276 828 q 258 747 258 789 l 258 465 l 442 465 q 531 487 506 465 q 556 561 556 508 q 564 564 556 564 q 572 561 572 564 l 571 451 q 572 392 571 411 l 574 326 q 565 324 574 324 q 557 326 557 324 q 531 414 557 389 q 438 439 504 439 l 258 439 l 258 118 q 267 59 258 78 q 301 33 276 40 q 379 26 325 26 l 507 26 q 602 75 563 26 q 653 203 642 124 z "},"É":{"ha":740,"x_min":58,"x_max":669,"o":"m 653 203 q 661 206 653 207 q 669 201 669 206 q 657 21 657 114 q 652 5 657 10 q 635 0 647 0 l 61 0 q 58 8 58 0 q 61 17 58 17 q 141 24 115 17 q 176 51 167 31 q 185 113 185 71 l 185 756 q 176 817 185 797 q 141 844 167 836 q 61 851 115 851 q 58 860 58 851 q 61 868 58 868 l 611 868 q 624 856 624 868 l 626 688 q 619 683 626 683 q 611 688 611 683 q 574 800 611 758 q 475 842 536 842 l 379 842 q 301 835 326 842 q 267 808 276 828 q 258 747 258 789 l 258 465 l 442 465 q 531 487 506 465 q 556 561 556 508 q 564 564 556 564 q 572 561 572 564 l 571 451 q 572 392 571 411 l 574 326 q 565 324 574 324 q 557 326 557 324 q 531 414 557 389 q 438 439 504 439 l 258 439 l 258 118 q 267 59 258 78 q 301 33 276 40 q 379 26 325 26 l 507 26 q 602 75 563 26 q 653 203 642 124 m 265 942 q 258 948 260 942 q 261 957 257 954 q 431 1047 325 986 l 500 1086 q 528 1081 506 1089 q 569 1062 551 1072 q 576 1050 586 1051 q 419 1003 490 1029 q 268 943 347 978 l 265 942 z "},"Ĕ":{"ha":740,"x_min":58,"x_max":669,"o":"m 653 203 q 661 206 653 207 q 669 201 669 206 q 657 21 657 114 q 652 5 657 10 q 635 0 647 0 l 61 0 q 58 8 58 0 q 61 17 58 17 q 141 24 115 17 q 176 51 167 31 q 185 113 185 71 l 185 756 q 176 817 185 797 q 141 844 167 836 q 61 851 115 851 q 58 860 58 851 q 61 868 58 868 l 611 868 q 624 856 624 868 l 626 688 q 619 683 626 683 q 611 688 611 683 q 574 800 611 758 q 475 842 536 842 l 379 842 q 301 835 326 842 q 267 808 276 828 q 258 747 258 789 l 258 465 l 442 465 q 531 487 506 465 q 556 561 556 508 q 564 564 556 564 q 572 561 572 564 l 571 451 q 572 392 571 411 l 574 326 q 565 324 574 324 q 557 326 557 324 q 531 414 557 389 q 438 439 504 439 l 258 439 l 258 118 q 267 59 258 78 q 301 33 276 40 q 379 26 325 26 l 507 26 q 602 75 563 26 q 653 203 642 124 m 403 958 q 309 995 346 958 q 260 1100 272 1032 q 265 1106 258 1106 q 275 1104 272 1107 q 324 1034 286 1063 q 403 1006 361 1006 q 481 1035 444 1006 q 529 1104 518 1064 q 535 1107 529 1107 q 542 1105 539 1107 q 544 1100 546 1103 q 496 995 532 1032 q 403 958 460 958 z "},"Ě":{"ha":740,"x_min":58,"x_max":669,"o":"m 653 203 q 661 206 653 207 q 669 201 669 206 q 657 21 657 114 q 652 5 657 10 q 635 0 647 0 l 61 0 q 58 8 58 0 q 61 17 58 17 q 141 24 115 17 q 176 51 167 31 q 185 113 185 71 l 185 756 q 176 817 185 797 q 141 844 167 836 q 61 851 115 851 q 58 860 58 851 q 61 868 58 868 l 611 868 q 624 856 624 868 l 626 688 q 619 683 626 683 q 611 688 611 683 q 574 800 611 758 q 475 842 536 842 l 379 842 q 301 835 326 842 q 267 808 276 828 q 258 747 258 789 l 258 465 l 442 465 q 531 487 506 465 q 556 561 556 508 q 564 564 556 564 q 572 561 572 564 l 571 451 q 572 392 571 411 l 574 326 q 565 324 574 324 q 557 326 557 324 q 531 414 557 389 q 438 439 504 439 l 258 439 l 258 118 q 267 59 258 78 q 301 33 276 40 q 379 26 325 26 l 507 26 q 602 75 563 26 q 653 203 642 124 m 243 1082 q 242 1083 242 1082 q 242 1083 242 1083 q 245 1090 242 1086 q 251 1092 249 1093 l 403 1006 l 553 1092 l 554 1092 q 561 1088 558 1092 q 560 1082 564 1083 l 418 954 q 403 949 413 949 q 386 954 392 949 l 243 1082 z "},"Ê":{"ha":740,"x_min":58,"x_max":669,"o":"m 653 203 q 661 206 653 207 q 669 201 669 206 q 657 21 657 114 q 652 5 657 10 q 635 0 647 0 l 61 0 q 58 8 58 0 q 61 17 58 17 q 141 24 115 17 q 176 51 167 31 q 185 113 185 71 l 185 756 q 176 817 185 797 q 141 844 167 836 q 61 851 115 851 q 58 860 58 851 q 61 868 58 868 l 611 868 q 624 856 624 868 l 626 688 q 619 683 626 683 q 611 688 611 683 q 574 800 611 758 q 475 842 536 842 l 379 842 q 301 835 326 842 q 267 808 276 828 q 258 747 258 789 l 258 465 l 442 465 q 531 487 506 465 q 556 561 556 508 q 564 564 556 564 q 572 561 572 564 l 571 451 q 572 392 571 411 l 574 326 q 565 324 574 324 q 557 326 557 324 q 531 414 557 389 q 438 439 504 439 l 258 439 l 258 118 q 267 59 258 78 q 301 33 276 40 q 379 26 325 26 l 507 26 q 602 75 563 26 q 653 203 642 124 m 388 1088 q 404 1094 394 1094 q 419 1088 413 1094 l 561 958 q 563 956 563 958 q 559 950 563 953 q 554 949 556 947 l 404 1035 l 253 949 q 246 952 250 947 q 244 958 242 957 l 388 1088 z "},"Ế":{"ha":740,"x_min":58,"x_max":676,"o":"m 653 203 q 661 206 653 207 q 669 201 669 206 q 657 21 657 114 q 652 5 657 10 q 635 0 647 0 l 61 0 q 58 8 58 0 q 61 17 58 17 q 141 24 115 17 q 176 51 167 31 q 185 113 185 71 l 185 756 q 176 817 185 797 q 141 844 167 836 q 61 851 115 851 q 58 860 58 851 q 61 868 58 868 l 611 868 q 624 856 624 868 l 626 688 q 619 683 626 683 q 611 688 611 683 q 574 800 611 758 q 475 842 536 842 l 379 842 q 301 835 326 842 q 267 808 276 828 q 258 747 258 789 l 258 465 l 442 465 q 531 487 506 465 q 556 561 556 508 q 564 564 556 564 q 572 561 572 564 l 571 451 q 572 392 571 411 l 574 326 q 565 324 574 324 q 557 326 557 324 q 531 414 557 389 q 438 439 504 439 l 258 439 l 258 118 q 267 59 258 78 q 301 33 276 40 q 379 26 325 26 l 507 26 q 602 75 563 26 q 653 203 642 124 m 386 1038 q 401 1044 393 1044 q 418 1038 411 1044 l 560 910 q 561 907 561 910 q 558 901 561 904 q 553 900 554 899 l 403 986 l 251 900 q 244 903 249 899 q 243 910 240 908 l 386 1038 m 494 997 q 490 996 493 996 q 484 1001 486 996 q 485 1008 482 1006 q 597 1140 539 1063 q 624 1136 601 1144 q 665 1117 647 1128 q 674 1104 683 1106 q 583 1058 624 1083 q 494 997 542 1033 z "},"Ệ":{"ha":740,"x_min":58,"x_max":669,"o":"m 653 203 q 661 206 653 207 q 669 201 669 206 q 657 21 657 114 q 652 5 657 10 q 635 0 647 0 l 61 0 q 58 8 58 0 q 61 17 58 17 q 141 24 115 17 q 176 51 167 31 q 185 113 185 71 l 185 756 q 176 817 185 797 q 141 844 167 836 q 61 851 115 851 q 58 860 58 851 q 61 868 58 868 l 611 868 q 624 856 624 868 l 626 688 q 619 683 626 683 q 611 688 611 683 q 574 800 611 758 q 475 842 536 842 l 379 842 q 301 835 326 842 q 267 808 276 828 q 258 747 258 789 l 258 465 l 442 465 q 531 487 506 465 q 556 561 556 508 q 564 564 556 564 q 572 561 572 564 l 571 451 q 572 392 571 411 l 574 326 q 565 324 574 324 q 557 326 557 324 q 531 414 557 389 q 438 439 504 439 l 258 439 l 258 118 q 267 59 258 78 q 301 33 276 40 q 379 26 325 26 l 507 26 q 602 75 563 26 q 653 203 642 124 m 396 -258 q 355 -244 369 -258 q 340 -206 340 -231 q 355 -167 340 -181 q 396 -153 369 -153 q 435 -167 421 -153 q 449 -206 449 -181 q 435 -244 449 -231 q 396 -258 421 -258 m 386 1038 q 401 1044 393 1044 q 418 1038 411 1044 l 560 910 q 561 907 561 910 q 558 901 561 904 q 553 900 554 899 l 403 986 l 251 900 q 244 903 249 899 q 243 910 240 908 l 386 1038 z "},"Ề":{"ha":740,"x_min":58,"x_max":669,"o":"m 653 203 q 661 206 653 207 q 669 201 669 206 q 657 21 657 114 q 652 5 657 10 q 635 0 647 0 l 61 0 q 58 8 58 0 q 61 17 58 17 q 141 24 115 17 q 176 51 167 31 q 185 113 185 71 l 185 756 q 176 817 185 797 q 141 844 167 836 q 61 851 115 851 q 58 860 58 851 q 61 868 58 868 l 611 868 q 624 856 624 868 l 626 688 q 619 683 626 683 q 611 688 611 683 q 574 800 611 758 q 475 842 536 842 l 379 842 q 301 835 326 842 q 267 808 276 828 q 258 747 258 789 l 258 465 l 442 465 q 531 487 506 465 q 556 561 556 508 q 564 564 556 564 q 572 561 572 564 l 571 451 q 572 392 571 411 l 574 326 q 565 324 574 324 q 557 326 557 324 q 531 414 557 389 q 438 439 504 439 l 258 439 l 258 118 q 267 59 258 78 q 301 33 276 40 q 379 26 325 26 l 507 26 q 602 75 563 26 q 653 203 642 124 m 386 1038 q 401 1044 393 1044 q 418 1038 411 1044 l 560 910 q 561 907 561 910 q 558 901 561 904 q 553 900 554 899 l 403 986 l 251 900 q 244 903 249 899 q 243 910 240 908 l 386 1038 m 640 965 q 552 1026 593 1001 q 461 1072 511 1051 q 469 1085 451 1074 q 511 1104 488 1096 q 538 1108 535 1113 q 650 978 585 1044 l 653 972 q 649 966 653 968 q 640 965 644 964 z "},"Ể":{"ha":740,"x_min":58,"x_max":669,"o":"m 653 203 q 661 206 653 207 q 669 201 669 206 q 657 21 657 114 q 652 5 657 10 q 635 0 647 0 l 61 0 q 58 8 58 0 q 61 17 58 17 q 141 24 115 17 q 176 51 167 31 q 185 113 185 71 l 185 756 q 176 817 185 797 q 141 844 167 836 q 61 851 115 851 q 58 860 58 851 q 61 868 58 868 l 611 868 q 624 856 624 868 l 626 688 q 619 683 626 683 q 611 688 611 683 q 574 800 611 758 q 475 842 536 842 l 379 842 q 301 835 326 842 q 267 808 276 828 q 258 747 258 789 l 258 465 l 442 465 q 531 487 506 465 q 556 561 556 508 q 564 564 556 564 q 572 561 572 564 l 571 451 q 572 392 571 411 l 574 326 q 565 324 574 324 q 557 326 557 324 q 531 414 557 389 q 438 439 504 439 l 258 439 l 258 118 q 267 59 258 78 q 301 33 276 40 q 379 26 325 26 l 507 26 q 602 75 563 26 q 653 203 642 124 m 386 1038 q 401 1044 393 1044 q 418 1038 411 1044 l 560 910 q 561 907 561 910 q 558 901 561 904 q 553 900 554 899 l 403 986 l 251 900 q 244 903 249 899 q 243 910 240 908 l 386 1038 m 511 1003 q 508 1021 508 1010 q 529 1072 508 1042 q 546 1101 540 1089 q 551 1126 551 1113 q 536 1158 551 1147 q 503 1169 521 1169 q 468 1161 483 1169 l 467 1161 q 458 1166 463 1161 q 458 1172 454 1171 q 502 1192 479 1185 q 542 1199 525 1199 q 588 1181 571 1199 q 606 1140 606 1163 q 594 1105 606 1121 q 561 1068 582 1089 q 531 1033 540 1047 q 526 1003 522 1019 q 521 999 529 1000 q 511 1003 513 999 z "},"Ễ":{"ha":740,"x_min":58,"x_max":669,"o":"m 653 203 q 661 206 653 207 q 669 201 669 206 q 657 21 657 114 q 652 5 657 10 q 635 0 647 0 l 61 0 q 58 8 58 0 q 61 17 58 17 q 141 24 115 17 q 176 51 167 31 q 185 113 185 71 l 185 756 q 176 817 185 797 q 141 844 167 836 q 61 851 115 851 q 58 860 58 851 q 61 868 58 868 l 611 868 q 624 856 624 868 l 626 688 q 619 683 626 683 q 611 688 611 683 q 574 800 611 758 q 475 842 536 842 l 379 842 q 301 835 326 842 q 267 808 276 828 q 258 747 258 789 l 258 465 l 442 465 q 531 487 506 465 q 556 561 556 508 q 564 564 556 564 q 572 561 572 564 l 571 451 q 572 392 571 411 l 574 326 q 565 324 574 324 q 557 326 557 324 q 531 414 557 389 q 438 439 504 439 l 258 439 l 258 118 q 267 59 258 78 q 301 33 276 40 q 379 26 325 26 l 507 26 q 602 75 563 26 q 653 203 642 124 m 386 1038 q 401 1044 393 1044 q 418 1038 411 1044 l 560 910 q 561 907 561 910 q 558 901 561 904 q 553 900 554 899 l 403 986 l 251 900 q 244 903 249 899 q 243 910 240 908 l 386 1038 m 517 1111 q 555 1121 540 1111 q 585 1149 569 1131 l 586 1149 q 594 1145 590 1149 q 594 1139 597 1142 q 535 1075 558 1092 q 486 1058 511 1058 q 443 1063 465 1058 q 399 1075 421 1068 q 351 1088 376 1082 q 303 1093 326 1093 q 269 1085 281 1093 q 248 1069 257 1078 q 235 1056 239 1060 l 232 1056 q 225 1059 228 1056 q 225 1065 222 1063 q 278 1120 247 1096 q 342 1144 310 1144 q 385 1138 361 1144 q 414 1131 410 1132 q 517 1111 475 1111 z "},"Ë":{"ha":740,"x_min":58,"x_max":669,"o":"m 653 203 q 661 206 653 207 q 669 201 669 206 q 657 21 657 114 q 652 5 657 10 q 635 0 647 0 l 61 0 q 58 8 58 0 q 61 17 58 17 q 141 24 115 17 q 176 51 167 31 q 185 113 185 71 l 185 756 q 176 817 185 797 q 141 844 167 836 q 61 851 115 851 q 58 860 58 851 q 61 868 58 868 l 611 868 q 624 856 624 868 l 626 688 q 619 683 626 683 q 611 688 611 683 q 574 800 611 758 q 475 842 536 842 l 379 842 q 301 835 326 842 q 267 808 276 828 q 258 747 258 789 l 258 465 l 442 465 q 531 487 506 465 q 556 561 556 508 q 564 564 556 564 q 572 561 572 564 l 571 451 q 572 392 571 411 l 574 326 q 565 324 574 324 q 557 326 557 324 q 531 414 557 389 q 438 439 504 439 l 258 439 l 258 118 q 267 59 258 78 q 301 33 276 40 q 379 26 325 26 l 507 26 q 602 75 563 26 q 653 203 642 124 m 282 1000 q 241 1014 256 1000 q 226 1053 226 1028 q 241 1092 226 1078 q 282 1106 256 1106 q 321 1092 307 1106 q 335 1053 335 1078 q 321 1014 335 1028 q 282 1000 307 1000 m 525 1000 q 485 1014 500 1000 q 469 1053 469 1028 q 485 1092 469 1078 q 525 1106 500 1106 q 565 1092 551 1106 q 579 1053 579 1078 q 565 1014 579 1028 q 525 1000 551 1000 z "},"Ė":{"ha":740,"x_min":58,"x_max":669,"o":"m 653 203 q 661 206 653 207 q 669 201 669 206 q 657 21 657 114 q 652 5 657 10 q 635 0 647 0 l 61 0 q 58 8 58 0 q 61 17 58 17 q 141 24 115 17 q 176 51 167 31 q 185 113 185 71 l 185 756 q 176 817 185 797 q 141 844 167 836 q 61 851 115 851 q 58 860 58 851 q 61 868 58 868 l 611 868 q 624 856 624 868 l 626 688 q 619 683 626 683 q 611 688 611 683 q 574 800 611 758 q 475 842 536 842 l 379 842 q 301 835 326 842 q 267 808 276 828 q 258 747 258 789 l 258 465 l 442 465 q 531 487 506 465 q 556 561 556 508 q 564 564 556 564 q 572 561 572 564 l 571 451 q 572 392 571 411 l 574 326 q 565 324 574 324 q 557 326 557 324 q 531 414 557 389 q 438 439 504 439 l 258 439 l 258 118 q 267 59 258 78 q 301 33 276 40 q 379 26 325 26 l 507 26 q 602 75 563 26 q 653 203 642 124 m 403 990 q 362 1004 376 990 q 347 1044 347 1018 q 362 1082 347 1068 q 403 1096 376 1096 q 442 1082 428 1096 q 456 1044 456 1068 q 442 1004 456 1018 q 403 990 428 990 z "},"Ẹ":{"ha":740,"x_min":58,"x_max":669,"o":"m 653 203 q 661 206 653 207 q 669 201 669 206 q 657 21 657 114 q 652 5 657 10 q 635 0 647 0 l 61 0 q 58 8 58 0 q 61 17 58 17 q 141 24 115 17 q 176 51 167 31 q 185 113 185 71 l 185 756 q 176 817 185 797 q 141 844 167 836 q 61 851 115 851 q 58 860 58 851 q 61 868 58 868 l 611 868 q 624 856 624 868 l 626 688 q 619 683 626 683 q 611 688 611 683 q 574 800 611 758 q 475 842 536 842 l 379 842 q 301 835 326 842 q 267 808 276 828 q 258 747 258 789 l 258 465 l 442 465 q 531 487 506 465 q 556 561 556 508 q 564 564 556 564 q 572 561 572 564 l 571 451 q 572 392 571 411 l 574 326 q 565 324 574 324 q 557 326 557 324 q 531 414 557 389 q 438 439 504 439 l 258 439 l 258 118 q 267 59 258 78 q 301 33 276 40 q 379 26 325 26 l 507 26 q 602 75 563 26 q 653 203 642 124 m 396 -258 q 355 -244 369 -258 q 340 -206 340 -231 q 355 -167 340 -181 q 396 -153 369 -153 q 435 -167 421 -153 q 449 -206 449 -181 q 435 -244 449 -231 q 396 -258 421 -258 z "},"È":{"ha":740,"x_min":58,"x_max":669,"o":"m 653 203 q 661 206 653 207 q 669 201 669 206 q 657 21 657 114 q 652 5 657 10 q 635 0 647 0 l 61 0 q 58 8 58 0 q 61 17 58 17 q 141 24 115 17 q 176 51 167 31 q 185 113 185 71 l 185 756 q 176 817 185 797 q 141 844 167 836 q 61 851 115 851 q 58 860 58 851 q 61 868 58 868 l 611 868 q 624 856 624 868 l 626 688 q 619 683 626 683 q 611 688 611 683 q 574 800 611 758 q 475 842 536 842 l 379 842 q 301 835 326 842 q 267 808 276 828 q 258 747 258 789 l 258 465 l 442 465 q 531 487 506 465 q 556 561 556 508 q 564 564 556 564 q 572 561 572 564 l 571 451 q 572 392 571 411 l 574 326 q 565 324 574 324 q 557 326 557 324 q 531 414 557 389 q 438 439 504 439 l 258 439 l 258 118 q 267 59 258 78 q 301 33 276 40 q 379 26 325 26 l 507 26 q 602 75 563 26 q 653 203 642 124 m 540 943 q 231 1050 383 1013 q 238 1062 221 1051 q 278 1081 256 1072 q 307 1086 301 1089 q 424 1019 363 1054 q 546 957 486 985 q 549 951 549 956 q 546 944 549 947 q 540 943 543 942 z "},"Ẻ":{"ha":740,"x_min":58,"x_max":669,"o":"m 653 203 q 661 206 653 207 q 669 201 669 206 q 657 21 657 114 q 652 5 657 10 q 635 0 647 0 l 61 0 q 58 8 58 0 q 61 17 58 17 q 141 24 115 17 q 176 51 167 31 q 185 113 185 71 l 185 756 q 176 817 185 797 q 141 844 167 836 q 61 851 115 851 q 58 860 58 851 q 61 868 58 868 l 611 868 q 624 856 624 868 l 626 688 q 619 683 626 683 q 611 688 611 683 q 574 800 611 758 q 475 842 536 842 l 379 842 q 301 835 326 842 q 267 808 276 828 q 258 747 258 789 l 258 465 l 442 465 q 531 487 506 465 q 556 561 556 508 q 564 564 556 564 q 572 561 572 564 l 571 451 q 572 392 571 411 l 574 326 q 565 324 574 324 q 557 326 557 324 q 531 414 557 389 q 438 439 504 439 l 258 439 l 258 118 q 267 59 258 78 q 301 33 276 40 q 379 26 325 26 l 507 26 q 602 75 563 26 q 653 203 642 124 m 407 904 q 401 901 408 901 q 392 904 393 901 q 388 933 388 921 q 396 971 388 954 q 419 1013 404 988 q 442 1049 435 1033 q 449 1081 449 1064 q 430 1122 449 1107 q 385 1138 411 1138 q 349 1129 368 1138 l 347 1129 q 339 1134 343 1129 q 339 1140 335 1139 q 424 1167 382 1167 q 487 1146 464 1167 q 510 1094 510 1125 q 497 1051 510 1069 q 456 1003 485 1033 q 417 960 431 979 q 404 921 404 942 q 407 904 404 915 z "},"Ē":{"ha":740,"x_min":58,"x_max":669,"o":"m 653 203 q 661 206 653 207 q 669 201 669 206 q 657 21 657 114 q 652 5 657 10 q 635 0 647 0 l 61 0 q 58 8 58 0 q 61 17 58 17 q 141 24 115 17 q 176 51 167 31 q 185 113 185 71 l 185 756 q 176 817 185 797 q 141 844 167 836 q 61 851 115 851 q 58 860 58 851 q 61 868 58 868 l 611 868 q 624 856 624 868 l 626 688 q 619 683 626 683 q 611 688 611 683 q 574 800 611 758 q 475 842 536 842 l 379 842 q 301 835 326 842 q 267 808 276 828 q 258 747 258 789 l 258 465 l 442 465 q 531 487 506 465 q 556 561 556 508 q 564 564 556 564 q 572 561 572 564 l 571 451 q 572 392 571 411 l 574 326 q 565 324 574 324 q 557 326 557 324 q 531 414 557 389 q 438 439 504 439 l 258 439 l 258 118 q 267 59 258 78 q 301 33 276 40 q 379 26 325 26 l 507 26 q 602 75 563 26 q 653 203 642 124 m 228 1006 q 223 1011 225 1006 q 221 1024 221 1017 q 228 1042 221 1042 l 576 1042 q 583 1024 583 1042 q 576 1006 583 1006 l 228 1006 z "},"Ę":{"ha":740,"x_min":58,"x_max":701,"o":"m 690 -308 q 698 -312 694 -308 q 697 -319 701 -317 q 549 -382 626 -382 q 434 -347 474 -382 q 394 -249 394 -311 q 550 0 394 -126 l 61 0 q 58 8 58 0 q 61 17 58 17 q 141 24 115 17 q 176 51 167 31 q 185 113 185 71 l 185 756 q 176 817 185 797 q 141 844 167 836 q 61 851 115 851 q 58 860 58 851 q 61 868 58 868 l 611 868 q 624 856 624 868 l 626 688 q 619 683 626 683 q 611 688 611 683 q 574 800 611 758 q 475 842 536 842 l 379 842 q 301 835 326 842 q 267 808 276 828 q 258 747 258 789 l 258 465 l 442 465 q 531 487 506 465 q 556 561 556 508 q 564 564 556 564 q 572 561 572 564 l 571 451 q 572 392 571 411 l 574 326 q 565 324 574 324 q 557 326 557 324 q 531 414 557 389 q 438 439 504 439 l 258 439 l 258 118 q 267 59 258 78 q 301 33 276 40 q 379 26 325 26 l 507 26 q 602 75 563 26 q 653 203 642 124 q 661 206 653 207 q 669 201 669 206 q 657 21 657 114 q 652 5 657 10 q 635 0 647 0 l 574 0 q 488 -102 514 -53 q 461 -208 461 -151 q 494 -308 461 -272 q 589 -344 526 -344 q 644 -335 622 -344 q 688 -308 665 -326 l 690 -308 z "},"Ẽ":{"ha":740,"x_min":58,"x_max":669,"o":"m 653 203 q 661 206 653 207 q 669 201 669 206 q 657 21 657 114 q 652 5 657 10 q 635 0 647 0 l 61 0 q 58 8 58 0 q 61 17 58 17 q 141 24 115 17 q 176 51 167 31 q 185 113 185 71 l 185 756 q 176 817 185 797 q 141 844 167 836 q 61 851 115 851 q 58 860 58 851 q 61 868 58 868 l 611 868 q 624 856 624 868 l 626 688 q 619 683 626 683 q 611 688 611 683 q 574 800 611 758 q 475 842 536 842 l 379 842 q 301 835 326 842 q 267 808 276 828 q 258 747 258 789 l 258 465 l 442 465 q 531 487 506 465 q 556 561 556 508 q 564 564 556 564 q 572 561 572 564 l 571 451 q 572 392 571 411 l 574 326 q 565 324 574 324 q 557 326 557 324 q 531 414 557 389 q 438 439 504 439 l 258 439 l 258 118 q 267 59 258 78 q 301 33 276 40 q 379 26 325 26 l 507 26 q 602 75 563 26 q 653 203 642 124 m 510 1024 q 548 1033 533 1024 q 578 1061 563 1043 l 581 1061 q 588 1058 585 1061 q 588 1051 590 1054 q 528 988 551 1004 q 479 972 504 972 q 436 977 458 972 q 392 989 414 982 q 296 1006 333 1006 q 262 998 274 1006 q 241 981 250 990 q 228 968 232 972 l 226 968 q 219 972 222 968 q 218 978 215 975 q 272 1033 240 1008 q 335 1058 303 1058 q 407 1043 358 1058 q 510 1024 468 1024 z "},"F":{"ha":703,"x_min":58,"x_max":626,"o":"m 626 688 q 619 683 626 683 q 611 688 611 683 q 574 800 611 758 q 475 842 536 842 l 379 842 q 303 835 328 842 q 268 810 278 828 q 258 754 258 792 l 258 449 l 410 449 q 510 470 481 449 q 539 544 539 492 q 547 547 539 547 q 556 544 556 547 l 554 435 q 556 375 554 394 l 557 310 q 549 307 557 307 q 540 310 540 307 q 510 397 540 372 q 404 422 481 422 l 258 422 l 258 118 q 271 53 258 74 q 319 25 283 33 q 432 17 354 17 q 436 8 436 17 q 432 0 436 0 q 343 1 375 0 l 222 3 l 131 1 q 61 0 106 0 q 58 8 58 0 q 61 17 58 17 q 141 24 115 17 q 176 51 167 31 q 185 113 185 71 l 185 756 q 176 817 185 797 q 141 844 167 836 q 61 851 115 851 q 58 860 58 851 q 61 868 58 868 l 611 868 q 624 856 624 868 l 626 688 z "},"G":{"ha":990,"x_min":68,"x_max":938,"o":"m 561 -17 q 298 42 410 -17 q 127 200 186 100 q 68 424 68 300 q 137 663 68 558 q 326 825 206 767 q 597 883 446 883 q 726 869 665 883 q 826 831 786 856 q 838 819 836 824 q 841 808 840 814 q 842 799 842 801 l 858 653 q 851 648 858 649 q 842 651 843 647 q 738 802 815 750 q 540 854 660 854 q 256 753 357 854 q 154 472 154 651 q 211 233 154 339 q 369 67 268 126 q 594 7 469 7 q 710 19 669 7 q 770 68 751 32 q 789 175 789 104 q 779 276 789 247 q 738 314 769 304 q 626 324 706 324 q 618 335 618 324 q 620 342 618 339 q 625 346 622 346 q 797 339 732 339 q 931 343 860 339 q 935 340 933 343 q 938 333 938 336 q 931 324 938 324 q 879 315 894 325 q 860 272 864 304 q 856 161 856 240 q 860 72 856 99 q 865 39 865 46 q 863 28 865 31 q 850 22 860 25 q 561 -17 688 -17 z "},"Ğ":{"ha":990,"x_min":68,"x_max":938,"o":"m 561 -17 q 298 42 410 -17 q 127 200 186 100 q 68 424 68 300 q 137 663 68 558 q 326 825 206 767 q 597 883 446 883 q 726 869 665 883 q 826 831 786 856 q 838 819 836 824 q 841 808 840 814 q 842 799 842 801 l 858 653 q 851 648 858 649 q 842 651 843 647 q 738 802 815 750 q 540 854 660 854 q 256 753 357 854 q 154 472 154 651 q 211 233 154 339 q 369 67 268 126 q 594 7 469 7 q 710 19 669 7 q 770 68 751 32 q 789 175 789 104 q 779 276 789 247 q 738 314 769 304 q 626 324 706 324 q 618 335 618 324 q 620 342 618 339 q 625 346 622 346 q 797 339 732 339 q 931 343 860 339 q 935 340 933 343 q 938 333 938 336 q 931 324 938 324 q 879 315 894 325 q 860 272 864 304 q 856 161 856 240 q 860 72 856 99 q 865 39 865 46 q 863 28 865 31 q 850 22 860 25 q 561 -17 688 -17 m 547 958 q 453 995 490 958 q 404 1100 417 1032 q 410 1106 403 1106 q 419 1104 417 1107 q 468 1034 431 1063 q 547 1006 506 1006 q 626 1035 589 1006 q 674 1104 663 1064 q 679 1107 674 1107 q 687 1105 683 1107 q 689 1100 690 1103 q 640 995 676 1032 q 547 958 604 958 z "},"Ǧ":{"ha":990,"x_min":68,"x_max":938,"o":"m 561 -17 q 298 42 410 -17 q 127 200 186 100 q 68 424 68 300 q 137 663 68 558 q 326 825 206 767 q 597 883 446 883 q 726 869 665 883 q 826 831 786 856 q 838 819 836 824 q 841 808 840 814 q 842 799 842 801 l 858 653 q 851 648 858 649 q 842 651 843 647 q 738 802 815 750 q 540 854 660 854 q 256 753 357 854 q 154 472 154 651 q 211 233 154 339 q 369 67 268 126 q 594 7 469 7 q 710 19 669 7 q 770 68 751 32 q 789 175 789 104 q 779 276 789 247 q 738 314 769 304 q 626 324 706 324 q 618 335 618 324 q 620 342 618 339 q 625 346 622 346 q 797 339 732 339 q 931 343 860 339 q 935 340 933 343 q 938 333 938 336 q 931 324 938 324 q 879 315 894 325 q 860 272 864 304 q 856 161 856 240 q 860 72 856 99 q 865 39 865 46 q 863 28 865 31 q 850 22 860 25 q 561 -17 688 -17 m 388 1082 q 386 1083 386 1082 q 386 1083 386 1083 q 390 1090 386 1086 q 396 1092 393 1093 l 547 1006 l 697 1092 l 699 1092 q 706 1088 703 1092 q 704 1082 708 1083 l 563 954 q 547 949 557 949 q 531 954 536 949 l 388 1082 z "},"Ĝ":{"ha":990,"x_min":68,"x_max":938,"o":"m 561 -17 q 298 42 410 -17 q 127 200 186 100 q 68 424 68 300 q 137 663 68 558 q 326 825 206 767 q 597 883 446 883 q 726 869 665 883 q 826 831 786 856 q 838 819 836 824 q 841 808 840 814 q 842 799 842 801 l 858 653 q 851 648 858 649 q 842 651 843 647 q 738 802 815 750 q 540 854 660 854 q 256 753 357 854 q 154 472 154 651 q 211 233 154 339 q 369 67 268 126 q 594 7 469 7 q 710 19 669 7 q 770 68 751 32 q 789 175 789 104 q 779 276 789 247 q 738 314 769 304 q 626 324 706 324 q 618 335 618 324 q 620 342 618 339 q 625 346 622 346 q 797 339 732 339 q 931 343 860 339 q 935 340 933 343 q 938 333 938 336 q 931 324 938 324 q 879 315 894 325 q 860 272 864 304 q 856 161 856 240 q 860 72 856 99 q 865 39 865 46 q 863 28 865 31 q 850 22 860 25 q 561 -17 688 -17 m 532 1088 q 549 1094 539 1094 q 564 1088 557 1094 l 706 958 q 707 956 707 958 q 703 950 707 953 q 699 949 700 947 l 549 1035 l 397 949 q 390 952 394 947 q 389 958 386 957 l 532 1088 z "},"Ģ":{"ha":990,"x_min":68,"x_max":938,"o":"m 561 -17 q 298 42 410 -17 q 127 200 186 100 q 68 424 68 300 q 137 663 68 558 q 326 825 206 767 q 597 883 446 883 q 726 869 665 883 q 826 831 786 856 q 838 819 836 824 q 841 808 840 814 q 842 799 842 801 l 858 653 q 851 648 858 649 q 842 651 843 647 q 738 802 815 750 q 540 854 660 854 q 256 753 357 854 q 154 472 154 651 q 211 233 154 339 q 369 67 268 126 q 594 7 469 7 q 710 19 669 7 q 770 68 751 32 q 789 175 789 104 q 779 276 789 247 q 738 314 769 304 q 626 324 706 324 q 618 335 618 324 q 620 342 618 339 q 625 346 622 346 q 797 339 732 339 q 931 343 860 339 q 935 340 933 343 q 938 333 938 336 q 931 324 938 324 q 879 315 894 325 q 860 272 864 304 q 856 161 856 240 q 860 72 856 99 q 865 39 865 46 q 863 28 865 31 q 850 22 860 25 q 561 -17 688 -17 m 571 -124 q 626 -149 607 -124 q 644 -222 644 -174 q 624 -305 644 -267 q 565 -382 604 -343 q 561 -383 564 -383 q 554 -378 557 -383 q 554 -372 551 -374 q 614 -240 614 -317 q 607 -201 614 -215 q 568 -221 599 -221 q 531 -208 544 -221 q 518 -172 518 -194 q 571 -124 518 -124 z "},"Ġ":{"ha":990,"x_min":68,"x_max":938,"o":"m 561 -17 q 298 42 410 -17 q 127 200 186 100 q 68 424 68 300 q 137 663 68 558 q 326 825 206 767 q 597 883 446 883 q 726 869 665 883 q 826 831 786 856 q 838 819 836 824 q 841 808 840 814 q 842 799 842 801 l 858 653 q 851 648 858 649 q 842 651 843 647 q 738 802 815 750 q 540 854 660 854 q 256 753 357 854 q 154 472 154 651 q 211 233 154 339 q 369 67 268 126 q 594 7 469 7 q 710 19 669 7 q 770 68 751 32 q 789 175 789 104 q 779 276 789 247 q 738 314 769 304 q 626 324 706 324 q 618 335 618 324 q 620 342 618 339 q 625 346 622 346 q 797 339 732 339 q 931 343 860 339 q 935 340 933 343 q 938 333 938 336 q 931 324 938 324 q 879 315 894 325 q 860 272 864 304 q 856 161 856 240 q 860 72 856 99 q 865 39 865 46 q 863 28 865 31 q 850 22 860 25 q 561 -17 688 -17 m 547 990 q 506 1004 521 990 q 492 1044 492 1018 q 506 1082 492 1068 q 547 1096 521 1096 q 586 1082 572 1096 q 600 1044 600 1068 q 586 1004 600 1018 q 547 990 572 990 z "},"Ḡ":{"ha":990,"x_min":68,"x_max":938,"o":"m 561 -17 q 298 42 410 -17 q 127 200 186 100 q 68 424 68 300 q 137 663 68 558 q 326 825 206 767 q 597 883 446 883 q 726 869 665 883 q 826 831 786 856 q 838 819 836 824 q 841 808 840 814 q 842 799 842 801 l 858 653 q 851 648 858 649 q 842 651 843 647 q 738 802 815 750 q 540 854 660 854 q 256 753 357 854 q 154 472 154 651 q 211 233 154 339 q 369 67 268 126 q 594 7 469 7 q 710 19 669 7 q 770 68 751 32 q 789 175 789 104 q 779 276 789 247 q 738 314 769 304 q 626 324 706 324 q 618 335 618 324 q 620 342 618 339 q 625 346 622 346 q 797 339 732 339 q 931 343 860 339 q 935 340 933 343 q 938 333 938 336 q 931 324 938 324 q 879 315 894 325 q 860 272 864 304 q 856 161 856 240 q 860 72 856 99 q 865 39 865 46 q 863 28 865 31 q 850 22 860 25 q 561 -17 688 -17 m 372 1006 q 365 1024 365 1006 q 372 1042 365 1042 l 721 1042 q 728 1024 728 1042 q 726 1011 728 1017 q 721 1006 724 1006 l 372 1006 z "},"H":{"ha":1053,"x_min":47,"x_max":1004,"o":"m 1000 17 q 1004 8 1004 17 q 1000 0 1004 0 q 933 1 957 0 l 840 3 l 744 1 q 679 0 721 0 q 675 8 675 0 q 679 17 675 17 q 760 24 735 17 q 794 50 785 31 q 803 113 803 69 l 803 439 l 249 439 l 249 113 q 258 50 249 69 q 292 24 267 31 q 372 17 317 17 q 375 8 375 17 q 372 0 375 0 q 306 1 331 0 l 211 3 l 119 1 q 50 0 94 0 q 47 8 47 0 q 50 17 47 17 q 130 24 104 17 q 165 51 156 31 q 175 113 175 71 l 175 756 q 166 817 175 797 q 131 844 157 836 q 51 851 106 851 q 49 860 49 851 q 51 868 49 868 l 119 867 q 211 864 178 864 q 307 867 249 864 l 372 868 q 375 860 375 868 q 372 851 375 851 q 292 843 318 851 q 258 815 267 835 q 249 753 249 794 l 249 465 l 803 465 l 803 753 q 794 815 803 794 q 759 843 785 835 q 679 851 733 851 q 675 860 675 851 q 679 868 675 868 l 744 867 q 840 864 803 864 q 933 867 875 864 l 1000 868 q 1004 860 1004 868 q 1000 851 1004 851 q 920 844 946 851 q 885 817 894 836 q 875 756 875 797 l 875 113 q 885 51 875 71 q 920 24 894 31 q 1000 17 946 17 z "},"Ħ":{"ha":1053,"x_min":47,"x_max":1004,"o":"m 1000 17 q 1004 8 1004 17 q 1000 0 1004 0 q 933 1 957 0 l 840 3 l 744 1 q 679 0 721 0 q 675 8 675 0 q 679 17 675 17 q 760 24 735 17 q 794 50 785 31 q 803 113 803 69 l 803 308 l 249 308 l 249 113 q 258 50 249 69 q 292 24 267 31 q 372 17 317 17 q 375 8 375 17 q 372 0 375 0 q 306 1 331 0 l 211 3 l 119 1 q 50 0 94 0 q 47 8 47 0 q 50 17 47 17 q 130 24 104 17 q 165 51 156 31 q 175 113 175 71 l 175 756 q 166 817 175 797 q 131 844 157 836 q 51 851 106 851 q 49 860 49 851 q 51 868 49 868 l 119 867 q 211 864 178 864 q 307 867 249 864 l 372 868 q 375 860 375 868 q 372 851 375 851 q 292 843 318 851 q 258 815 267 835 q 249 753 249 794 l 249 594 l 803 594 l 803 753 q 794 815 803 794 q 759 843 785 835 q 679 851 733 851 q 675 860 675 851 q 679 868 675 868 l 744 867 q 840 864 803 864 q 933 867 875 864 l 1000 868 q 1004 860 1004 868 q 1000 851 1004 851 q 920 844 946 851 q 885 817 894 836 q 875 756 875 797 l 875 113 q 885 51 875 71 q 920 24 894 31 q 1000 17 946 17 m 249 335 l 803 335 l 803 568 l 249 568 l 249 335 z "},"Ḫ":{"ha":1053,"x_min":47,"x_max":1004,"o":"m 1000 17 q 1004 8 1004 17 q 1000 0 1004 0 q 933 1 957 0 l 840 3 l 744 1 q 679 0 721 0 q 675 8 675 0 q 679 17 675 17 q 760 24 735 17 q 794 50 785 31 q 803 113 803 69 l 803 439 l 249 439 l 249 113 q 258 50 249 69 q 292 24 267 31 q 372 17 317 17 q 375 8 375 17 q 372 0 375 0 q 306 1 331 0 l 211 3 l 119 1 q 50 0 94 0 q 47 8 47 0 q 50 17 47 17 q 130 24 104 17 q 165 51 156 31 q 175 113 175 71 l 175 756 q 166 817 175 797 q 131 844 157 836 q 51 851 106 851 q 49 860 49 851 q 51 868 49 868 l 119 867 q 211 864 178 864 q 307 867 249 864 l 372 868 q 375 860 375 868 q 372 851 375 851 q 292 843 318 851 q 258 815 267 835 q 249 753 249 794 l 249 465 l 803 465 l 803 753 q 794 815 803 794 q 759 843 785 835 q 679 851 733 851 q 675 860 675 851 q 679 868 675 868 l 744 867 q 840 864 803 864 q 933 867 875 864 l 1000 868 q 1004 860 1004 868 q 1000 851 1004 851 q 920 844 946 851 q 885 817 894 836 q 875 756 875 797 l 875 113 q 885 51 875 71 q 920 24 894 31 q 1000 17 946 17 m 383 -110 q 391 -104 383 -106 q 399 -106 399 -103 q 435 -214 399 -171 q 526 -257 471 -257 q 616 -213 579 -257 q 653 -106 653 -169 q 657 -103 653 -103 q 665 -105 661 -103 q 668 -110 668 -107 q 632 -263 668 -211 q 526 -315 596 -315 q 420 -263 457 -315 q 383 -110 383 -211 z "},"Ĥ":{"ha":1053,"x_min":47,"x_max":1004,"o":"m 1000 17 q 1004 8 1004 17 q 1000 0 1004 0 q 933 1 957 0 l 840 3 l 744 1 q 679 0 721 0 q 675 8 675 0 q 679 17 675 17 q 760 24 735 17 q 794 50 785 31 q 803 113 803 69 l 803 439 l 249 439 l 249 113 q 258 50 249 69 q 292 24 267 31 q 372 17 317 17 q 375 8 375 17 q 372 0 375 0 q 306 1 331 0 l 211 3 l 119 1 q 50 0 94 0 q 47 8 47 0 q 50 17 47 17 q 130 24 104 17 q 165 51 156 31 q 175 113 175 71 l 175 756 q 166 817 175 797 q 131 844 157 836 q 51 851 106 851 q 49 860 49 851 q 51 868 49 868 l 119 867 q 211 864 178 864 q 307 867 249 864 l 372 868 q 375 860 375 868 q 372 851 375 851 q 292 843 318 851 q 258 815 267 835 q 249 753 249 794 l 249 465 l 803 465 l 803 753 q 794 815 803 794 q 759 843 785 835 q 679 851 733 851 q 675 860 675 851 q 679 868 675 868 l 744 867 q 840 864 803 864 q 933 867 875 864 l 1000 868 q 1004 860 1004 868 q 1000 851 1004 851 q 920 844 946 851 q 885 817 894 836 q 875 756 875 797 l 875 113 q 885 51 875 71 q 920 24 894 31 q 1000 17 946 17 m 511 1088 q 528 1094 518 1094 q 543 1088 536 1094 l 685 958 q 686 956 686 958 q 683 950 686 953 q 678 949 679 947 l 528 1035 l 376 949 q 369 952 374 947 q 368 958 365 957 l 511 1088 z "},"Ḥ":{"ha":1053,"x_min":47,"x_max":1004,"o":"m 1000 17 q 1004 8 1004 17 q 1000 0 1004 0 q 933 1 957 0 l 840 3 l 744 1 q 679 0 721 0 q 675 8 675 0 q 679 17 675 17 q 760 24 735 17 q 794 50 785 31 q 803 113 803 69 l 803 439 l 249 439 l 249 113 q 258 50 249 69 q 292 24 267 31 q 372 17 317 17 q 375 8 375 17 q 372 0 375 0 q 306 1 331 0 l 211 3 l 119 1 q 50 0 94 0 q 47 8 47 0 q 50 17 47 17 q 130 24 104 17 q 165 51 156 31 q 175 113 175 71 l 175 756 q 166 817 175 797 q 131 844 157 836 q 51 851 106 851 q 49 860 49 851 q 51 868 49 868 l 119 867 q 211 864 178 864 q 307 867 249 864 l 372 868 q 375 860 375 868 q 372 851 375 851 q 292 843 318 851 q 258 815 267 835 q 249 753 249 794 l 249 465 l 803 465 l 803 753 q 794 815 803 794 q 759 843 785 835 q 679 851 733 851 q 675 860 675 851 q 679 868 675 868 l 744 867 q 840 864 803 864 q 933 867 875 864 l 1000 868 q 1004 860 1004 868 q 1000 851 1004 851 q 920 844 946 851 q 885 817 894 836 q 875 756 875 797 l 875 113 q 885 51 875 71 q 920 24 894 31 q 1000 17 946 17 m 528 -258 q 487 -244 501 -258 q 472 -206 472 -231 q 487 -167 472 -181 q 528 -153 501 -153 q 567 -167 553 -153 q 581 -206 581 -181 q 567 -244 581 -231 q 528 -258 553 -258 z "},"I":{"ha":458,"x_min":63,"x_max":393,"o":"m 267 113 q 276 50 267 69 q 310 24 285 31 q 390 17 335 17 q 393 8 393 17 q 390 0 393 0 q 325 1 349 0 l 228 3 l 135 1 q 67 0 110 0 q 63 8 63 0 q 67 17 63 17 q 147 24 121 17 q 182 51 172 31 q 192 113 192 71 l 192 756 q 182 817 192 797 q 147 844 172 836 q 67 851 121 851 q 63 860 63 851 q 67 868 63 868 l 135 867 q 228 864 193 864 q 325 867 267 864 l 390 868 q 393 860 393 868 q 390 851 393 851 q 310 843 336 851 q 276 815 285 835 q 267 753 267 794 l 267 113 z "},"Ĳ":{"ha":956,"x_min":57,"x_max":910,"o":"m 260 486 q 269 424 260 443 q 303 397 278 404 q 383 390 328 390 q 388 382 388 390 q 383 374 388 374 q 318 375 342 374 l 221 376 l 129 375 q 60 374 104 374 q 57 382 57 374 q 60 390 57 390 q 140 397 114 390 q 175 424 165 404 q 185 486 185 444 l 185 756 q 175 817 185 797 q 140 844 165 836 q 60 851 114 851 q 57 860 57 851 q 60 868 57 868 l 129 867 q 221 864 185 864 q 319 867 261 864 l 383 868 q 388 860 388 868 q 383 851 388 851 q 303 843 329 851 q 269 815 278 835 q 260 753 260 794 l 260 486 m 907 868 q 910 860 910 868 q 907 851 910 851 q 837 843 860 851 q 806 815 814 835 q 799 753 799 794 l 799 358 q 758 154 799 239 q 644 26 717 69 q 475 -18 571 -18 q 321 14 390 -18 q 212 94 251 46 q 172 189 172 143 q 183 221 172 210 q 210 232 193 232 q 248 214 238 232 q 268 156 258 196 q 294 78 279 110 q 351 24 310 47 q 467 1 392 1 q 662 74 599 1 q 725 278 725 147 l 725 756 q 715 817 725 797 q 674 844 704 836 q 583 851 644 851 q 579 860 579 851 q 583 868 579 868 l 663 867 q 760 864 724 864 q 849 867 793 864 l 907 868 z "},"Í":{"ha":458,"x_min":63,"x_max":406,"o":"m 267 113 q 276 50 267 69 q 310 24 285 31 q 390 17 335 17 q 393 8 393 17 q 390 0 393 0 q 325 1 349 0 l 228 3 l 135 1 q 67 0 110 0 q 63 8 63 0 q 67 17 63 17 q 147 24 121 17 q 182 51 172 31 q 192 113 192 71 l 192 756 q 182 817 192 797 q 147 844 172 836 q 67 851 121 851 q 63 860 63 851 q 67 868 63 868 l 135 867 q 228 864 193 864 q 325 867 267 864 l 390 868 q 393 860 393 868 q 390 851 393 851 q 310 843 336 851 q 276 815 285 835 q 267 753 267 794 l 267 113 m 92 942 q 85 948 86 942 q 88 957 83 954 q 257 1047 151 986 l 326 1086 q 355 1081 332 1089 q 395 1062 378 1072 q 403 1050 413 1051 q 245 1003 317 1029 q 94 943 174 978 l 92 942 z "},"Ĭ":{"ha":458,"x_min":63,"x_max":393,"o":"m 267 113 q 276 50 267 69 q 310 24 285 31 q 390 17 335 17 q 393 8 393 17 q 390 0 393 0 q 325 1 349 0 l 228 3 l 135 1 q 67 0 110 0 q 63 8 63 0 q 67 17 63 17 q 147 24 121 17 q 182 51 172 31 q 192 113 192 71 l 192 756 q 182 817 192 797 q 147 844 172 836 q 67 851 121 851 q 63 860 63 851 q 67 868 63 868 l 135 867 q 228 864 193 864 q 325 867 267 864 l 390 868 q 393 860 393 868 q 390 851 393 851 q 310 843 336 851 q 276 815 285 835 q 267 753 267 794 l 267 113 m 229 958 q 135 995 172 958 q 86 1100 99 1032 q 92 1106 85 1106 q 101 1104 99 1107 q 150 1034 113 1063 q 229 1006 188 1006 q 308 1035 271 1006 q 356 1104 344 1064 q 361 1107 356 1107 q 369 1105 365 1107 q 371 1100 372 1103 q 322 995 358 1032 q 229 958 286 958 z "},"Ǐ":{"ha":458,"x_min":63,"x_max":393,"o":"m 267 113 q 276 50 267 69 q 310 24 285 31 q 390 17 335 17 q 393 8 393 17 q 390 0 393 0 q 325 1 349 0 l 228 3 l 135 1 q 67 0 110 0 q 63 8 63 0 q 67 17 63 17 q 147 24 121 17 q 182 51 172 31 q 192 113 192 71 l 192 756 q 182 817 192 797 q 147 844 172 836 q 67 851 121 851 q 63 860 63 851 q 67 868 63 868 l 135 867 q 228 864 193 864 q 325 867 267 864 l 390 868 q 393 860 393 868 q 390 851 393 851 q 310 843 336 851 q 276 815 285 835 q 267 753 267 794 l 267 113 m 69 1082 q 68 1083 68 1082 q 68 1083 68 1083 q 72 1090 68 1086 q 78 1092 75 1093 l 229 1006 l 379 1092 l 381 1092 q 388 1088 385 1092 q 386 1082 390 1083 l 244 954 q 229 949 239 949 q 213 954 218 949 l 69 1082 z "},"Î":{"ha":458,"x_min":63,"x_max":393,"o":"m 267 113 q 276 50 267 69 q 310 24 285 31 q 390 17 335 17 q 393 8 393 17 q 390 0 393 0 q 325 1 349 0 l 228 3 l 135 1 q 67 0 110 0 q 63 8 63 0 q 67 17 63 17 q 147 24 121 17 q 182 51 172 31 q 192 113 192 71 l 192 756 q 182 817 192 797 q 147 844 172 836 q 67 851 121 851 q 63 860 63 851 q 67 868 63 868 l 135 867 q 228 864 193 864 q 325 867 267 864 l 390 868 q 393 860 393 868 q 390 851 393 851 q 310 843 336 851 q 276 815 285 835 q 267 753 267 794 l 267 113 m 214 1088 q 231 1094 221 1094 q 246 1088 239 1094 l 388 958 q 389 956 389 958 q 385 950 389 953 q 381 949 382 947 l 231 1035 l 79 949 q 72 952 76 947 q 71 958 68 957 l 214 1088 z "},"Ï":{"ha":458,"x_min":63,"x_max":393,"o":"m 267 113 q 276 50 267 69 q 310 24 285 31 q 390 17 335 17 q 393 8 393 17 q 390 0 393 0 q 325 1 349 0 l 228 3 l 135 1 q 67 0 110 0 q 63 8 63 0 q 67 17 63 17 q 147 24 121 17 q 182 51 172 31 q 192 113 192 71 l 192 756 q 182 817 192 797 q 147 844 172 836 q 67 851 121 851 q 63 860 63 851 q 67 868 63 868 l 135 867 q 228 864 193 864 q 325 867 267 864 l 390 868 q 393 860 393 868 q 390 851 393 851 q 310 843 336 851 q 276 815 285 835 q 267 753 267 794 l 267 113 m 132 1000 q 92 1014 107 1000 q 76 1053 76 1028 q 92 1092 76 1078 q 132 1106 107 1106 q 172 1092 158 1106 q 186 1053 186 1078 q 172 1014 186 1028 q 132 1000 158 1000 m 328 1000 q 287 1014 301 1000 q 272 1053 272 1028 q 287 1092 272 1078 q 328 1106 301 1106 q 367 1092 353 1106 q 381 1053 381 1078 q 367 1014 381 1028 q 328 1000 353 1000 z "},"İ":{"ha":458,"x_min":63,"x_max":393,"o":"m 267 113 q 276 50 267 69 q 310 24 285 31 q 390 17 335 17 q 393 8 393 17 q 390 0 393 0 q 325 1 349 0 l 228 3 l 135 1 q 67 0 110 0 q 63 8 63 0 q 67 17 63 17 q 147 24 121 17 q 182 51 172 31 q 192 113 192 71 l 192 756 q 182 817 192 797 q 147 844 172 836 q 67 851 121 851 q 63 860 63 851 q 67 868 63 868 l 135 867 q 228 864 193 864 q 325 867 267 864 l 390 868 q 393 860 393 868 q 390 851 393 851 q 310 843 336 851 q 276 815 285 835 q 267 753 267 794 l 267 113 m 229 990 q 188 1004 203 990 q 174 1044 174 1018 q 188 1082 174 1068 q 229 1096 203 1096 q 268 1082 254 1096 q 282 1044 282 1068 q 268 1004 282 1018 q 229 990 254 990 z "},"Ị":{"ha":458,"x_min":63,"x_max":393,"o":"m 267 113 q 276 50 267 69 q 310 24 285 31 q 390 17 335 17 q 393 8 393 17 q 390 0 393 0 q 325 1 349 0 l 228 3 l 135 1 q 67 0 110 0 q 63 8 63 0 q 67 17 63 17 q 147 24 121 17 q 182 51 172 31 q 192 113 192 71 l 192 756 q 182 817 192 797 q 147 844 172 836 q 67 851 121 851 q 63 860 63 851 q 67 868 63 868 l 135 867 q 228 864 193 864 q 325 867 267 864 l 390 868 q 393 860 393 868 q 390 851 393 851 q 310 843 336 851 q 276 815 285 835 q 267 753 267 794 l 267 113 m 231 -258 q 190 -244 204 -258 q 175 -206 175 -231 q 190 -167 175 -181 q 231 -153 204 -153 q 269 -167 256 -153 q 283 -206 283 -181 q 269 -244 283 -231 q 231 -258 256 -258 z "},"Ì":{"ha":458,"x_min":54,"x_max":393,"o":"m 267 113 q 276 50 267 69 q 310 24 285 31 q 390 17 335 17 q 393 8 393 17 q 390 0 393 0 q 325 1 349 0 l 228 3 l 135 1 q 67 0 110 0 q 63 8 63 0 q 67 17 63 17 q 147 24 121 17 q 182 51 172 31 q 192 113 192 71 l 192 756 q 182 817 192 797 q 147 844 172 836 q 67 851 121 851 q 63 860 63 851 q 67 868 63 868 l 135 867 q 228 864 193 864 q 325 867 267 864 l 390 868 q 393 860 393 868 q 390 851 393 851 q 310 843 336 851 q 276 815 285 835 q 267 753 267 794 l 267 113 m 367 943 q 57 1050 210 1013 q 65 1062 47 1051 q 105 1081 82 1072 q 133 1086 128 1089 q 251 1019 189 1054 q 372 957 313 985 q 375 951 375 956 q 372 944 375 947 q 367 943 369 942 z "},"Ỉ":{"ha":458,"x_min":63,"x_max":393,"o":"m 267 113 q 276 50 267 69 q 310 24 285 31 q 390 17 335 17 q 393 8 393 17 q 390 0 393 0 q 325 1 349 0 l 228 3 l 135 1 q 67 0 110 0 q 63 8 63 0 q 67 17 63 17 q 147 24 121 17 q 182 51 172 31 q 192 113 192 71 l 192 756 q 182 817 192 797 q 147 844 172 836 q 67 851 121 851 q 63 860 63 851 q 67 868 63 868 l 135 867 q 228 864 193 864 q 325 867 267 864 l 390 868 q 393 860 393 868 q 390 851 393 851 q 310 843 336 851 q 276 815 285 835 q 267 753 267 794 l 267 113 m 233 904 q 227 901 235 901 q 218 904 219 901 q 214 933 214 921 q 222 971 214 954 q 246 1013 231 988 q 268 1049 261 1033 q 275 1081 275 1064 q 256 1122 275 1107 q 211 1138 238 1138 q 175 1129 194 1138 l 174 1129 q 165 1134 169 1129 q 165 1140 161 1139 q 250 1167 208 1167 q 313 1146 290 1167 q 336 1094 336 1125 q 324 1051 336 1069 q 282 1003 311 1033 q 244 960 257 979 q 231 921 231 942 q 233 904 231 915 z "},"Ī":{"ha":458,"x_min":47,"x_max":410,"o":"m 267 113 q 276 50 267 69 q 310 24 285 31 q 390 17 335 17 q 393 8 393 17 q 390 0 393 0 q 325 1 349 0 l 228 3 l 135 1 q 67 0 110 0 q 63 8 63 0 q 67 17 63 17 q 147 24 121 17 q 182 51 172 31 q 192 113 192 71 l 192 756 q 182 817 192 797 q 147 844 172 836 q 67 851 121 851 q 63 860 63 851 q 67 868 63 868 l 135 867 q 228 864 193 864 q 325 867 267 864 l 390 868 q 393 860 393 868 q 390 851 393 851 q 310 843 336 851 q 276 815 285 835 q 267 753 267 794 l 267 113 m 54 1006 q 49 1011 51 1006 q 47 1024 47 1017 q 54 1042 47 1042 l 403 1042 q 410 1024 410 1042 q 403 1006 410 1006 l 54 1006 z "},"Į":{"ha":458,"x_min":63,"x_max":393,"o":"m 390 17 q 393 8 393 17 q 390 0 393 0 q 329 1 351 0 l 243 3 q 164 -208 164 -94 q 194 -308 164 -272 q 279 -344 224 -344 q 319 -337 304 -344 q 345 -320 335 -329 q 360 -308 356 -311 l 361 -308 q 369 -312 365 -308 q 369 -319 372 -317 q 304 -367 335 -353 q 239 -382 274 -382 q 135 -346 172 -382 q 97 -249 97 -310 q 128 -124 97 -187 q 221 3 160 -60 l 132 1 q 67 0 108 0 q 63 8 63 0 q 67 17 63 17 q 147 24 121 17 q 182 51 172 31 q 192 113 192 71 l 192 756 q 182 817 192 797 q 147 844 172 836 q 67 851 121 851 q 63 860 63 851 q 67 868 63 868 l 135 867 q 228 864 193 864 q 325 867 267 864 l 390 868 q 393 860 393 868 q 390 851 393 851 q 310 843 336 851 q 276 815 285 835 q 267 753 267 794 l 267 113 q 276 50 267 69 q 310 24 285 31 q 390 17 335 17 z "},"Ĩ":{"ha":458,"x_min":43,"x_max":415,"o":"m 267 113 q 276 50 267 69 q 310 24 285 31 q 390 17 335 17 q 393 8 393 17 q 390 0 393 0 q 325 1 349 0 l 228 3 l 135 1 q 67 0 110 0 q 63 8 63 0 q 67 17 63 17 q 147 24 121 17 q 182 51 172 31 q 192 113 192 71 l 192 756 q 182 817 192 797 q 147 844 172 836 q 67 851 121 851 q 63 860 63 851 q 67 868 63 868 l 135 867 q 228 864 193 864 q 325 867 267 864 l 390 868 q 393 860 393 868 q 390 851 393 851 q 310 843 336 851 q 276 815 285 835 q 267 753 267 794 l 267 113 m 53 968 q 45 972 49 968 q 44 978 42 975 q 98 1033 67 1008 q 161 1058 129 1058 q 233 1043 185 1058 q 336 1024 294 1024 q 374 1033 360 1024 q 404 1061 389 1043 l 407 1061 q 414 1058 411 1061 q 414 1051 417 1054 q 354 988 378 1004 q 306 972 331 972 q 263 977 285 972 q 218 989 240 982 q 122 1006 160 1006 q 88 998 100 1006 q 67 981 76 990 q 54 968 58 972 l 53 968 z "},"J":{"ha":442,"x_min":-60,"x_max":385,"o":"m 382 868 q 385 860 385 868 q 382 851 385 851 q 313 843 335 851 q 283 815 290 835 q 275 753 275 794 l 275 -47 q 215 -260 275 -181 q 38 -339 154 -339 q -34 -324 -8 -339 q -60 -286 -60 -310 q -49 -257 -60 -268 q -19 -246 -39 -246 q 13 -254 1 -246 q 38 -279 24 -262 q 60 -304 49 -296 q 90 -312 71 -312 q 172 -252 144 -312 q 200 -60 200 -192 l 200 756 q 190 817 200 797 q 150 844 179 836 q 58 851 121 851 q 56 860 56 851 q 58 868 56 868 l 138 867 q 236 864 201 864 q 324 867 271 864 l 382 868 z "},"Ĵ":{"ha":442,"x_min":-60,"x_max":385,"o":"m 382 868 q 385 860 385 868 q 382 851 385 851 q 313 843 335 851 q 283 815 290 835 q 275 753 275 794 l 275 -47 q 215 -260 275 -181 q 38 -339 154 -339 q -34 -324 -8 -339 q -60 -286 -60 -310 q -49 -257 -60 -268 q -19 -246 -39 -246 q 13 -254 1 -246 q 38 -279 24 -262 q 60 -304 49 -296 q 90 -312 71 -312 q 172 -252 144 -312 q 200 -60 200 -192 l 200 756 q 190 817 200 797 q 150 844 179 836 q 58 851 121 851 q 56 860 56 851 q 58 868 56 868 l 138 867 q 236 864 201 864 q 324 867 271 864 l 382 868 m 207 1103 q 224 1110 214 1110 q 239 1103 232 1110 l 381 974 q 382 971 382 974 q 378 965 382 968 q 374 964 375 963 l 224 1050 l 72 964 q 65 967 69 963 q 64 974 61 972 l 207 1103 z "},"K":{"ha":901,"x_min":47,"x_max":886,"o":"m 882 17 q 886 8 886 17 q 882 0 886 0 l 726 0 q 668 6 678 0 q 617 69 658 11 q 518 201 576 128 l 297 475 l 249 428 l 249 113 q 258 50 249 69 q 292 24 267 31 q 372 17 317 17 q 375 8 375 17 q 372 0 375 0 q 306 1 331 0 l 211 3 l 119 1 q 50 0 94 0 q 47 8 47 0 q 50 17 47 17 q 130 24 104 17 q 165 51 156 31 q 175 113 175 71 l 175 756 q 166 817 175 797 q 131 844 157 836 q 51 851 106 851 q 49 860 49 851 q 51 868 49 868 l 119 867 q 211 864 178 864 q 307 867 249 864 l 372 868 q 375 860 375 868 q 372 851 375 851 q 292 843 318 851 q 258 815 267 835 q 249 753 249 794 l 249 460 l 554 764 q 601 829 601 811 q 583 847 601 842 q 521 851 564 851 q 518 860 518 851 q 521 868 518 868 l 579 867 q 678 864 632 864 q 768 867 721 864 l 817 868 q 821 860 821 868 q 817 851 821 851 q 699 830 760 851 q 586 756 639 808 l 350 525 l 549 275 q 710 89 654 143 q 794 26 765 35 q 882 17 824 17 z "},"Ḱ":{"ha":901,"x_min":47,"x_max":886,"o":"m 882 17 q 886 8 886 17 q 882 0 886 0 l 726 0 q 668 6 678 0 q 617 69 658 11 q 518 201 576 128 l 297 475 l 249 428 l 249 113 q 258 50 249 69 q 292 24 267 31 q 372 17 317 17 q 375 8 375 17 q 372 0 375 0 q 306 1 331 0 l 211 3 l 119 1 q 50 0 94 0 q 47 8 47 0 q 50 17 47 17 q 130 24 104 17 q 165 51 156 31 q 175 113 175 71 l 175 756 q 166 817 175 797 q 131 844 157 836 q 51 851 106 851 q 49 860 49 851 q 51 868 49 868 l 119 867 q 211 864 178 864 q 307 867 249 864 l 372 868 q 375 860 375 868 q 372 851 375 851 q 292 843 318 851 q 258 815 267 835 q 249 753 249 794 l 249 460 l 554 764 q 601 829 601 811 q 583 847 601 842 q 521 851 564 851 q 518 860 518 851 q 521 868 518 868 l 579 867 q 678 864 632 864 q 768 867 721 864 l 817 868 q 821 860 821 868 q 817 851 821 851 q 699 830 760 851 q 586 756 639 808 l 350 525 l 549 275 q 710 89 654 143 q 794 26 765 35 q 882 17 824 17 m 314 942 q 307 948 308 942 q 310 957 306 954 q 479 1047 374 986 l 549 1086 q 577 1081 554 1089 q 617 1062 600 1072 q 625 1050 635 1051 q 467 1003 539 1029 q 317 943 396 978 l 314 942 z "},"Ǩ":{"ha":901,"x_min":47,"x_max":886,"o":"m 882 17 q 886 8 886 17 q 882 0 886 0 l 726 0 q 668 6 678 0 q 617 69 658 11 q 518 201 576 128 l 297 475 l 249 428 l 249 113 q 258 50 249 69 q 292 24 267 31 q 372 17 317 17 q 375 8 375 17 q 372 0 375 0 q 306 1 331 0 l 211 3 l 119 1 q 50 0 94 0 q 47 8 47 0 q 50 17 47 17 q 130 24 104 17 q 165 51 156 31 q 175 113 175 71 l 175 756 q 166 817 175 797 q 131 844 157 836 q 51 851 106 851 q 49 860 49 851 q 51 868 49 868 l 119 867 q 211 864 178 864 q 307 867 249 864 l 372 868 q 375 860 375 868 q 372 851 375 851 q 292 843 318 851 q 258 815 267 835 q 249 753 249 794 l 249 460 l 554 764 q 601 829 601 811 q 583 847 601 842 q 521 851 564 851 q 518 860 518 851 q 521 868 518 868 l 579 867 q 678 864 632 864 q 768 867 721 864 l 817 868 q 821 860 821 868 q 817 851 821 851 q 699 830 760 851 q 586 756 639 808 l 350 525 l 549 275 q 710 89 654 143 q 794 26 765 35 q 882 17 824 17 m 292 1082 q 290 1083 290 1082 q 290 1083 290 1083 q 294 1090 290 1086 q 300 1092 297 1093 l 451 1006 l 601 1092 l 603 1092 q 610 1088 607 1092 q 608 1082 613 1083 l 467 954 q 451 949 461 949 q 435 954 440 949 l 292 1082 z "},"Ķ":{"ha":901,"x_min":47,"x_max":886,"o":"m 882 17 q 886 8 886 17 q 882 0 886 0 l 726 0 q 668 6 678 0 q 617 69 658 11 q 518 201 576 128 l 297 475 l 249 428 l 249 113 q 258 50 249 69 q 292 24 267 31 q 372 17 317 17 q 375 8 375 17 q 372 0 375 0 q 306 1 331 0 l 211 3 l 119 1 q 50 0 94 0 q 47 8 47 0 q 50 17 47 17 q 130 24 104 17 q 165 51 156 31 q 175 113 175 71 l 175 756 q 166 817 175 797 q 131 844 157 836 q 51 851 106 851 q 49 860 49 851 q 51 868 49 868 l 119 867 q 211 864 178 864 q 307 867 249 864 l 372 868 q 375 860 375 868 q 372 851 375 851 q 292 843 318 851 q 258 815 267 835 q 249 753 249 794 l 249 460 l 554 764 q 601 829 601 811 q 583 847 601 842 q 521 851 564 851 q 518 860 518 851 q 521 868 518 868 l 579 867 q 678 864 632 864 q 768 867 721 864 l 817 868 q 821 860 821 868 q 817 851 821 851 q 699 830 760 851 q 586 756 639 808 l 350 525 l 549 275 q 710 89 654 143 q 794 26 765 35 q 882 17 824 17 m 467 -124 q 522 -149 503 -124 q 540 -222 540 -174 q 520 -305 540 -267 q 461 -382 500 -343 q 457 -383 460 -383 q 450 -378 453 -383 q 450 -372 447 -374 q 510 -240 510 -317 q 503 -201 510 -215 q 464 -221 494 -221 q 427 -208 440 -221 q 414 -172 414 -194 q 467 -124 414 -124 z "},"L":{"ha":736,"x_min":47,"x_max":722,"o":"m 247 118 q 256 59 247 78 q 290 33 265 40 q 367 26 314 26 l 544 26 q 707 203 682 26 q 715 206 707 207 q 722 201 722 206 q 710 21 710 92 q 706 5 710 10 q 689 0 701 0 l 50 0 q 47 8 47 0 q 50 17 47 17 q 130 24 104 17 q 165 51 156 31 q 174 113 174 71 l 174 756 q 165 817 174 797 q 130 844 156 836 q 50 851 104 851 q 47 860 47 851 q 50 868 47 868 l 118 867 q 210 864 176 864 q 306 867 247 864 l 371 868 q 374 860 374 868 q 371 851 374 851 q 291 844 317 851 q 256 816 265 836 q 247 754 247 796 l 247 118 z "},"Ĺ":{"ha":736,"x_min":47,"x_max":722,"o":"m 247 118 q 256 59 247 78 q 290 33 265 40 q 367 26 314 26 l 544 26 q 707 203 682 26 q 715 206 707 207 q 722 201 722 206 q 710 21 710 92 q 706 5 710 10 q 689 0 701 0 l 50 0 q 47 8 47 0 q 50 17 47 17 q 130 24 104 17 q 165 51 156 31 q 174 113 174 71 l 174 756 q 165 817 174 797 q 130 844 156 836 q 50 851 104 851 q 47 860 47 851 q 50 868 47 868 l 118 867 q 210 864 176 864 q 306 867 247 864 l 371 868 q 374 860 374 868 q 371 851 374 851 q 291 844 317 851 q 256 816 265 836 q 247 754 247 796 l 247 118 m 81 942 q 74 948 75 942 q 76 957 72 954 q 246 1047 140 986 l 315 1086 q 344 1081 321 1089 q 384 1062 367 1072 q 392 1050 401 1051 q 234 1003 306 1029 q 83 943 163 978 l 81 942 z "},"Ľ":{"ha":736,"x_min":47,"x_max":722,"o":"m 247 118 q 256 59 247 78 q 290 33 265 40 q 367 26 314 26 l 544 26 q 707 203 682 26 q 715 206 707 207 q 722 201 722 206 q 710 21 710 92 q 706 5 710 10 q 689 0 701 0 l 50 0 q 47 8 47 0 q 50 17 47 17 q 130 24 104 17 q 165 51 156 31 q 174 113 174 71 l 174 756 q 165 817 174 797 q 130 844 156 836 q 50 851 104 851 q 47 860 47 851 q 50 868 47 868 l 118 867 q 210 864 176 864 q 306 867 247 864 l 371 868 q 374 860 374 868 q 371 851 374 851 q 291 844 317 851 q 256 816 265 836 q 247 754 247 796 l 247 118 m 490 868 q 506 867 490 875 q 536 847 521 860 q 551 829 551 835 l 517 489 q 509 487 517 486 q 501 490 501 488 l 490 868 z "},"Ļ":{"ha":736,"x_min":47,"x_max":722,"o":"m 247 118 q 256 59 247 78 q 290 33 265 40 q 367 26 314 26 l 544 26 q 707 203 682 26 q 715 206 707 207 q 722 201 722 206 q 710 21 710 92 q 706 5 710 10 q 689 0 701 0 l 50 0 q 47 8 47 0 q 50 17 47 17 q 130 24 104 17 q 165 51 156 31 q 174 113 174 71 l 174 756 q 165 817 174 797 q 130 844 156 836 q 50 851 104 851 q 47 860 47 851 q 50 868 47 868 l 118 867 q 210 864 176 864 q 306 867 247 864 l 371 868 q 374 860 374 868 q 371 851 374 851 q 291 844 317 851 q 256 816 265 836 q 247 754 247 796 l 247 118 m 404 -124 q 459 -149 440 -124 q 478 -222 478 -174 q 458 -305 478 -267 q 399 -382 438 -343 q 394 -383 397 -383 q 388 -378 390 -383 q 388 -372 385 -374 q 447 -240 447 -317 q 440 -201 447 -215 q 401 -221 432 -221 q 365 -208 378 -221 q 351 -172 351 -194 q 404 -124 351 -124 z "},"Ŀ":{"ha":736,"x_min":47,"x_max":722,"o":"m 247 118 q 256 59 247 78 q 290 33 265 40 q 367 26 314 26 l 544 26 q 707 203 682 26 q 715 206 707 207 q 722 201 722 206 q 710 21 710 92 q 706 5 710 10 q 689 0 701 0 l 50 0 q 47 8 47 0 q 50 17 47 17 q 130 24 104 17 q 165 51 156 31 q 174 113 174 71 l 174 756 q 165 817 174 797 q 130 844 156 836 q 50 851 104 851 q 47 860 47 851 q 50 868 47 868 l 118 867 q 210 864 176 864 q 306 867 247 864 l 371 868 q 374 860 374 868 q 371 851 374 851 q 291 844 317 851 q 256 816 265 836 q 247 754 247 796 l 247 118 m 596 394 q 556 409 571 394 q 540 449 540 424 q 556 486 540 472 q 596 500 571 500 q 636 486 622 500 q 650 449 650 472 q 636 409 650 424 q 596 394 622 394 z "},"Ḷ":{"ha":736,"x_min":47,"x_max":722,"o":"m 247 118 q 256 59 247 78 q 290 33 265 40 q 367 26 314 26 l 544 26 q 707 203 682 26 q 715 206 707 207 q 722 201 722 206 q 710 21 710 92 q 706 5 710 10 q 689 0 701 0 l 50 0 q 47 8 47 0 q 50 17 47 17 q 130 24 104 17 q 165 51 156 31 q 174 113 174 71 l 174 756 q 165 817 174 797 q 130 844 156 836 q 50 851 104 851 q 47 860 47 851 q 50 868 47 868 l 118 867 q 210 864 176 864 q 306 867 247 864 l 371 868 q 374 860 374 868 q 371 851 374 851 q 291 844 317 851 q 256 816 265 836 q 247 754 247 796 l 247 118 m 415 -258 q 374 -244 389 -258 q 360 -206 360 -231 q 374 -167 360 -181 q 415 -153 389 -153 q 454 -167 440 -153 q 468 -206 468 -181 q 454 -244 468 -231 q 415 -258 440 -258 z "},"Ḹ":{"ha":736,"x_min":36,"x_max":722,"o":"m 247 118 q 256 59 247 78 q 290 33 265 40 q 367 26 314 26 l 544 26 q 707 203 682 26 q 715 206 707 207 q 722 201 722 206 q 710 21 710 92 q 706 5 710 10 q 689 0 701 0 l 50 0 q 47 8 47 0 q 50 17 47 17 q 130 24 104 17 q 165 51 156 31 q 174 113 174 71 l 174 756 q 165 817 174 797 q 130 844 156 836 q 50 851 104 851 q 47 860 47 851 q 50 868 47 868 l 118 867 q 210 864 176 864 q 306 867 247 864 l 371 868 q 374 860 374 868 q 371 851 374 851 q 291 844 317 851 q 256 816 265 836 q 247 754 247 796 l 247 118 m 415 -258 q 374 -244 389 -258 q 360 -206 360 -231 q 374 -167 360 -181 q 415 -153 389 -153 q 454 -167 440 -153 q 468 -206 468 -181 q 454 -244 468 -231 q 415 -258 440 -258 m 43 1006 q 36 1024 36 1006 q 43 1042 36 1042 l 392 1042 q 399 1024 399 1042 q 397 1011 399 1017 q 392 1006 394 1006 l 43 1006 z "},"Ḻ":{"ha":736,"x_min":47,"x_max":722,"o":"m 247 118 q 256 59 247 78 q 290 33 265 40 q 367 26 314 26 l 544 26 q 707 203 682 26 q 715 206 707 207 q 722 201 722 206 q 710 21 710 92 q 706 5 710 10 q 689 0 701 0 l 50 0 q 47 8 47 0 q 50 17 47 17 q 130 24 104 17 q 165 51 156 31 q 174 113 174 71 l 174 756 q 165 817 174 797 q 130 844 156 836 q 50 851 104 851 q 47 860 47 851 q 50 868 47 868 l 118 867 q 210 864 176 864 q 306 867 247 864 l 371 868 q 374 860 374 868 q 371 851 374 851 q 291 844 317 851 q 256 816 265 836 q 247 754 247 796 l 247 118 m 239 -154 q 232 -136 232 -154 q 239 -118 232 -118 l 588 -118 q 592 -124 590 -118 q 594 -136 594 -129 q 588 -154 594 -154 l 239 -154 z "},"Ł":{"ha":719,"x_min":47,"x_max":722,"o":"m 707 203 q 715 206 707 207 q 722 201 722 206 q 710 21 710 92 q 706 5 710 10 q 689 0 701 0 l 50 0 q 47 8 47 0 q 50 17 47 17 q 130 24 104 17 q 165 51 156 31 q 174 113 174 71 l 174 374 l 103 333 l 101 333 q 90 344 96 333 q 89 356 85 354 l 174 404 l 174 756 q 165 817 174 797 q 130 844 156 836 q 50 851 104 851 q 47 860 47 851 q 50 868 47 868 l 118 867 q 210 864 176 864 q 306 867 247 864 l 371 868 q 374 860 374 868 q 371 851 374 851 q 291 844 317 851 q 256 816 265 836 q 247 754 247 796 l 247 447 l 393 531 l 394 531 q 406 520 400 531 q 406 508 411 510 l 247 417 l 247 118 q 256 59 247 78 q 290 33 265 40 q 367 26 314 26 l 544 26 q 707 203 682 26 z "},"M":{"ha":1153,"x_min":56,"x_max":1125,"o":"m 1121 17 q 1125 8 1125 17 q 1121 0 1125 0 q 1053 1 1078 0 l 960 3 l 874 1 q 815 0 853 0 q 813 8 813 0 q 815 17 813 17 q 887 24 864 17 q 917 51 910 32 q 922 113 925 71 l 899 758 l 574 10 q 563 4 571 4 q 550 10 556 4 l 211 753 l 210 756 l 199 144 q 222 44 197 72 q 315 17 247 17 q 318 8 318 17 q 315 0 318 0 q 256 1 276 0 l 181 3 l 113 1 q 58 0 94 0 q 56 8 56 0 q 58 17 56 17 q 141 45 117 17 q 167 144 165 74 l 181 803 q 68 851 138 851 q 65 860 65 851 q 68 868 65 868 l 115 867 q 151 865 129 865 q 189 867 174 865 q 213 868 204 868 q 243 855 232 868 q 276 796 254 842 l 589 121 l 900 833 q 919 858 907 849 q 942 868 931 868 q 960 867 947 868 q 994 865 972 865 l 1057 867 q 1100 868 1071 868 q 1103 860 1103 868 q 1100 851 1103 851 q 998 833 1028 851 q 969 758 968 814 l 996 113 q 1006 50 997 69 q 1041 24 1015 31 q 1121 17 1067 17 z "},"Ṁ":{"ha":1153,"x_min":56,"x_max":1125,"o":"m 1121 17 q 1125 8 1125 17 q 1121 0 1125 0 q 1053 1 1078 0 l 960 3 l 874 1 q 815 0 853 0 q 813 8 813 0 q 815 17 813 17 q 887 24 864 17 q 917 51 910 32 q 922 113 925 71 l 899 758 l 574 10 q 563 4 571 4 q 550 10 556 4 l 211 753 l 210 756 l 199 144 q 222 44 197 72 q 315 17 247 17 q 318 8 318 17 q 315 0 318 0 q 256 1 276 0 l 181 3 l 113 1 q 58 0 94 0 q 56 8 56 0 q 58 17 56 17 q 141 45 117 17 q 167 144 165 74 l 181 803 q 68 851 138 851 q 65 860 65 851 q 68 868 65 868 l 115 867 q 151 865 129 865 q 189 867 174 865 q 213 868 204 868 q 243 855 232 868 q 276 796 254 842 l 589 121 l 900 833 q 919 858 907 849 q 942 868 931 868 q 960 867 947 868 q 994 865 972 865 l 1057 867 q 1100 868 1071 868 q 1103 860 1103 868 q 1100 851 1103 851 q 998 833 1028 851 q 969 758 968 814 l 996 113 q 1006 50 997 69 q 1041 24 1015 31 q 1121 17 1067 17 m 576 990 q 535 1004 550 990 q 521 1044 521 1018 q 535 1082 521 1068 q 576 1096 550 1096 q 615 1082 601 1096 q 629 1044 629 1068 q 615 1004 629 1018 q 576 990 601 990 z "},"Ṃ":{"ha":1153,"x_min":56,"x_max":1125,"o":"m 1121 17 q 1125 8 1125 17 q 1121 0 1125 0 q 1053 1 1078 0 l 960 3 l 874 1 q 815 0 853 0 q 813 8 813 0 q 815 17 813 17 q 887 24 864 17 q 917 51 910 32 q 922 113 925 71 l 899 758 l 574 10 q 563 4 571 4 q 550 10 556 4 l 211 753 l 210 756 l 199 144 q 222 44 197 72 q 315 17 247 17 q 318 8 318 17 q 315 0 318 0 q 256 1 276 0 l 181 3 l 113 1 q 58 0 94 0 q 56 8 56 0 q 58 17 56 17 q 141 45 117 17 q 167 144 165 74 l 181 803 q 68 851 138 851 q 65 860 65 851 q 68 868 65 868 l 115 867 q 151 865 129 865 q 189 867 174 865 q 213 868 204 868 q 243 855 232 868 q 276 796 254 842 l 589 121 l 900 833 q 919 858 907 849 q 942 868 931 868 q 960 867 947 868 q 994 865 972 865 l 1057 867 q 1100 868 1071 868 q 1103 860 1103 868 q 1100 851 1103 851 q 998 833 1028 851 q 969 758 968 814 l 996 113 q 1006 50 997 69 q 1041 24 1015 31 q 1121 17 1067 17 m 565 -258 q 524 -244 539 -258 q 510 -206 510 -231 q 524 -167 510 -181 q 565 -153 539 -153 q 604 -167 590 -153 q 618 -206 618 -181 q 604 -244 618 -231 q 565 -258 590 -258 z "},"N":{"ha":1007,"x_min":57,"x_max":975,"o":"m 971 868 q 975 860 975 868 q 971 851 975 851 q 887 822 911 851 q 863 722 863 793 l 863 -15 q 856 -19 863 -18 q 846 -18 849 -21 l 218 754 l 194 781 l 194 144 q 218 45 194 74 q 300 17 242 17 q 304 8 304 17 q 300 0 304 0 q 249 1 267 0 l 182 3 l 114 1 q 60 0 96 0 q 57 8 57 0 q 60 17 57 17 q 142 44 119 17 q 164 144 164 72 l 164 810 q 64 851 115 851 q 60 860 60 851 q 64 868 60 868 l 114 867 q 157 865 129 865 q 196 867 181 865 q 219 868 211 868 q 235 863 229 868 q 250 843 242 858 q 283 796 265 818 l 832 114 l 832 722 q 810 822 832 793 q 729 851 788 851 q 726 860 726 851 q 729 868 726 868 l 782 867 q 849 864 824 864 q 917 867 872 864 l 971 868 z "},"Ń":{"ha":1007,"x_min":57,"x_max":975,"o":"m 971 868 q 975 860 975 868 q 971 851 975 851 q 887 822 911 851 q 863 722 863 793 l 863 -15 q 856 -19 863 -18 q 846 -18 849 -21 l 218 754 l 194 781 l 194 144 q 218 45 194 74 q 300 17 242 17 q 304 8 304 17 q 300 0 304 0 q 249 1 267 0 l 182 3 l 114 1 q 60 0 96 0 q 57 8 57 0 q 60 17 57 17 q 142 44 119 17 q 164 144 164 72 l 164 810 q 64 851 115 851 q 60 860 60 851 q 64 868 60 868 l 114 867 q 157 865 129 865 q 196 867 181 865 q 219 868 211 868 q 235 863 229 868 q 250 843 242 858 q 283 796 265 818 l 832 114 l 832 722 q 810 822 832 793 q 729 851 788 851 q 726 860 726 851 q 729 868 726 868 l 782 867 q 849 864 824 864 q 917 867 872 864 l 971 868 m 382 942 q 375 948 376 942 q 378 957 374 954 q 547 1047 442 986 l 617 1086 q 645 1081 622 1089 q 685 1062 668 1072 q 693 1050 703 1051 q 535 1003 607 1029 q 385 943 464 978 l 382 942 z "},"Ň":{"ha":1007,"x_min":57,"x_max":975,"o":"m 971 868 q 975 860 975 868 q 971 851 975 851 q 887 822 911 851 q 863 722 863 793 l 863 -15 q 856 -19 863 -18 q 846 -18 849 -21 l 218 754 l 194 781 l 194 144 q 218 45 194 74 q 300 17 242 17 q 304 8 304 17 q 300 0 304 0 q 249 1 267 0 l 182 3 l 114 1 q 60 0 96 0 q 57 8 57 0 q 60 17 57 17 q 142 44 119 17 q 164 144 164 72 l 164 810 q 64 851 115 851 q 60 860 60 851 q 64 868 60 868 l 114 867 q 157 865 129 865 q 196 867 181 865 q 219 868 211 868 q 235 863 229 868 q 250 843 242 858 q 283 796 265 818 l 832 114 l 832 722 q 810 822 832 793 q 729 851 788 851 q 726 860 726 851 q 729 868 726 868 l 782 867 q 849 864 824 864 q 917 867 872 864 l 971 868 m 360 1082 q 358 1083 358 1082 q 358 1083 358 1083 q 362 1090 358 1086 q 368 1092 365 1093 l 519 1006 l 669 1092 l 671 1092 q 678 1088 675 1092 q 676 1082 681 1083 l 535 954 q 519 949 529 949 q 503 954 508 949 l 360 1082 z "},"Ņ":{"ha":1007,"x_min":57,"x_max":975,"o":"m 971 868 q 975 860 975 868 q 971 851 975 851 q 887 822 911 851 q 863 722 863 793 l 863 -15 q 856 -19 863 -18 q 846 -18 849 -21 l 218 754 l 194 781 l 194 144 q 218 45 194 74 q 300 17 242 17 q 304 8 304 17 q 300 0 304 0 q 249 1 267 0 l 182 3 l 114 1 q 60 0 96 0 q 57 8 57 0 q 60 17 57 17 q 142 44 119 17 q 164 144 164 72 l 164 810 q 64 851 115 851 q 60 860 60 851 q 64 868 60 868 l 114 867 q 157 865 129 865 q 196 867 181 865 q 219 868 211 868 q 235 863 229 868 q 250 843 242 858 q 283 796 265 818 l 832 114 l 832 722 q 810 822 832 793 q 729 851 788 851 q 726 860 726 851 q 729 868 726 868 l 782 867 q 849 864 824 864 q 917 867 872 864 l 971 868 m 510 -124 q 565 -149 546 -124 q 583 -222 583 -174 q 563 -305 583 -267 q 504 -382 543 -343 q 500 -383 503 -383 q 493 -378 496 -383 q 493 -372 490 -374 q 553 -240 553 -317 q 546 -201 553 -215 q 507 -221 538 -221 q 470 -208 483 -221 q 457 -172 457 -194 q 510 -124 457 -124 z "},"Ṅ":{"ha":1007,"x_min":57,"x_max":975,"o":"m 971 868 q 975 860 975 868 q 971 851 975 851 q 887 822 911 851 q 863 722 863 793 l 863 -15 q 856 -19 863 -18 q 846 -18 849 -21 l 218 754 l 194 781 l 194 144 q 218 45 194 74 q 300 17 242 17 q 304 8 304 17 q 300 0 304 0 q 249 1 267 0 l 182 3 l 114 1 q 60 0 96 0 q 57 8 57 0 q 60 17 57 17 q 142 44 119 17 q 164 144 164 72 l 164 810 q 64 851 115 851 q 60 860 60 851 q 64 868 60 868 l 114 867 q 157 865 129 865 q 196 867 181 865 q 219 868 211 868 q 235 863 229 868 q 250 843 242 858 q 283 796 265 818 l 832 114 l 832 722 q 810 822 832 793 q 729 851 788 851 q 726 860 726 851 q 729 868 726 868 l 782 867 q 849 864 824 864 q 917 867 872 864 l 971 868 m 519 990 q 478 1004 493 990 q 464 1044 464 1018 q 478 1082 464 1068 q 519 1096 493 1096 q 558 1082 544 1096 q 572 1044 572 1068 q 558 1004 572 1018 q 519 990 544 990 z "},"Ṇ":{"ha":1007,"x_min":57,"x_max":975,"o":"m 971 868 q 975 860 975 868 q 971 851 975 851 q 887 822 911 851 q 863 722 863 793 l 863 -15 q 856 -19 863 -18 q 846 -18 849 -21 l 218 754 l 194 781 l 194 144 q 218 45 194 74 q 300 17 242 17 q 304 8 304 17 q 300 0 304 0 q 249 1 267 0 l 182 3 l 114 1 q 60 0 96 0 q 57 8 57 0 q 60 17 57 17 q 142 44 119 17 q 164 144 164 72 l 164 810 q 64 851 115 851 q 60 860 60 851 q 64 868 60 868 l 114 867 q 157 865 129 865 q 196 867 181 865 q 219 868 211 868 q 235 863 229 868 q 250 843 242 858 q 283 796 265 818 l 832 114 l 832 722 q 810 822 832 793 q 729 851 788 851 q 726 860 726 851 q 729 868 726 868 l 782 867 q 849 864 824 864 q 917 867 872 864 l 971 868 m 521 -258 q 480 -244 494 -258 q 465 -206 465 -231 q 480 -167 465 -181 q 521 -153 494 -153 q 560 -167 546 -153 q 574 -206 574 -181 q 560 -244 574 -231 q 521 -258 546 -258 z "},"Ŋ":{"ha":1007,"x_min":57,"x_max":975,"o":"m 971 868 q 975 860 975 868 q 971 851 975 851 q 887 822 911 851 q 863 722 863 793 l 863 -15 q 818 -202 863 -139 q 688 -265 774 -265 q 612 -243 642 -265 q 582 -189 582 -221 q 592 -156 582 -168 q 619 -144 601 -144 q 647 -155 638 -144 q 665 -189 656 -165 q 686 -227 675 -214 q 722 -240 697 -240 q 805 -180 775 -240 q 835 -19 835 -119 l 835 -4 l 218 754 l 194 781 l 194 144 q 218 45 194 74 q 300 17 242 17 q 304 8 304 17 q 300 0 304 0 q 249 1 267 0 l 182 3 l 114 1 q 60 0 96 0 q 57 8 57 0 q 60 17 57 17 q 143 45 119 17 q 167 144 167 74 l 167 808 q 64 851 117 851 q 60 860 60 851 q 64 868 60 868 l 114 867 q 157 865 129 865 q 196 867 181 865 q 219 868 211 868 q 235 863 229 868 q 250 843 242 858 q 283 796 265 818 l 835 111 l 835 722 q 811 822 835 793 q 729 851 788 851 q 726 860 726 851 q 729 868 726 868 l 782 867 q 849 864 824 864 q 917 867 872 864 l 971 868 z "},"Ṉ":{"ha":1007,"x_min":57,"x_max":975,"o":"m 971 868 q 975 860 975 868 q 971 851 975 851 q 887 822 911 851 q 863 722 863 793 l 863 -15 q 856 -19 863 -18 q 846 -18 849 -21 l 218 754 l 194 781 l 194 144 q 218 45 194 74 q 300 17 242 17 q 304 8 304 17 q 300 0 304 0 q 249 1 267 0 l 182 3 l 114 1 q 60 0 96 0 q 57 8 57 0 q 60 17 57 17 q 142 44 119 17 q 164 144 164 72 l 164 810 q 64 851 115 851 q 60 860 60 851 q 64 868 60 868 l 114 867 q 157 865 129 865 q 196 867 181 865 q 219 868 211 868 q 235 863 229 868 q 250 843 242 858 q 283 796 265 818 l 832 114 l 832 722 q 810 822 832 793 q 729 851 788 851 q 726 860 726 851 q 729 868 726 868 l 782 867 q 849 864 824 864 q 917 867 872 864 l 971 868 m 344 -154 q 338 -136 338 -154 q 344 -118 338 -118 l 693 -118 q 698 -124 696 -118 q 700 -136 700 -129 q 693 -154 700 -154 l 344 -154 z "},"Ñ":{"ha":1007,"x_min":57,"x_max":975,"o":"m 971 868 q 975 860 975 868 q 971 851 975 851 q 887 822 911 851 q 863 722 863 793 l 863 -15 q 856 -19 863 -18 q 846 -18 849 -21 l 218 754 l 194 781 l 194 144 q 218 45 194 74 q 300 17 242 17 q 304 8 304 17 q 300 0 304 0 q 249 1 267 0 l 182 3 l 114 1 q 60 0 96 0 q 57 8 57 0 q 60 17 57 17 q 142 44 119 17 q 164 144 164 72 l 164 810 q 64 851 115 851 q 60 860 60 851 q 64 868 60 868 l 114 867 q 157 865 129 865 q 196 867 181 865 q 219 868 211 868 q 235 863 229 868 q 250 843 242 858 q 283 796 265 818 l 832 114 l 832 722 q 810 822 832 793 q 729 851 788 851 q 726 860 726 851 q 729 868 726 868 l 782 867 q 849 864 824 864 q 917 867 872 864 l 971 868 m 626 1024 q 665 1033 650 1024 q 694 1061 679 1043 l 697 1061 q 704 1058 701 1061 q 704 1051 707 1054 q 644 988 668 1004 q 596 972 621 972 q 553 977 575 972 q 508 989 531 982 q 413 1006 450 1006 q 378 998 390 1006 q 358 981 367 990 q 344 968 349 972 l 343 968 q 335 972 339 968 q 335 978 332 975 q 388 1033 357 1008 q 451 1058 419 1058 q 524 1043 475 1058 q 626 1024 585 1024 z "},"O":{"ha":1064,"x_min":68,"x_max":996,"o":"m 508 -17 q 278 44 379 -17 q 123 208 178 104 q 68 433 68 311 q 140 678 68 576 q 326 832 213 781 q 557 883 439 883 q 789 822 689 883 q 942 658 889 760 q 996 443 996 557 q 929 211 996 317 q 751 44 863 106 q 508 -17 639 -17 m 558 11 q 736 57 657 11 q 861 192 815 103 q 907 404 907 281 q 856 637 907 535 q 713 796 806 739 q 499 853 621 853 q 247 753 338 853 q 157 481 157 653 q 208 244 157 351 q 350 74 258 136 q 558 11 442 11 z "},"Ó":{"ha":1064,"x_min":68,"x_max":996,"o":"m 508 -17 q 278 44 379 -17 q 123 208 178 104 q 68 433 68 311 q 140 678 68 576 q 326 832 213 781 q 557 883 439 883 q 789 822 689 883 q 942 658 889 760 q 996 443 996 557 q 929 211 996 317 q 751 44 863 106 q 508 -17 639 -17 m 558 11 q 736 57 657 11 q 861 192 815 103 q 907 404 907 281 q 856 637 907 535 q 713 796 806 739 q 499 853 621 853 q 247 753 338 853 q 157 481 157 653 q 208 244 157 351 q 350 74 258 136 q 558 11 442 11 m 396 942 q 389 948 390 942 q 392 957 388 954 q 561 1047 456 986 l 631 1086 q 659 1081 636 1089 q 699 1062 682 1072 q 707 1050 717 1051 q 549 1003 621 1029 q 399 943 478 978 l 396 942 z "},"Ŏ":{"ha":1064,"x_min":68,"x_max":996,"o":"m 508 -17 q 278 44 379 -17 q 123 208 178 104 q 68 433 68 311 q 140 678 68 576 q 326 832 213 781 q 557 883 439 883 q 789 822 689 883 q 942 658 889 760 q 996 443 996 557 q 929 211 996 317 q 751 44 863 106 q 508 -17 639 -17 m 558 11 q 736 57 657 11 q 861 192 815 103 q 907 404 907 281 q 856 637 907 535 q 713 796 806 739 q 499 853 621 853 q 247 753 338 853 q 157 481 157 653 q 208 244 157 351 q 350 74 258 136 q 558 11 442 11 m 533 958 q 440 995 476 958 q 390 1100 403 1032 q 396 1106 389 1106 q 406 1104 403 1107 q 454 1034 417 1063 q 533 1006 492 1006 q 612 1035 575 1006 q 660 1104 649 1064 q 665 1107 660 1107 q 673 1105 669 1107 q 675 1100 676 1103 q 626 995 663 1032 q 533 958 590 958 z "},"Ǒ":{"ha":1064,"x_min":68,"x_max":996,"o":"m 508 -17 q 278 44 379 -17 q 123 208 178 104 q 68 433 68 311 q 140 678 68 576 q 326 832 213 781 q 557 883 439 883 q 789 822 689 883 q 942 658 889 760 q 996 443 996 557 q 929 211 996 317 q 751 44 863 106 q 508 -17 639 -17 m 558 11 q 736 57 657 11 q 861 192 815 103 q 907 404 907 281 q 856 637 907 535 q 713 796 806 739 q 499 853 621 853 q 247 753 338 853 q 157 481 157 653 q 208 244 157 351 q 350 74 258 136 q 558 11 442 11 m 374 1082 q 372 1083 372 1082 q 372 1083 372 1083 q 376 1090 372 1086 q 382 1092 379 1093 l 533 1006 l 683 1092 l 685 1092 q 692 1088 689 1092 q 690 1082 694 1083 l 549 954 q 533 949 543 949 q 517 954 522 949 l 374 1082 z "},"Ô":{"ha":1064,"x_min":68,"x_max":996,"o":"m 508 -17 q 278 44 379 -17 q 123 208 178 104 q 68 433 68 311 q 140 678 68 576 q 326 832 213 781 q 557 883 439 883 q 789 822 689 883 q 942 658 889 760 q 996 443 996 557 q 929 211 996 317 q 751 44 863 106 q 508 -17 639 -17 m 558 11 q 736 57 657 11 q 861 192 815 103 q 907 404 907 281 q 856 637 907 535 q 713 796 806 739 q 499 853 621 853 q 247 753 338 853 q 157 481 157 653 q 208 244 157 351 q 350 74 258 136 q 558 11 442 11 m 518 1088 q 535 1094 525 1094 q 550 1088 543 1094 l 692 958 q 693 956 693 958 q 690 950 693 953 q 685 949 686 947 l 535 1035 l 383 949 q 376 952 381 947 q 375 958 372 957 l 518 1088 z "},"Ố":{"ha":1064,"x_min":68,"x_max":996,"o":"m 508 -17 q 278 44 379 -17 q 123 208 178 104 q 68 433 68 311 q 140 678 68 576 q 326 832 213 781 q 557 883 439 883 q 789 822 689 883 q 942 658 889 760 q 996 443 996 557 q 929 211 996 317 q 751 44 863 106 q 508 -17 639 -17 m 558 11 q 736 57 657 11 q 861 192 815 103 q 907 404 907 281 q 856 637 907 535 q 713 796 806 739 q 499 853 621 853 q 247 753 338 853 q 157 481 157 653 q 208 244 157 351 q 350 74 258 136 q 558 11 442 11 m 517 1038 q 532 1044 524 1044 q 549 1038 542 1044 l 690 910 q 692 907 692 910 q 688 901 692 904 q 683 900 685 899 l 533 986 l 382 900 q 375 903 379 899 q 374 910 371 908 l 517 1038 m 625 997 q 621 996 624 996 q 615 1001 617 996 q 615 1008 613 1006 q 728 1140 669 1063 q 755 1136 732 1144 q 796 1117 778 1128 q 804 1104 814 1106 q 713 1058 754 1083 q 625 997 672 1033 z "},"Ộ":{"ha":1064,"x_min":68,"x_max":996,"o":"m 508 -17 q 278 44 379 -17 q 123 208 178 104 q 68 433 68 311 q 140 678 68 576 q 326 832 213 781 q 557 883 439 883 q 789 822 689 883 q 942 658 889 760 q 996 443 996 557 q 929 211 996 317 q 751 44 863 106 q 508 -17 639 -17 m 558 11 q 736 57 657 11 q 861 192 815 103 q 907 404 907 281 q 856 637 907 535 q 713 796 806 739 q 499 853 621 853 q 247 753 338 853 q 157 481 157 653 q 208 244 157 351 q 350 74 258 136 q 558 11 442 11 m 550 -258 q 509 -244 524 -258 q 494 -206 494 -231 q 509 -167 494 -181 q 550 -153 524 -153 q 589 -167 575 -153 q 603 -206 603 -181 q 589 -244 603 -231 q 550 -258 575 -258 m 517 1038 q 532 1044 524 1044 q 549 1038 542 1044 l 690 910 q 692 907 692 910 q 688 901 692 904 q 683 900 685 899 l 533 986 l 382 900 q 375 903 379 899 q 374 910 371 908 l 517 1038 z "},"Ồ":{"ha":1064,"x_min":68,"x_max":996,"o":"m 508 -17 q 278 44 379 -17 q 123 208 178 104 q 68 433 68 311 q 140 678 68 576 q 326 832 213 781 q 557 883 439 883 q 789 822 689 883 q 942 658 889 760 q 996 443 996 557 q 929 211 996 317 q 751 44 863 106 q 508 -17 639 -17 m 558 11 q 736 57 657 11 q 861 192 815 103 q 907 404 907 281 q 856 637 907 535 q 713 796 806 739 q 499 853 621 853 q 247 753 338 853 q 157 481 157 653 q 208 244 157 351 q 350 74 258 136 q 558 11 442 11 m 517 1038 q 532 1044 524 1044 q 549 1038 542 1044 l 690 910 q 692 907 692 910 q 688 901 692 904 q 683 900 685 899 l 533 986 l 382 900 q 375 903 379 899 q 374 910 371 908 l 517 1038 m 771 965 q 683 1026 724 1001 q 592 1072 642 1051 q 600 1085 582 1074 q 642 1104 618 1096 q 668 1108 665 1113 q 781 978 715 1044 l 783 972 q 779 966 783 968 q 771 965 775 964 z "},"Ổ":{"ha":1064,"x_min":68,"x_max":996,"o":"m 508 -17 q 278 44 379 -17 q 123 208 178 104 q 68 433 68 311 q 140 678 68 576 q 326 832 213 781 q 557 883 439 883 q 789 822 689 883 q 942 658 889 760 q 996 443 996 557 q 929 211 996 317 q 751 44 863 106 q 508 -17 639 -17 m 558 11 q 736 57 657 11 q 861 192 815 103 q 907 404 907 281 q 856 637 907 535 q 713 796 806 739 q 499 853 621 853 q 247 753 338 853 q 157 481 157 653 q 208 244 157 351 q 350 74 258 136 q 558 11 442 11 m 517 1038 q 532 1044 524 1044 q 549 1038 542 1044 l 690 910 q 692 907 692 910 q 688 901 692 904 q 683 900 685 899 l 533 986 l 382 900 q 375 903 379 899 q 374 910 371 908 l 517 1038 m 642 1003 q 639 1021 639 1010 q 660 1072 639 1042 q 676 1101 671 1089 q 682 1126 682 1113 q 667 1158 682 1147 q 633 1169 651 1169 q 599 1161 614 1169 l 597 1161 q 589 1166 593 1161 q 589 1172 585 1171 q 633 1192 610 1185 q 672 1199 656 1199 q 719 1181 701 1199 q 736 1140 736 1163 q 724 1105 736 1121 q 692 1068 713 1089 q 662 1033 671 1047 q 657 1003 653 1019 q 651 999 660 1000 q 642 1003 643 999 z "},"Ỗ":{"ha":1064,"x_min":68,"x_max":996,"o":"m 508 -17 q 278 44 379 -17 q 123 208 178 104 q 68 433 68 311 q 140 678 68 576 q 326 832 213 781 q 557 883 439 883 q 789 822 689 883 q 942 658 889 760 q 996 443 996 557 q 929 211 996 317 q 751 44 863 106 q 508 -17 639 -17 m 558 11 q 736 57 657 11 q 861 192 815 103 q 907 404 907 281 q 856 637 907 535 q 713 796 806 739 q 499 853 621 853 q 247 753 338 853 q 157 481 157 653 q 208 244 157 351 q 350 74 258 136 q 558 11 442 11 m 517 1038 q 532 1044 524 1044 q 549 1038 542 1044 l 690 910 q 692 907 692 910 q 688 901 692 904 q 683 900 685 899 l 533 986 l 382 900 q 375 903 379 899 q 374 910 371 908 l 517 1038 m 647 1111 q 685 1121 671 1111 q 715 1149 700 1131 l 717 1149 q 724 1145 721 1149 q 725 1139 728 1142 q 665 1075 689 1092 q 617 1058 642 1058 q 574 1063 596 1058 q 529 1075 551 1068 q 482 1088 507 1082 q 433 1093 457 1093 q 399 1085 411 1093 q 378 1069 388 1078 q 365 1056 369 1060 l 363 1056 q 356 1059 358 1056 q 356 1065 353 1063 q 409 1120 378 1096 q 472 1144 440 1144 q 516 1138 492 1144 q 544 1131 540 1132 q 647 1111 606 1111 z "},"Ö":{"ha":1064,"x_min":68,"x_max":996,"o":"m 508 -17 q 278 44 379 -17 q 123 208 178 104 q 68 433 68 311 q 140 678 68 576 q 326 832 213 781 q 557 883 439 883 q 789 822 689 883 q 942 658 889 760 q 996 443 996 557 q 929 211 996 317 q 751 44 863 106 q 508 -17 639 -17 m 558 11 q 736 57 657 11 q 861 192 815 103 q 907 404 907 281 q 856 637 907 535 q 713 796 806 739 q 499 853 621 853 q 247 753 338 853 q 157 481 157 653 q 208 244 157 351 q 350 74 258 136 q 558 11 442 11 m 413 1000 q 372 1014 386 1000 q 357 1053 357 1028 q 372 1092 357 1078 q 413 1106 386 1106 q 451 1092 438 1106 q 465 1053 465 1078 q 451 1014 465 1028 q 413 1000 438 1000 m 656 1000 q 615 1014 631 1000 q 600 1053 600 1028 q 615 1092 600 1078 q 656 1106 631 1106 q 696 1092 682 1106 q 710 1053 710 1078 q 696 1014 710 1028 q 656 1000 682 1000 z "},"Ọ":{"ha":1064,"x_min":68,"x_max":996,"o":"m 508 -17 q 278 44 379 -17 q 123 208 178 104 q 68 433 68 311 q 140 678 68 576 q 326 832 213 781 q 557 883 439 883 q 789 822 689 883 q 942 658 889 760 q 996 443 996 557 q 929 211 996 317 q 751 44 863 106 q 508 -17 639 -17 m 558 11 q 736 57 657 11 q 861 192 815 103 q 907 404 907 281 q 856 637 907 535 q 713 796 806 739 q 499 853 621 853 q 247 753 338 853 q 157 481 157 653 q 208 244 157 351 q 350 74 258 136 q 558 11 442 11 m 550 -258 q 509 -244 524 -258 q 494 -206 494 -231 q 509 -167 494 -181 q 550 -153 524 -153 q 589 -167 575 -153 q 603 -206 603 -181 q 589 -244 603 -231 q 550 -258 575 -258 z "},"Ò":{"ha":1064,"x_min":68,"x_max":996,"o":"m 508 -17 q 278 44 379 -17 q 123 208 178 104 q 68 433 68 311 q 140 678 68 576 q 326 832 213 781 q 557 883 439 883 q 789 822 689 883 q 942 658 889 760 q 996 443 996 557 q 929 211 996 317 q 751 44 863 106 q 508 -17 639 -17 m 558 11 q 736 57 657 11 q 861 192 815 103 q 907 404 907 281 q 856 637 907 535 q 713 796 806 739 q 499 853 621 853 q 247 753 338 853 q 157 481 157 653 q 208 244 157 351 q 350 74 258 136 q 558 11 442 11 m 671 943 q 361 1050 514 1013 q 369 1062 351 1051 q 409 1081 386 1072 q 438 1086 432 1089 q 555 1019 493 1054 q 676 957 617 985 q 679 951 679 956 q 676 944 679 947 q 671 943 674 942 z "},"Ỏ":{"ha":1064,"x_min":68,"x_max":996,"o":"m 508 -17 q 278 44 379 -17 q 123 208 178 104 q 68 433 68 311 q 140 678 68 576 q 326 832 213 781 q 557 883 439 883 q 789 822 689 883 q 942 658 889 760 q 996 443 996 557 q 929 211 996 317 q 751 44 863 106 q 508 -17 639 -17 m 558 11 q 736 57 657 11 q 861 192 815 103 q 907 404 907 281 q 856 637 907 535 q 713 796 806 739 q 499 853 621 853 q 247 753 338 853 q 157 481 157 653 q 208 244 157 351 q 350 74 258 136 q 558 11 442 11 m 538 904 q 531 901 539 901 q 522 904 524 901 q 518 933 518 921 q 526 971 518 954 q 550 1013 535 988 q 572 1049 565 1033 q 579 1081 579 1064 q 560 1122 579 1107 q 515 1138 542 1138 q 479 1129 499 1138 l 478 1129 q 469 1134 474 1129 q 469 1140 465 1139 q 554 1167 513 1167 q 617 1146 594 1167 q 640 1094 640 1125 q 628 1051 640 1069 q 586 1003 615 1033 q 548 960 561 979 q 535 921 535 942 q 538 904 535 915 z "},"Ơ":{"ha":1064,"x_min":68,"x_max":1014,"o":"m 1014 915 q 872 754 1014 822 q 964 611 932 692 q 996 443 996 531 q 929 211 996 317 q 751 44 863 106 q 508 -17 639 -17 q 278 44 379 -17 q 123 208 178 104 q 68 433 68 311 q 140 678 68 576 q 326 832 213 781 q 557 883 439 883 q 724 853 647 883 q 857 769 800 824 q 938 858 938 810 q 925 888 938 875 q 914 904 918 896 q 910 926 910 913 q 926 962 910 949 q 963 975 942 975 q 1001 957 988 975 q 1014 915 1014 939 m 558 11 q 736 57 657 11 q 861 192 815 103 q 907 404 907 281 q 856 637 907 535 q 713 796 806 739 q 499 853 621 853 q 247 753 338 853 q 157 481 157 653 q 208 244 157 351 q 350 74 258 136 q 558 11 442 11 z "},"Ớ":{"ha":1064,"x_min":68,"x_max":1014,"o":"m 1014 915 q 872 754 1014 822 q 964 611 932 692 q 996 443 996 531 q 929 211 996 317 q 751 44 863 106 q 508 -17 639 -17 q 278 44 379 -17 q 123 208 178 104 q 68 433 68 311 q 140 678 68 576 q 326 832 213 781 q 557 883 439 883 q 724 853 647 883 q 857 769 800 824 q 938 858 938 810 q 925 888 938 875 q 914 904 918 896 q 910 926 910 913 q 926 962 910 949 q 963 975 942 975 q 1001 957 988 975 q 1014 915 1014 939 m 558 11 q 736 57 657 11 q 861 192 815 103 q 907 404 907 281 q 856 637 907 535 q 713 796 806 739 q 499 853 621 853 q 247 753 338 853 q 157 481 157 653 q 208 244 157 351 q 350 74 258 136 q 558 11 442 11 m 397 942 q 390 948 392 942 q 392 957 388 954 q 550 1040 447 982 l 631 1085 q 659 1080 636 1088 q 699 1062 682 1072 q 707 1050 717 1051 q 399 942 543 1008 l 397 942 z "},"Ợ":{"ha":1064,"x_min":68,"x_max":1014,"o":"m 1014 915 q 872 754 1014 822 q 964 611 932 692 q 996 443 996 531 q 929 211 996 317 q 751 44 863 106 q 508 -17 639 -17 q 278 44 379 -17 q 123 208 178 104 q 68 433 68 311 q 140 678 68 576 q 326 832 213 781 q 557 883 439 883 q 724 853 647 883 q 857 769 800 824 q 938 858 938 810 q 925 888 938 875 q 914 904 918 896 q 910 926 910 913 q 926 962 910 949 q 963 975 942 975 q 1001 957 988 975 q 1014 915 1014 939 m 558 11 q 736 57 657 11 q 861 192 815 103 q 907 404 907 281 q 856 637 907 535 q 713 796 806 739 q 499 853 621 853 q 247 753 338 853 q 157 481 157 653 q 208 244 157 351 q 350 74 258 136 q 558 11 442 11 m 535 -258 q 494 -244 508 -258 q 479 -206 479 -231 q 494 -167 479 -181 q 535 -153 508 -153 q 574 -167 560 -153 q 588 -206 588 -181 q 574 -244 588 -231 q 535 -258 560 -258 z "},"Ờ":{"ha":1064,"x_min":68,"x_max":1014,"o":"m 1014 915 q 872 754 1014 822 q 964 611 932 692 q 996 443 996 531 q 929 211 996 317 q 751 44 863 106 q 508 -17 639 -17 q 278 44 379 -17 q 123 208 178 104 q 68 433 68 311 q 140 678 68 576 q 326 832 213 781 q 557 883 439 883 q 724 853 647 883 q 857 769 800 824 q 938 858 938 810 q 925 888 938 875 q 914 904 918 896 q 910 926 910 913 q 926 962 910 949 q 963 975 942 975 q 1001 957 988 975 q 1014 915 1014 939 m 558 11 q 736 57 657 11 q 861 192 815 103 q 907 404 907 281 q 856 637 907 535 q 713 796 806 739 q 499 853 621 853 q 247 753 338 853 q 157 481 157 653 q 208 244 157 351 q 350 74 258 136 q 558 11 442 11 m 671 943 q 361 1050 514 1013 q 369 1062 351 1051 q 409 1081 386 1072 q 438 1086 432 1089 q 555 1019 493 1054 q 676 957 617 985 q 679 951 679 956 q 676 944 679 947 q 671 943 674 942 z "},"Ở":{"ha":1064,"x_min":68,"x_max":1014,"o":"m 1014 915 q 872 754 1014 822 q 964 611 932 692 q 996 443 996 531 q 929 211 996 317 q 751 44 863 106 q 508 -17 639 -17 q 278 44 379 -17 q 123 208 178 104 q 68 433 68 311 q 140 678 68 576 q 326 832 213 781 q 557 883 439 883 q 724 853 647 883 q 857 769 800 824 q 938 858 938 810 q 925 888 938 875 q 914 904 918 896 q 910 926 910 913 q 926 962 910 949 q 963 975 942 975 q 1001 957 988 975 q 1014 915 1014 939 m 558 11 q 736 57 657 11 q 861 192 815 103 q 907 404 907 281 q 856 637 907 535 q 713 796 806 739 q 499 853 621 853 q 247 753 338 853 q 157 481 157 653 q 208 244 157 351 q 350 74 258 136 q 558 11 442 11 m 522 918 q 517 915 525 915 q 507 918 508 914 q 503 947 503 933 q 510 983 503 967 q 535 1025 518 1000 q 557 1061 550 1046 q 564 1093 564 1076 q 545 1135 564 1119 q 500 1150 526 1150 q 464 1142 483 1150 l 463 1142 q 454 1147 458 1142 q 454 1153 450 1151 q 539 1179 497 1179 q 602 1158 579 1179 q 625 1107 625 1138 q 612 1063 625 1082 q 571 1017 599 1044 q 533 974 546 993 q 519 935 519 956 q 522 918 519 929 z "},"Ỡ":{"ha":1064,"x_min":68,"x_max":1014,"o":"m 1014 915 q 872 754 1014 822 q 964 611 932 692 q 996 443 996 531 q 929 211 996 317 q 751 44 863 106 q 508 -17 639 -17 q 278 44 379 -17 q 123 208 178 104 q 68 433 68 311 q 140 678 68 576 q 326 832 213 781 q 557 883 439 883 q 724 853 647 883 q 857 769 800 824 q 938 858 938 810 q 925 888 938 875 q 914 904 918 896 q 910 926 910 913 q 926 962 910 949 q 963 975 942 975 q 1001 957 988 975 q 1014 915 1014 939 m 558 11 q 736 57 657 11 q 861 192 815 103 q 907 404 907 281 q 856 637 907 535 q 713 796 806 739 q 499 853 621 853 q 247 753 338 853 q 157 481 157 653 q 208 244 157 351 q 350 74 258 136 q 558 11 442 11 m 640 1057 q 678 1067 664 1057 q 708 1094 693 1076 l 710 1094 q 717 1091 714 1094 q 718 1085 721 1088 q 658 1021 682 1038 q 610 1004 635 1004 q 567 1009 589 1004 q 522 1021 544 1014 q 475 1033 500 1028 q 426 1039 450 1039 q 392 1031 404 1039 q 372 1015 381 1024 q 358 1001 363 1006 l 356 1001 q 349 1005 351 1001 q 349 1011 346 1008 q 402 1066 371 1042 q 465 1090 433 1090 q 509 1084 485 1090 q 538 1076 533 1078 q 640 1057 599 1057 z "},"Ő":{"ha":1064,"x_min":68,"x_max":996,"o":"m 508 -17 q 278 44 379 -17 q 123 208 178 104 q 68 433 68 311 q 140 678 68 576 q 326 832 213 781 q 557 883 439 883 q 789 822 689 883 q 942 658 889 760 q 996 443 996 557 q 929 211 996 317 q 751 44 863 106 q 508 -17 639 -17 m 558 11 q 736 57 657 11 q 861 192 815 103 q 907 404 907 281 q 856 637 907 535 q 713 796 806 739 q 499 853 621 853 q 247 753 338 853 q 157 481 157 653 q 208 244 157 351 q 350 74 258 136 q 558 11 442 11 m 388 942 q 382 948 383 942 q 383 957 381 954 q 508 1078 440 1008 q 537 1076 513 1082 q 580 1063 561 1071 q 589 1050 599 1054 q 390 943 496 1011 l 388 942 m 550 942 q 544 948 546 942 q 546 957 543 954 q 671 1078 603 1008 q 698 1076 675 1082 q 738 1063 721 1071 q 747 1050 756 1054 q 652 1004 696 1029 q 553 943 608 979 l 550 942 z "},"Ō":{"ha":1064,"x_min":68,"x_max":996,"o":"m 508 -17 q 278 44 379 -17 q 123 208 178 104 q 68 433 68 311 q 140 678 68 576 q 326 832 213 781 q 557 883 439 883 q 789 822 689 883 q 942 658 889 760 q 996 443 996 557 q 929 211 996 317 q 751 44 863 106 q 508 -17 639 -17 m 558 11 q 736 57 657 11 q 861 192 815 103 q 907 404 907 281 q 856 637 907 535 q 713 796 806 739 q 499 853 621 853 q 247 753 338 853 q 157 481 157 653 q 208 244 157 351 q 350 74 258 136 q 558 11 442 11 m 358 1006 q 353 1011 356 1006 q 351 1024 351 1017 q 358 1042 351 1042 l 707 1042 q 714 1024 714 1042 q 707 1006 714 1006 l 358 1006 z "},"Ǫ":{"ha":1064,"x_min":68,"x_max":996,"o":"m 608 -7 q 529 -106 554 -57 q 504 -208 504 -154 q 537 -308 504 -272 q 632 -344 569 -344 q 687 -335 665 -344 q 731 -308 708 -326 l 733 -308 q 741 -312 738 -308 q 740 -319 744 -317 q 592 -382 669 -382 q 477 -347 517 -382 q 438 -249 438 -311 q 578 -12 438 -132 q 508 -17 544 -17 q 278 44 379 -17 q 123 208 178 104 q 68 433 68 311 q 140 678 68 576 q 326 832 213 781 q 557 883 439 883 q 789 822 689 883 q 942 658 889 760 q 996 443 996 557 q 945 238 996 333 q 806 78 894 143 q 608 -7 717 14 m 157 481 q 208 244 157 351 q 350 74 258 136 q 558 11 442 11 q 736 57 657 11 q 861 192 815 103 q 907 404 907 281 q 856 637 907 535 q 713 796 806 739 q 499 853 621 853 q 247 753 338 853 q 157 481 157 653 z "},"Ø":{"ha":1064,"x_min":68,"x_max":996,"o":"m 865 761 q 962 615 928 699 q 996 443 996 532 q 929 211 996 317 q 751 44 863 106 q 508 -17 639 -17 q 344 13 419 -17 q 210 94 268 42 l 107 -10 q 104 -11 107 -11 q 93 -3 100 -11 q 89 10 86 6 l 192 114 q 100 258 132 175 q 68 433 68 340 q 140 678 68 576 q 326 832 213 781 q 557 883 439 883 q 717 856 643 883 q 847 779 790 829 l 940 874 l 943 875 q 957 868 950 875 q 960 858 964 861 l 865 761 m 157 481 q 181 314 157 393 q 249 172 204 235 l 796 726 q 666 820 742 788 q 499 853 590 853 q 247 753 338 853 q 157 481 157 653 m 558 11 q 736 57 657 11 q 861 192 815 103 q 907 404 907 281 q 882 571 907 494 q 811 707 857 647 l 265 151 q 394 48 319 85 q 558 11 469 11 z "},"Ǿ":{"ha":1064,"x_min":68,"x_max":996,"o":"m 865 761 q 962 615 928 699 q 996 443 996 532 q 929 211 996 317 q 751 44 863 106 q 508 -17 639 -17 q 344 13 419 -17 q 210 94 268 42 l 107 -10 q 104 -11 107 -11 q 93 -3 100 -11 q 89 10 86 6 l 192 114 q 100 258 132 175 q 68 433 68 340 q 140 678 68 576 q 326 832 213 781 q 557 883 439 883 q 717 856 643 883 q 847 779 790 829 l 940 874 l 943 875 q 957 868 950 875 q 960 858 964 861 l 865 761 m 157 481 q 181 314 157 393 q 249 172 204 235 l 796 726 q 666 820 742 788 q 499 853 590 853 q 247 753 338 853 q 157 481 157 653 m 558 11 q 736 57 657 11 q 861 192 815 103 q 907 404 907 281 q 882 571 907 494 q 811 707 857 647 l 265 151 q 394 48 319 85 q 558 11 469 11 m 396 942 q 389 948 390 942 q 392 957 388 954 q 561 1047 456 986 l 631 1086 q 659 1081 636 1089 q 699 1062 682 1072 q 707 1050 717 1051 q 549 1003 621 1029 q 399 943 478 978 l 396 942 z "},"Õ":{"ha":1064,"x_min":68,"x_max":996,"o":"m 508 -17 q 278 44 379 -17 q 123 208 178 104 q 68 433 68 311 q 140 678 68 576 q 326 832 213 781 q 557 883 439 883 q 789 822 689 883 q 942 658 889 760 q 996 443 996 557 q 929 211 996 317 q 751 44 863 106 q 508 -17 639 -17 m 558 11 q 736 57 657 11 q 861 192 815 103 q 907 404 907 281 q 856 637 907 535 q 713 796 806 739 q 499 853 621 853 q 247 753 338 853 q 157 481 157 653 q 208 244 157 351 q 350 74 258 136 q 558 11 442 11 m 640 1024 q 678 1033 664 1024 q 708 1061 693 1043 l 711 1061 q 718 1058 715 1061 q 718 1051 721 1054 q 658 988 682 1004 q 610 972 635 972 q 567 977 589 972 q 522 989 544 982 q 426 1006 464 1006 q 392 998 404 1006 q 372 981 381 990 q 358 968 363 972 l 357 968 q 349 972 353 968 q 349 978 346 975 q 402 1033 371 1008 q 465 1058 433 1058 q 538 1043 489 1058 q 640 1024 599 1024 z "},"Œ":{"ha":1264,"x_min":68,"x_max":1192,"o":"m 1176 201 q 1184 206 1176 206 q 1192 201 1192 206 q 1179 21 1179 92 q 1175 5 1179 10 q 1158 0 1171 0 l 753 0 q 653 -3 722 0 q 546 -6 581 -6 q 299 50 408 -6 q 129 203 190 106 q 68 418 68 300 q 132 656 68 553 q 305 815 196 758 q 543 871 414 871 q 633 869 600 871 l 744 868 l 1133 868 q 1147 856 1147 868 l 1150 688 q 1142 683 1150 683 q 1133 688 1133 683 q 1096 799 1133 757 q 997 842 1058 842 l 901 842 q 824 835 849 842 q 790 810 799 828 q 782 754 782 793 l 782 465 l 965 465 q 1054 487 1029 465 q 1079 561 1079 508 q 1087 564 1079 564 q 1094 561 1094 564 l 1093 451 q 1094 392 1093 411 l 1096 326 q 1088 324 1096 324 q 1081 326 1081 324 q 1054 414 1081 389 q 960 439 1028 439 l 782 439 l 782 118 q 790 59 782 78 q 824 33 799 40 q 901 26 849 26 l 1031 26 q 1125 75 1085 26 q 1176 201 1165 124 m 708 738 q 677 826 708 800 q 557 853 646 853 q 349 806 440 853 q 208 667 258 758 q 157 449 157 576 q 205 227 157 326 q 342 70 253 128 q 549 13 432 13 q 643 20 610 13 q 692 49 676 28 q 708 114 708 71 l 708 738 z "},"P":{"ha":750,"x_min":58,"x_max":690,"o":"m 258 118 q 271 53 258 74 q 319 25 283 33 q 432 17 354 17 q 436 8 436 17 q 432 0 436 0 q 343 1 375 0 l 222 3 l 131 1 q 61 0 106 0 q 58 8 58 0 q 61 17 58 17 q 141 24 115 17 q 176 51 167 31 q 185 113 185 71 l 185 756 q 176 817 185 797 q 141 844 167 836 q 61 851 115 851 q 58 860 58 851 q 61 868 58 868 l 129 867 q 221 864 188 864 q 297 868 254 864 q 415 872 406 872 q 614 816 538 872 q 690 644 690 760 q 644 488 690 551 q 528 394 599 425 q 383 364 458 364 q 315 371 342 364 q 311 378 311 371 q 313 386 311 382 q 318 389 315 390 q 368 383 340 383 q 535 443 467 383 q 604 617 604 503 q 575 744 604 690 q 495 826 546 797 q 383 854 444 854 q 303 849 326 854 q 269 823 279 843 q 258 753 258 803 l 258 118 z "},"Þ":{"ha":743,"x_min":58,"x_max":690,"o":"m 368 204 q 535 265 467 204 q 604 439 604 325 q 535 613 604 550 q 356 676 467 676 q 258 664 304 676 l 258 118 q 271 53 258 74 q 319 25 283 33 q 432 17 354 17 q 436 8 436 17 q 432 0 436 0 q 343 1 375 0 l 222 3 l 131 1 q 61 0 106 0 q 58 8 58 0 q 61 17 58 17 q 141 24 115 17 q 176 51 167 31 q 185 113 185 71 l 185 756 q 176 817 185 797 q 141 844 167 836 q 61 851 115 851 q 58 860 58 851 q 61 868 58 868 l 131 867 q 222 864 186 864 q 343 867 271 864 l 432 868 q 436 860 436 868 q 432 851 436 851 q 319 843 354 851 q 271 814 283 835 q 258 749 258 793 l 258 682 q 390 693 318 693 q 608 638 526 693 q 690 457 690 582 q 644 306 690 367 q 528 215 599 244 q 383 185 457 185 q 315 192 350 185 q 311 199 311 192 q 313 207 311 203 q 318 210 315 211 q 368 204 351 204 z "},"Q":{"ha":1064,"x_min":68,"x_max":1043,"o":"m 1036 -217 q 1041 -223 1039 -217 q 1040 -231 1043 -229 q 921 -247 967 -247 q 722 -186 826 -247 q 543 -15 618 -125 q 508 -17 532 -17 q 278 44 379 -17 q 123 208 178 104 q 68 433 68 311 q 140 678 68 576 q 326 832 213 781 q 557 883 439 883 q 789 822 689 883 q 942 658 889 760 q 996 443 996 557 q 949 247 996 339 q 822 91 903 156 q 639 0 740 26 q 797 -159 699 -97 q 985 -221 896 -221 q 1035 -217 1017 -221 l 1036 -217 m 157 481 q 208 244 157 351 q 350 74 258 136 q 558 11 442 11 q 736 57 657 11 q 861 192 815 103 q 907 404 907 281 q 856 637 907 535 q 713 796 806 739 q 499 853 621 853 q 247 753 338 853 q 157 481 157 653 z "},"R":{"ha":926,"x_min":58,"x_max":943,"o":"m 939 17 q 943 8 943 17 q 939 0 943 0 l 778 0 q 643 120 742 0 q 404 453 544 240 q 319 442 363 442 q 260 444 296 442 l 260 113 q 269 50 260 69 q 303 24 278 31 q 383 17 328 17 q 388 8 388 17 q 383 0 388 0 q 317 1 342 0 l 222 3 l 131 1 q 61 0 106 0 q 58 8 58 0 q 61 17 58 17 q 142 24 117 17 q 178 51 168 31 q 188 113 188 71 l 188 756 q 178 817 188 797 q 144 844 169 836 q 64 851 118 851 q 60 860 60 851 q 64 868 60 868 l 131 867 q 222 864 186 864 q 269 865 247 864 q 308 868 292 867 q 385 872 351 872 q 553 826 494 872 q 611 699 611 781 q 572 573 611 632 q 469 479 533 514 q 671 203 590 301 q 815 60 751 104 q 939 17 878 17 m 260 478 q 343 472 313 472 q 489 515 444 472 q 533 651 533 557 q 484 806 533 757 q 353 854 435 854 q 296 849 314 854 q 269 822 278 843 q 260 753 260 801 l 260 478 z "},"Ŕ":{"ha":926,"x_min":58,"x_max":943,"o":"m 939 17 q 943 8 943 17 q 939 0 943 0 l 778 0 q 643 120 742 0 q 404 453 544 240 q 319 442 363 442 q 260 444 296 442 l 260 113 q 269 50 260 69 q 303 24 278 31 q 383 17 328 17 q 388 8 388 17 q 383 0 388 0 q 317 1 342 0 l 222 3 l 131 1 q 61 0 106 0 q 58 8 58 0 q 61 17 58 17 q 142 24 117 17 q 178 51 168 31 q 188 113 188 71 l 188 756 q 178 817 188 797 q 144 844 169 836 q 64 851 118 851 q 60 860 60 851 q 64 868 60 868 l 131 867 q 222 864 186 864 q 269 865 247 864 q 308 868 292 867 q 385 872 351 872 q 553 826 494 872 q 611 699 611 781 q 572 573 611 632 q 469 479 533 514 q 671 203 590 301 q 815 60 751 104 q 939 17 878 17 m 260 478 q 343 472 313 472 q 489 515 444 472 q 533 651 533 557 q 484 806 533 757 q 353 854 435 854 q 296 849 314 854 q 269 822 278 843 q 260 753 260 801 l 260 478 m 219 942 q 213 948 214 942 q 215 957 211 954 q 385 1047 279 986 l 454 1086 q 483 1081 460 1089 q 523 1062 506 1072 q 531 1050 540 1051 q 373 1003 444 1029 q 222 943 301 978 l 219 942 z "},"Ř":{"ha":926,"x_min":58,"x_max":943,"o":"m 939 17 q 943 8 943 17 q 939 0 943 0 l 778 0 q 643 120 742 0 q 404 453 544 240 q 319 442 363 442 q 260 444 296 442 l 260 113 q 269 50 260 69 q 303 24 278 31 q 383 17 328 17 q 388 8 388 17 q 383 0 388 0 q 317 1 342 0 l 222 3 l 131 1 q 61 0 106 0 q 58 8 58 0 q 61 17 58 17 q 142 24 117 17 q 178 51 168 31 q 188 113 188 71 l 188 756 q 178 817 188 797 q 144 844 169 836 q 64 851 118 851 q 60 860 60 851 q 64 868 60 868 l 131 867 q 222 864 186 864 q 269 865 247 864 q 308 868 292 867 q 385 872 351 872 q 553 826 494 872 q 611 699 611 781 q 572 573 611 632 q 469 479 533 514 q 671 203 590 301 q 815 60 751 104 q 939 17 878 17 m 260 478 q 343 472 313 472 q 489 515 444 472 q 533 651 533 557 q 484 806 533 757 q 353 854 435 854 q 296 849 314 854 q 269 822 278 843 q 260 753 260 801 l 260 478 m 197 1082 q 196 1083 196 1082 q 196 1083 196 1083 q 199 1090 196 1086 q 206 1092 203 1093 l 357 1006 l 507 1092 l 508 1092 q 515 1088 513 1092 q 514 1082 518 1083 l 372 954 q 357 949 367 949 q 340 954 346 949 l 197 1082 z "},"Ŗ":{"ha":926,"x_min":58,"x_max":943,"o":"m 939 17 q 943 8 943 17 q 939 0 943 0 l 778 0 q 643 120 742 0 q 404 453 544 240 q 319 442 363 442 q 260 444 296 442 l 260 113 q 269 50 260 69 q 303 24 278 31 q 383 17 328 17 q 388 8 388 17 q 383 0 388 0 q 317 1 342 0 l 222 3 l 131 1 q 61 0 106 0 q 58 8 58 0 q 61 17 58 17 q 142 24 117 17 q 178 51 168 31 q 188 113 188 71 l 188 756 q 178 817 188 797 q 144 844 169 836 q 64 851 118 851 q 60 860 60 851 q 64 868 60 868 l 131 867 q 222 864 186 864 q 269 865 247 864 q 308 868 292 867 q 385 872 351 872 q 553 826 494 872 q 611 699 611 781 q 572 573 611 632 q 469 479 533 514 q 671 203 590 301 q 815 60 751 104 q 939 17 878 17 m 260 478 q 343 472 313 472 q 489 515 444 472 q 533 651 533 557 q 484 806 533 757 q 353 854 435 854 q 296 849 314 854 q 269 822 278 843 q 260 753 260 801 l 260 478 m 463 -124 q 517 -149 499 -124 q 536 -222 536 -174 q 516 -305 536 -267 q 457 -382 496 -343 q 453 -383 456 -383 q 446 -378 449 -383 q 446 -372 443 -374 q 506 -240 506 -317 q 499 -201 506 -215 q 460 -221 490 -221 q 423 -208 436 -221 q 410 -172 410 -194 q 463 -124 410 -124 z "},"Ṛ":{"ha":926,"x_min":58,"x_max":943,"o":"m 939 17 q 943 8 943 17 q 939 0 943 0 l 778 0 q 643 120 742 0 q 404 453 544 240 q 319 442 363 442 q 260 444 296 442 l 260 113 q 269 50 260 69 q 303 24 278 31 q 383 17 328 17 q 388 8 388 17 q 383 0 388 0 q 317 1 342 0 l 222 3 l 131 1 q 61 0 106 0 q 58 8 58 0 q 61 17 58 17 q 142 24 117 17 q 178 51 168 31 q 188 113 188 71 l 188 756 q 178 817 188 797 q 144 844 169 836 q 64 851 118 851 q 60 860 60 851 q 64 868 60 868 l 131 867 q 222 864 186 864 q 269 865 247 864 q 308 868 292 867 q 385 872 351 872 q 553 826 494 872 q 611 699 611 781 q 572 573 611 632 q 469 479 533 514 q 671 203 590 301 q 815 60 751 104 q 939 17 878 17 m 260 478 q 343 472 313 472 q 489 515 444 472 q 533 651 533 557 q 484 806 533 757 q 353 854 435 854 q 296 849 314 854 q 269 822 278 843 q 260 753 260 801 l 260 478 m 474 -258 q 433 -244 447 -258 q 418 -206 418 -231 q 433 -167 418 -181 q 474 -153 447 -153 q 513 -167 499 -153 q 526 -206 526 -181 q 513 -244 526 -231 q 474 -258 499 -258 z "},"Ṝ":{"ha":926,"x_min":58,"x_max":943,"o":"m 939 17 q 943 8 943 17 q 939 0 943 0 l 778 0 q 643 120 742 0 q 404 453 544 240 q 319 442 363 442 q 260 444 296 442 l 260 113 q 269 50 260 69 q 303 24 278 31 q 383 17 328 17 q 388 8 388 17 q 383 0 388 0 q 317 1 342 0 l 222 3 l 131 1 q 61 0 106 0 q 58 8 58 0 q 61 17 58 17 q 142 24 117 17 q 178 51 168 31 q 188 113 188 71 l 188 756 q 178 817 188 797 q 144 844 169 836 q 64 851 118 851 q 60 860 60 851 q 64 868 60 868 l 131 867 q 222 864 186 864 q 269 865 247 864 q 308 868 292 867 q 385 872 351 872 q 553 826 494 872 q 611 699 611 781 q 572 573 611 632 q 469 479 533 514 q 671 203 590 301 q 815 60 751 104 q 939 17 878 17 m 260 478 q 343 472 313 472 q 489 515 444 472 q 533 651 533 557 q 484 806 533 757 q 353 854 435 854 q 296 849 314 854 q 269 822 278 843 q 260 753 260 801 l 260 478 m 474 -258 q 433 -244 447 -258 q 418 -206 418 -231 q 433 -167 418 -181 q 474 -153 447 -153 q 513 -167 499 -153 q 526 -206 526 -181 q 513 -244 526 -231 q 474 -258 499 -258 m 182 1006 q 175 1024 175 1006 q 182 1042 175 1042 l 531 1042 q 538 1024 538 1042 q 535 1011 538 1017 q 531 1006 533 1006 l 182 1006 z "},"Ṟ":{"ha":926,"x_min":58,"x_max":943,"o":"m 939 17 q 943 8 943 17 q 939 0 943 0 l 778 0 q 643 120 742 0 q 404 453 544 240 q 319 442 363 442 q 260 444 296 442 l 260 113 q 269 50 260 69 q 303 24 278 31 q 383 17 328 17 q 388 8 388 17 q 383 0 388 0 q 317 1 342 0 l 222 3 l 131 1 q 61 0 106 0 q 58 8 58 0 q 61 17 58 17 q 142 24 117 17 q 178 51 168 31 q 188 113 188 71 l 188 756 q 178 817 188 797 q 144 844 169 836 q 64 851 118 851 q 60 860 60 851 q 64 868 60 868 l 131 867 q 222 864 186 864 q 269 865 247 864 q 308 868 292 867 q 385 872 351 872 q 553 826 494 872 q 611 699 611 781 q 572 573 611 632 q 469 479 533 514 q 671 203 590 301 q 815 60 751 104 q 939 17 878 17 m 260 478 q 343 472 313 472 q 489 515 444 472 q 533 651 533 557 q 484 806 533 757 q 353 854 435 854 q 296 849 314 854 q 269 822 278 843 q 260 753 260 801 l 260 478 m 297 -154 q 290 -136 290 -154 q 297 -118 290 -118 l 646 -118 q 651 -124 649 -118 q 653 -136 653 -129 q 646 -154 653 -154 l 297 -154 z "},"S":{"ha":674,"x_min":93,"x_max":597,"o":"m 192 700 q 218 604 192 644 q 283 537 244 564 q 389 469 321 510 q 501 398 461 426 q 569 325 540 369 q 597 218 597 281 q 565 99 597 153 q 470 15 533 46 q 315 -17 407 -17 q 223 -6 267 -17 q 126 31 179 4 q 117 40 119 35 q 114 57 115 46 l 93 238 l 93 239 q 100 245 93 244 q 108 240 107 246 q 182 74 122 144 q 346 3 242 3 q 470 43 419 3 q 521 169 521 83 q 493 277 521 232 q 426 352 465 322 q 318 422 386 382 q 213 490 251 461 q 148 563 175 519 q 121 668 121 607 q 156 786 121 738 q 249 859 192 835 q 371 883 306 883 q 529 850 447 883 q 550 826 550 842 l 563 679 q 555 674 563 674 q 546 679 547 674 q 492 808 540 751 q 353 865 443 865 q 231 817 269 865 q 192 700 192 768 z "},"Ś":{"ha":674,"x_min":93,"x_max":597,"o":"m 192 700 q 218 604 192 644 q 283 537 244 564 q 389 469 321 510 q 501 398 461 426 q 569 325 540 369 q 597 218 597 281 q 565 99 597 153 q 470 15 533 46 q 315 -17 407 -17 q 223 -6 267 -17 q 126 31 179 4 q 117 40 119 35 q 114 57 115 46 l 93 238 l 93 239 q 100 245 93 244 q 108 240 107 246 q 182 74 122 144 q 346 3 242 3 q 470 43 419 3 q 521 169 521 83 q 493 277 521 232 q 426 352 465 322 q 318 422 386 382 q 213 490 251 461 q 148 563 175 519 q 121 668 121 607 q 156 786 121 738 q 249 859 192 835 q 371 883 306 883 q 529 850 447 883 q 550 826 550 842 l 563 679 q 555 674 563 674 q 546 679 547 674 q 492 808 540 751 q 353 865 443 865 q 231 817 269 865 q 192 700 192 768 m 211 942 q 204 948 206 942 q 207 957 203 954 q 376 1047 271 986 l 446 1086 q 474 1081 451 1089 q 515 1062 497 1072 q 522 1050 532 1051 q 365 1003 436 1029 q 214 943 293 978 l 211 942 z "},"Š":{"ha":674,"x_min":93,"x_max":597,"o":"m 192 700 q 218 604 192 644 q 283 537 244 564 q 389 469 321 510 q 501 398 461 426 q 569 325 540 369 q 597 218 597 281 q 565 99 597 153 q 470 15 533 46 q 315 -17 407 -17 q 223 -6 267 -17 q 126 31 179 4 q 117 40 119 35 q 114 57 115 46 l 93 238 l 93 239 q 100 245 93 244 q 108 240 107 246 q 182 74 122 144 q 346 3 242 3 q 470 43 419 3 q 521 169 521 83 q 493 277 521 232 q 426 352 465 322 q 318 422 386 382 q 213 490 251 461 q 148 563 175 519 q 121 668 121 607 q 156 786 121 738 q 249 859 192 835 q 371 883 306 883 q 529 850 447 883 q 550 826 550 842 l 563 679 q 555 674 563 674 q 546 679 547 674 q 492 808 540 751 q 353 865 443 865 q 231 817 269 865 q 192 700 192 768 m 189 1082 q 188 1083 188 1082 q 188 1083 188 1083 q 191 1090 188 1086 q 197 1092 194 1093 l 349 1006 l 499 1092 l 500 1092 q 507 1088 504 1092 q 506 1082 510 1083 l 364 954 q 349 949 358 949 q 332 954 338 949 l 189 1082 z "},"Ş":{"ha":674,"x_min":93,"x_max":597,"o":"m 597 218 q 535 60 597 125 q 357 -15 474 -4 q 344 -59 349 -40 q 339 -87 339 -78 q 348 -111 339 -103 q 374 -129 357 -119 q 401 -144 392 -139 q 456 -189 436 -164 q 476 -251 476 -214 q 441 -342 476 -301 q 339 -382 406 -382 q 278 -369 303 -382 q 253 -332 253 -356 q 264 -305 253 -315 q 292 -294 275 -294 q 313 -301 306 -294 q 328 -322 321 -308 q 349 -347 339 -339 q 379 -356 358 -356 q 431 -299 431 -356 q 405 -234 431 -262 q 311 -169 379 -206 q 294 -160 300 -164 q 289 -150 289 -156 q 297 -126 289 -143 q 339 -17 318 -76 l 315 -17 q 223 -6 267 -17 q 126 31 179 4 q 117 40 119 35 q 114 57 115 46 l 93 238 l 93 239 q 100 245 93 244 q 108 240 107 246 q 182 74 122 144 q 346 3 242 3 q 470 43 419 3 q 521 169 521 83 q 493 277 521 232 q 426 352 465 322 q 318 422 386 382 q 213 490 251 461 q 148 563 175 519 q 121 668 121 607 q 156 786 121 738 q 249 859 192 835 q 371 883 306 883 q 529 850 447 883 q 550 826 550 842 l 563 679 q 555 674 563 674 q 546 679 547 674 q 492 808 540 751 q 353 865 443 865 q 231 817 269 865 q 192 700 192 768 q 218 604 192 644 q 283 537 244 564 q 389 469 321 510 q 501 398 461 426 q 569 325 540 369 q 597 218 597 281 z "},"Ŝ":{"ha":674,"x_min":93,"x_max":597,"o":"m 192 700 q 218 604 192 644 q 283 537 244 564 q 389 469 321 510 q 501 398 461 426 q 569 325 540 369 q 597 218 597 281 q 565 99 597 153 q 470 15 533 46 q 315 -17 407 -17 q 223 -6 267 -17 q 126 31 179 4 q 117 40 119 35 q 114 57 115 46 l 93 238 l 93 239 q 100 245 93 244 q 108 240 107 246 q 182 74 122 144 q 346 3 242 3 q 470 43 419 3 q 521 169 521 83 q 493 277 521 232 q 426 352 465 322 q 318 422 386 382 q 213 490 251 461 q 148 563 175 519 q 121 668 121 607 q 156 786 121 738 q 249 859 192 835 q 371 883 306 883 q 529 850 447 883 q 550 826 550 842 l 563 679 q 555 674 563 674 q 546 679 547 674 q 492 808 540 751 q 353 865 443 865 q 231 817 269 865 q 192 700 192 768 m 333 1088 q 350 1094 340 1094 q 365 1088 358 1094 l 507 958 q 508 956 508 958 q 505 950 508 953 q 500 949 501 947 l 350 1035 l 199 949 q 192 952 196 947 q 190 958 188 957 l 333 1088 z "},"Ș":{"ha":674,"x_min":93,"x_max":597,"o":"m 192 700 q 218 604 192 644 q 283 537 244 564 q 389 469 321 510 q 501 398 461 426 q 569 325 540 369 q 597 218 597 281 q 565 99 597 153 q 470 15 533 46 q 315 -17 407 -17 q 223 -6 267 -17 q 126 31 179 4 q 117 40 119 35 q 114 57 115 46 l 93 238 l 93 239 q 100 245 93 244 q 108 240 107 246 q 182 74 122 144 q 346 3 242 3 q 470 43 419 3 q 521 169 521 83 q 493 277 521 232 q 426 352 465 322 q 318 422 386 382 q 213 490 251 461 q 148 563 175 519 q 121 668 121 607 q 156 786 121 738 q 249 859 192 835 q 371 883 306 883 q 529 850 447 883 q 550 826 550 842 l 563 679 q 555 674 563 674 q 546 679 547 674 q 492 808 540 751 q 353 865 443 865 q 231 817 269 865 q 192 700 192 768 m 356 -124 q 410 -149 392 -124 q 429 -222 429 -174 q 409 -305 429 -267 q 350 -382 389 -343 q 346 -383 349 -383 q 339 -378 342 -383 q 339 -372 336 -374 q 399 -240 399 -317 q 392 -201 399 -215 q 353 -221 383 -221 q 316 -208 329 -221 q 303 -172 303 -194 q 356 -124 303 -124 z "},"Ṡ":{"ha":674,"x_min":93,"x_max":597,"o":"m 192 700 q 218 604 192 644 q 283 537 244 564 q 389 469 321 510 q 501 398 461 426 q 569 325 540 369 q 597 218 597 281 q 565 99 597 153 q 470 15 533 46 q 315 -17 407 -17 q 223 -6 267 -17 q 126 31 179 4 q 117 40 119 35 q 114 57 115 46 l 93 238 l 93 239 q 100 245 93 244 q 108 240 107 246 q 182 74 122 144 q 346 3 242 3 q 470 43 419 3 q 521 169 521 83 q 493 277 521 232 q 426 352 465 322 q 318 422 386 382 q 213 490 251 461 q 148 563 175 519 q 121 668 121 607 q 156 786 121 738 q 249 859 192 835 q 371 883 306 883 q 529 850 447 883 q 550 826 550 842 l 563 679 q 555 674 563 674 q 546 679 547 674 q 492 808 540 751 q 353 865 443 865 q 231 817 269 865 q 192 700 192 768 m 349 990 q 308 1004 322 990 q 293 1044 293 1018 q 308 1082 293 1068 q 349 1096 322 1096 q 388 1082 374 1096 q 401 1044 401 1068 q 388 1004 401 1018 q 349 990 374 990 z "},"Ṣ":{"ha":674,"x_min":93,"x_max":597,"o":"m 192 700 q 218 604 192 644 q 283 537 244 564 q 389 469 321 510 q 501 398 461 426 q 569 325 540 369 q 597 218 597 281 q 565 99 597 153 q 470 15 533 46 q 315 -17 407 -17 q 223 -6 267 -17 q 126 31 179 4 q 117 40 119 35 q 114 57 115 46 l 93 238 l 93 239 q 100 245 93 244 q 108 240 107 246 q 182 74 122 144 q 346 3 242 3 q 470 43 419 3 q 521 169 521 83 q 493 277 521 232 q 426 352 465 322 q 318 422 386 382 q 213 490 251 461 q 148 563 175 519 q 121 668 121 607 q 156 786 121 738 q 249 859 192 835 q 371 883 306 883 q 529 850 447 883 q 550 826 550 842 l 563 679 q 555 674 563 674 q 546 679 547 674 q 492 808 540 751 q 353 865 443 865 q 231 817 269 865 q 192 700 192 768 m 367 -258 q 326 -244 340 -258 q 311 -206 311 -231 q 326 -167 311 -181 q 367 -153 340 -153 q 406 -167 392 -153 q 419 -206 419 -181 q 406 -244 419 -231 q 367 -258 392 -258 z "},"ẞ":{"ha":957,"x_min":32,"x_max":881,"o":"m 658 11 q 774 54 725 11 q 824 172 824 97 q 765 317 824 246 q 571 481 706 388 q 565 501 558 490 l 725 750 q 557 818 638 796 q 414 840 476 840 q 276 778 319 840 q 232 561 232 717 l 232 113 q 240 50 232 69 q 274 24 249 31 q 357 17 300 17 q 361 8 361 17 q 357 0 361 0 l 193 1 l 36 0 q 32 8 32 0 q 36 17 32 17 q 114 24 89 17 q 149 51 139 32 q 160 113 160 71 l 160 531 q 198 699 160 618 q 309 832 236 781 q 479 883 382 883 q 717 835 575 883 q 738 828 722 833 q 763 822 753 822 q 781 830 774 822 q 799 852 789 838 q 815 874 810 867 q 825 879 819 879 q 831 876 829 879 q 831 868 833 872 l 615 535 q 821 374 761 442 q 881 231 881 307 q 847 113 881 169 q 752 19 814 56 q 611 -17 690 -17 q 531 -6 568 -17 q 451 31 493 4 q 442 40 444 35 q 439 57 440 46 l 418 189 l 418 190 q 425 197 418 196 q 433 192 432 197 q 476 107 440 149 q 563 38 513 65 q 658 11 613 11 z "},"Ə":{"ha":889,"x_min":71,"x_max":813,"o":"m 399 883 q 642 821 550 883 q 774 660 735 758 q 813 450 813 563 q 754 200 813 306 q 597 39 696 94 q 376 -17 497 -17 q 205 22 274 -17 q 103 117 136 61 q 71 226 71 174 q 75 240 71 236 q 88 243 79 243 l 710 246 q 726 400 726 315 q 687 638 726 532 q 574 806 647 744 q 400 868 500 868 q 220 818 307 868 q 101 676 133 768 q 92 672 100 671 q 85 678 83 674 l 142 883 q 150 888 143 889 q 156 882 157 888 q 154 869 154 878 q 178 840 154 840 q 193 843 182 840 q 300 874 256 865 q 399 883 344 883 m 425 10 q 601 64 531 10 q 701 219 671 118 l 157 213 q 242 65 168 121 q 425 10 317 10 z "},"T":{"ha":878,"x_min":51,"x_max":828,"o":"m 250 844 q 122 803 163 844 q 68 654 82 761 q 60 651 68 651 q 51 654 51 651 q 64 774 57 692 q 71 899 71 857 q 79 906 71 906 q 88 899 88 906 q 161 868 88 868 q 440 864 281 864 q 614 867 522 864 l 708 868 q 782 875 758 868 q 813 903 806 882 q 821 908 814 908 q 828 903 828 908 q 819 784 824 864 q 815 654 815 704 q 807 651 815 651 q 799 654 799 651 q 783 768 799 728 q 732 826 768 808 q 631 844 696 844 q 529 840 558 844 q 490 817 500 835 q 479 753 479 799 l 479 113 q 489 50 479 69 q 528 24 499 31 q 619 17 557 17 q 622 8 622 17 q 619 0 622 0 q 547 1 574 0 l 440 3 l 339 1 q 263 0 311 0 q 260 8 260 0 q 263 17 260 17 q 354 24 325 17 q 394 51 383 31 q 404 113 404 71 l 404 756 q 393 819 404 801 q 353 840 382 836 q 250 844 325 844 z "},"Ŧ":{"ha":878,"x_min":51,"x_max":828,"o":"m 813 903 q 821 908 814 908 q 828 903 828 908 q 819 784 824 864 q 815 654 815 704 q 807 651 815 651 q 799 654 799 651 q 783 768 799 728 q 732 826 768 808 q 631 844 696 844 q 529 840 558 844 q 490 817 500 835 q 479 753 479 799 l 479 461 l 621 461 q 626 457 624 461 q 628 449 628 453 q 626 439 628 443 q 621 435 624 435 l 479 435 l 479 113 q 489 50 479 69 q 528 24 499 31 q 619 17 557 17 q 622 8 622 17 q 619 0 622 0 q 547 1 574 0 l 440 3 l 339 1 q 263 0 311 0 q 260 8 260 0 q 263 17 260 17 q 354 24 325 17 q 394 51 383 31 q 404 113 404 71 l 404 435 l 263 435 q 259 439 261 435 q 257 449 257 443 q 259 457 257 453 q 263 461 261 461 l 404 461 l 404 756 q 393 819 404 801 q 353 840 382 836 q 250 844 325 844 q 122 803 163 844 q 68 654 82 761 q 60 651 68 651 q 51 654 51 651 q 64 774 57 692 q 71 899 71 857 q 79 906 71 906 q 88 899 88 906 q 161 868 88 868 q 440 864 281 864 q 614 867 522 864 l 708 868 q 782 875 758 868 q 813 903 806 882 z "},"Ť":{"ha":878,"x_min":51,"x_max":828,"o":"m 250 844 q 122 803 163 844 q 68 654 82 761 q 60 651 68 651 q 51 654 51 651 q 64 774 57 692 q 71 899 71 857 q 79 906 71 906 q 88 899 88 906 q 161 868 88 868 q 440 864 281 864 q 614 867 522 864 l 708 868 q 782 875 758 868 q 813 903 806 882 q 821 908 814 908 q 828 903 828 908 q 819 784 824 864 q 815 654 815 704 q 807 651 815 651 q 799 654 799 651 q 783 768 799 728 q 732 826 768 808 q 631 844 696 844 q 529 840 558 844 q 490 817 500 835 q 479 753 479 799 l 479 113 q 489 50 479 69 q 528 24 499 31 q 619 17 557 17 q 622 8 622 17 q 619 0 622 0 q 547 1 574 0 l 440 3 l 339 1 q 263 0 311 0 q 260 8 260 0 q 263 17 260 17 q 354 24 325 17 q 394 51 383 31 q 404 113 404 71 l 404 756 q 393 819 404 801 q 353 840 382 836 q 250 844 325 844 m 279 1082 q 278 1083 278 1082 q 278 1083 278 1083 q 281 1090 278 1086 q 288 1092 285 1093 l 439 1006 l 589 1092 l 590 1092 q 597 1088 594 1092 q 596 1082 600 1083 l 454 954 q 439 949 449 949 q 422 954 428 949 l 279 1082 z "},"Ţ":{"ha":878,"x_min":51,"x_max":828,"o":"m 813 903 q 821 908 814 908 q 828 903 828 908 q 819 784 824 864 q 815 654 815 704 q 807 651 815 651 q 799 654 799 651 q 783 768 799 728 q 732 826 768 808 q 631 844 696 844 q 529 840 558 844 q 490 817 500 835 q 479 753 479 799 l 479 113 q 489 50 479 69 q 528 24 499 31 q 619 17 557 17 q 622 8 622 17 q 619 0 622 0 q 549 1 574 0 l 446 3 q 425 -81 425 -62 q 438 -114 425 -101 q 483 -144 450 -126 q 538 -189 518 -164 q 558 -251 558 -214 q 523 -342 558 -301 q 421 -382 488 -382 q 360 -369 385 -382 q 335 -332 335 -356 q 346 -305 335 -315 q 374 -294 357 -294 q 395 -301 388 -294 q 410 -322 403 -308 q 431 -347 421 -339 q 461 -356 440 -356 q 513 -299 513 -356 q 487 -234 513 -262 q 393 -169 461 -206 q 376 -160 382 -164 q 371 -150 371 -156 q 379 -126 371 -143 q 428 3 394 -86 l 333 1 q 263 0 308 0 q 260 8 260 0 q 263 17 260 17 q 354 24 325 17 q 394 51 383 31 q 404 113 404 71 l 404 756 q 393 819 404 801 q 353 840 382 836 q 250 844 325 844 q 122 803 163 844 q 68 654 82 761 q 60 651 68 651 q 51 654 51 651 q 64 774 57 692 q 71 899 71 857 q 79 906 71 906 q 88 899 88 906 q 161 868 88 868 q 440 864 281 864 q 614 867 522 864 l 708 868 q 782 875 758 868 q 813 903 806 882 z "},"Ț":{"ha":878,"x_min":51,"x_max":828,"o":"m 250 844 q 122 803 163 844 q 68 654 82 761 q 60 651 68 651 q 51 654 51 651 q 64 774 57 692 q 71 899 71 857 q 79 906 71 906 q 88 899 88 906 q 161 868 88 868 q 440 864 281 864 q 614 867 522 864 l 708 868 q 782 875 758 868 q 813 903 806 882 q 821 908 814 908 q 828 903 828 908 q 819 784 824 864 q 815 654 815 704 q 807 651 815 651 q 799 654 799 651 q 783 768 799 728 q 732 826 768 808 q 631 844 696 844 q 529 840 558 844 q 490 817 500 835 q 479 753 479 799 l 479 113 q 489 50 479 69 q 528 24 499 31 q 619 17 557 17 q 622 8 622 17 q 619 0 622 0 q 547 1 574 0 l 440 3 l 339 1 q 263 0 311 0 q 260 8 260 0 q 263 17 260 17 q 354 24 325 17 q 394 51 383 31 q 404 113 404 71 l 404 756 q 393 819 404 801 q 353 840 382 836 q 250 844 325 844 m 438 -124 q 492 -149 474 -124 q 511 -222 511 -174 q 491 -305 511 -267 q 432 -382 471 -343 q 428 -383 431 -383 q 421 -378 424 -383 q 421 -372 418 -374 q 481 -240 481 -317 q 474 -201 481 -215 q 435 -221 465 -221 q 398 -208 411 -221 q 385 -172 385 -194 q 438 -124 385 -124 z "},"Ṭ":{"ha":878,"x_min":51,"x_max":828,"o":"m 250 844 q 122 803 163 844 q 68 654 82 761 q 60 651 68 651 q 51 654 51 651 q 64 774 57 692 q 71 899 71 857 q 79 906 71 906 q 88 899 88 906 q 161 868 88 868 q 440 864 281 864 q 614 867 522 864 l 708 868 q 782 875 758 868 q 813 903 806 882 q 821 908 814 908 q 828 903 828 908 q 819 784 824 864 q 815 654 815 704 q 807 651 815 651 q 799 654 799 651 q 783 768 799 728 q 732 826 768 808 q 631 844 696 844 q 529 840 558 844 q 490 817 500 835 q 479 753 479 799 l 479 113 q 489 50 479 69 q 528 24 499 31 q 619 17 557 17 q 622 8 622 17 q 619 0 622 0 q 547 1 574 0 l 440 3 l 339 1 q 263 0 311 0 q 260 8 260 0 q 263 17 260 17 q 354 24 325 17 q 394 51 383 31 q 404 113 404 71 l 404 756 q 393 819 404 801 q 353 840 382 836 q 250 844 325 844 m 449 -258 q 408 -244 422 -258 q 393 -206 393 -231 q 408 -167 393 -181 q 449 -153 422 -153 q 488 -167 474 -153 q 501 -206 501 -181 q 488 -244 501 -231 q 449 -258 474 -258 z "},"Ṯ":{"ha":878,"x_min":51,"x_max":828,"o":"m 250 844 q 122 803 163 844 q 68 654 82 761 q 60 651 68 651 q 51 654 51 651 q 64 774 57 692 q 71 899 71 857 q 79 906 71 906 q 88 899 88 906 q 161 868 88 868 q 440 864 281 864 q 614 867 522 864 l 708 868 q 782 875 758 868 q 813 903 806 882 q 821 908 814 908 q 828 903 828 908 q 819 784 824 864 q 815 654 815 704 q 807 651 815 651 q 799 654 799 651 q 783 768 799 728 q 732 826 768 808 q 631 844 696 844 q 529 840 558 844 q 490 817 500 835 q 479 753 479 799 l 479 113 q 489 50 479 69 q 528 24 499 31 q 619 17 557 17 q 622 8 622 17 q 619 0 622 0 q 547 1 574 0 l 440 3 l 339 1 q 263 0 311 0 q 260 8 260 0 q 263 17 260 17 q 354 24 325 17 q 394 51 383 31 q 404 113 404 71 l 404 756 q 393 819 404 801 q 353 840 382 836 q 250 844 325 844 m 272 -154 q 265 -136 265 -154 q 272 -118 265 -118 l 621 -118 q 626 -124 624 -118 q 628 -136 628 -129 q 621 -154 628 -154 l 272 -154 z "},"U":{"ha":968,"x_min":36,"x_max":938,"o":"m 794 722 q 766 820 794 789 q 676 851 738 851 q 672 860 672 851 q 676 868 672 868 l 735 867 q 811 864 782 864 q 878 867 836 864 l 935 868 q 938 860 938 868 q 935 851 938 851 q 851 820 878 851 q 825 722 825 789 l 825 325 q 738 72 825 163 q 501 -18 650 -18 q 322 23 399 -18 q 204 139 246 64 q 163 313 163 214 l 163 756 q 153 817 163 797 q 119 844 144 836 q 39 851 93 851 q 36 860 36 851 q 39 868 36 868 l 106 867 q 199 864 164 864 q 294 867 236 864 l 358 868 q 363 860 363 868 q 358 851 363 851 q 279 843 304 851 q 245 815 254 835 q 236 753 236 794 l 236 361 q 313 110 236 199 q 526 22 389 22 q 724 102 653 22 q 794 324 794 182 l 794 722 z "},"Ú":{"ha":968,"x_min":36,"x_max":938,"o":"m 794 722 q 766 820 794 789 q 676 851 738 851 q 672 860 672 851 q 676 868 672 868 l 735 867 q 811 864 782 864 q 878 867 836 864 l 935 868 q 938 860 938 868 q 935 851 938 851 q 851 820 878 851 q 825 722 825 789 l 825 325 q 738 72 825 163 q 501 -18 650 -18 q 322 23 399 -18 q 204 139 246 64 q 163 313 163 214 l 163 756 q 153 817 163 797 q 119 844 144 836 q 39 851 93 851 q 36 860 36 851 q 39 868 36 868 l 106 867 q 199 864 164 864 q 294 867 236 864 l 358 868 q 363 860 363 868 q 358 851 363 851 q 279 843 304 851 q 245 815 254 835 q 236 753 236 794 l 236 361 q 313 110 236 199 q 526 22 389 22 q 724 102 653 22 q 794 324 794 182 l 794 722 m 382 942 q 375 948 376 942 q 378 957 374 954 q 547 1047 442 986 l 617 1086 q 645 1081 622 1089 q 685 1062 668 1072 q 693 1050 703 1051 q 535 1003 607 1029 q 385 943 464 978 l 382 942 z "},"Ŭ":{"ha":968,"x_min":36,"x_max":938,"o":"m 794 722 q 766 820 794 789 q 676 851 738 851 q 672 860 672 851 q 676 868 672 868 l 735 867 q 811 864 782 864 q 878 867 836 864 l 935 868 q 938 860 938 868 q 935 851 938 851 q 851 820 878 851 q 825 722 825 789 l 825 325 q 738 72 825 163 q 501 -18 650 -18 q 322 23 399 -18 q 204 139 246 64 q 163 313 163 214 l 163 756 q 153 817 163 797 q 119 844 144 836 q 39 851 93 851 q 36 860 36 851 q 39 868 36 868 l 106 867 q 199 864 164 864 q 294 867 236 864 l 358 868 q 363 860 363 868 q 358 851 363 851 q 279 843 304 851 q 245 815 254 835 q 236 753 236 794 l 236 361 q 313 110 236 199 q 526 22 389 22 q 724 102 653 22 q 794 324 794 182 l 794 722 m 519 958 q 426 995 463 958 q 376 1100 389 1032 q 382 1106 375 1106 q 392 1104 389 1107 q 440 1034 403 1063 q 519 1006 478 1006 q 598 1035 561 1006 q 646 1104 635 1064 q 651 1107 646 1107 q 659 1105 656 1107 q 661 1100 663 1103 q 613 995 649 1032 q 519 958 576 958 z "},"Ǔ":{"ha":968,"x_min":36,"x_max":938,"o":"m 794 722 q 766 820 794 789 q 676 851 738 851 q 672 860 672 851 q 676 868 672 868 l 735 867 q 811 864 782 864 q 878 867 836 864 l 935 868 q 938 860 938 868 q 935 851 938 851 q 851 820 878 851 q 825 722 825 789 l 825 325 q 738 72 825 163 q 501 -18 650 -18 q 322 23 399 -18 q 204 139 246 64 q 163 313 163 214 l 163 756 q 153 817 163 797 q 119 844 144 836 q 39 851 93 851 q 36 860 36 851 q 39 868 36 868 l 106 867 q 199 864 164 864 q 294 867 236 864 l 358 868 q 363 860 363 868 q 358 851 363 851 q 279 843 304 851 q 245 815 254 835 q 236 753 236 794 l 236 361 q 313 110 236 199 q 526 22 389 22 q 724 102 653 22 q 794 324 794 182 l 794 722 m 360 1082 q 358 1083 358 1082 q 358 1083 358 1083 q 362 1090 358 1086 q 368 1092 365 1093 l 519 1006 l 669 1092 l 671 1092 q 678 1088 675 1092 q 676 1082 681 1083 l 535 954 q 519 949 529 949 q 503 954 508 949 l 360 1082 z "},"Û":{"ha":968,"x_min":36,"x_max":938,"o":"m 794 722 q 766 820 794 789 q 676 851 738 851 q 672 860 672 851 q 676 868 672 868 l 735 867 q 811 864 782 864 q 878 867 836 864 l 935 868 q 938 860 938 868 q 935 851 938 851 q 851 820 878 851 q 825 722 825 789 l 825 325 q 738 72 825 163 q 501 -18 650 -18 q 322 23 399 -18 q 204 139 246 64 q 163 313 163 214 l 163 756 q 153 817 163 797 q 119 844 144 836 q 39 851 93 851 q 36 860 36 851 q 39 868 36 868 l 106 867 q 199 864 164 864 q 294 867 236 864 l 358 868 q 363 860 363 868 q 358 851 363 851 q 279 843 304 851 q 245 815 254 835 q 236 753 236 794 l 236 361 q 313 110 236 199 q 526 22 389 22 q 724 102 653 22 q 794 324 794 182 l 794 722 m 504 1088 q 521 1094 511 1094 q 536 1088 529 1094 l 678 958 q 679 956 679 958 q 676 950 679 953 q 671 949 672 947 l 521 1035 l 369 949 q 363 952 367 947 q 361 958 358 957 l 504 1088 z "},"Ü":{"ha":968,"x_min":36,"x_max":938,"o":"m 794 722 q 766 820 794 789 q 676 851 738 851 q 672 860 672 851 q 676 868 672 868 l 735 867 q 811 864 782 864 q 878 867 836 864 l 935 868 q 938 860 938 868 q 935 851 938 851 q 851 820 878 851 q 825 722 825 789 l 825 325 q 738 72 825 163 q 501 -18 650 -18 q 322 23 399 -18 q 204 139 246 64 q 163 313 163 214 l 163 756 q 153 817 163 797 q 119 844 144 836 q 39 851 93 851 q 36 860 36 851 q 39 868 36 868 l 106 867 q 199 864 164 864 q 294 867 236 864 l 358 868 q 363 860 363 868 q 358 851 363 851 q 279 843 304 851 q 245 815 254 835 q 236 753 236 794 l 236 361 q 313 110 236 199 q 526 22 389 22 q 724 102 653 22 q 794 324 794 182 l 794 722 m 399 1000 q 358 1014 372 1000 q 343 1053 343 1028 q 358 1092 343 1078 q 399 1106 372 1106 q 438 1092 424 1106 q 451 1053 451 1078 q 438 1014 451 1028 q 399 1000 424 1000 m 642 1000 q 601 1014 617 1000 q 586 1053 586 1028 q 601 1092 586 1078 q 642 1106 617 1106 q 682 1092 668 1106 q 696 1053 696 1078 q 682 1014 696 1028 q 642 1000 668 1000 z "},"Ǘ":{"ha":968,"x_min":36,"x_max":938,"o":"m 794 722 q 766 820 794 789 q 676 851 738 851 q 672 860 672 851 q 676 868 672 868 l 735 867 q 811 864 782 864 q 878 867 836 864 l 935 868 q 938 860 938 868 q 935 851 938 851 q 851 820 878 851 q 825 722 825 789 l 825 325 q 738 72 825 163 q 501 -18 650 -18 q 322 23 399 -18 q 204 139 246 64 q 163 313 163 214 l 163 756 q 153 817 163 797 q 119 844 144 836 q 39 851 93 851 q 36 860 36 851 q 39 868 36 868 l 106 867 q 199 864 164 864 q 294 867 236 864 l 358 868 q 363 860 363 868 q 358 851 363 851 q 279 843 304 851 q 245 815 254 835 q 236 753 236 794 l 236 361 q 313 110 236 199 q 526 22 389 22 q 724 102 653 22 q 794 324 794 182 l 794 722 m 365 1138 q 358 1144 360 1138 q 361 1153 356 1150 q 459 1202 410 1175 q 519 1236 508 1229 q 600 1281 572 1267 q 628 1276 606 1283 q 669 1258 651 1268 q 676 1244 686 1247 q 367 1138 513 1204 l 365 1138 m 399 983 q 358 997 372 983 q 343 1038 343 1011 q 358 1075 343 1061 q 399 1089 372 1089 q 438 1075 424 1089 q 451 1038 451 1061 q 438 997 451 1011 q 399 983 424 983 m 642 983 q 601 998 617 983 q 586 1038 586 1013 q 601 1075 586 1061 q 642 1089 617 1089 q 682 1075 668 1089 q 696 1038 696 1061 q 682 997 696 1011 q 642 983 668 983 z "},"Ǚ":{"ha":968,"x_min":36,"x_max":938,"o":"m 794 722 q 766 820 794 789 q 676 851 738 851 q 672 860 672 851 q 676 868 672 868 l 735 867 q 811 864 782 864 q 878 867 836 864 l 935 868 q 938 860 938 868 q 935 851 938 851 q 851 820 878 851 q 825 722 825 789 l 825 325 q 738 72 825 163 q 501 -18 650 -18 q 322 23 399 -18 q 204 139 246 64 q 163 313 163 214 l 163 756 q 153 817 163 797 q 119 844 144 836 q 39 851 93 851 q 36 860 36 851 q 39 868 36 868 l 106 867 q 199 864 164 864 q 294 867 236 864 l 358 868 q 363 860 363 868 q 358 851 363 851 q 279 843 304 851 q 245 815 254 835 q 236 753 236 794 l 236 361 q 313 110 236 199 q 526 22 389 22 q 724 102 653 22 q 794 324 794 182 l 794 722 m 364 1261 q 363 1262 363 1261 q 363 1263 363 1263 q 366 1269 363 1265 q 372 1271 369 1272 l 524 1185 l 672 1271 l 675 1271 q 682 1267 679 1271 q 681 1261 685 1263 l 538 1133 q 522 1128 532 1128 q 507 1133 513 1128 l 364 1261 m 399 983 q 358 997 372 983 q 343 1038 343 1011 q 358 1075 343 1061 q 399 1089 372 1089 q 438 1075 424 1089 q 451 1038 451 1061 q 438 997 451 1011 q 399 983 424 983 m 642 983 q 601 998 617 983 q 586 1038 586 1013 q 601 1075 586 1061 q 642 1089 617 1089 q 682 1075 668 1089 q 696 1038 696 1061 q 682 997 696 1011 q 642 983 668 983 z "},"Ǜ":{"ha":968,"x_min":36,"x_max":938,"o":"m 794 722 q 766 820 794 789 q 676 851 738 851 q 672 860 672 851 q 676 868 672 868 l 735 867 q 811 864 782 864 q 878 867 836 864 l 935 868 q 938 860 938 868 q 935 851 938 851 q 851 820 878 851 q 825 722 825 789 l 825 325 q 738 72 825 163 q 501 -18 650 -18 q 322 23 399 -18 q 204 139 246 64 q 163 313 163 214 l 163 756 q 153 817 163 797 q 119 844 144 836 q 39 851 93 851 q 36 860 36 851 q 39 868 36 868 l 106 867 q 199 864 164 864 q 294 867 236 864 l 358 868 q 363 860 363 868 q 358 851 363 851 q 279 843 304 851 q 245 815 254 835 q 236 753 236 794 l 236 361 q 313 110 236 199 q 526 22 389 22 q 724 102 653 22 q 794 324 794 182 l 794 722 m 690 1138 q 382 1244 543 1204 q 390 1258 372 1247 q 430 1276 407 1268 q 458 1281 453 1283 l 539 1236 q 697 1153 642 1178 q 700 1147 700 1151 q 697 1140 700 1143 q 690 1138 694 1136 m 417 983 q 376 997 390 983 q 363 1038 363 1011 q 376 1075 363 1061 q 417 1089 390 1089 q 456 1075 442 1089 q 471 1038 471 1061 q 456 997 471 1011 q 417 983 442 983 m 660 983 q 619 997 633 983 q 606 1038 606 1011 q 619 1075 606 1061 q 660 1089 633 1089 q 701 1075 686 1089 q 715 1038 715 1061 q 701 997 715 1011 q 660 983 686 983 z "},"Ǖ":{"ha":968,"x_min":36,"x_max":938,"o":"m 794 722 q 766 820 794 789 q 676 851 738 851 q 672 860 672 851 q 676 868 672 868 l 735 867 q 811 864 782 864 q 878 867 836 864 l 935 868 q 938 860 938 868 q 935 851 938 851 q 851 820 878 851 q 825 722 825 789 l 825 325 q 738 72 825 163 q 501 -18 650 -18 q 322 23 399 -18 q 204 139 246 64 q 163 313 163 214 l 163 756 q 153 817 163 797 q 119 844 144 836 q 39 851 93 851 q 36 860 36 851 q 39 868 36 868 l 106 867 q 199 864 164 864 q 294 867 236 864 l 358 868 q 363 860 363 868 q 358 851 363 851 q 279 843 304 851 q 245 815 254 835 q 236 753 236 794 l 236 361 q 313 110 236 199 q 526 22 389 22 q 724 102 653 22 q 794 324 794 182 l 794 722 m 361 1168 q 356 1174 358 1168 q 354 1186 354 1179 q 361 1204 354 1204 l 678 1204 q 685 1186 685 1204 q 678 1168 685 1168 l 361 1168 m 399 983 q 358 997 372 983 q 343 1038 343 1011 q 358 1075 343 1061 q 399 1089 372 1089 q 438 1075 424 1089 q 451 1038 451 1061 q 438 997 451 1011 q 399 983 424 983 m 642 983 q 601 998 617 983 q 586 1038 586 1013 q 601 1075 586 1061 q 642 1089 617 1089 q 682 1075 668 1089 q 696 1038 696 1061 q 682 997 696 1011 q 642 983 668 983 z "},"Ụ":{"ha":968,"x_min":36,"x_max":938,"o":"m 794 722 q 766 820 794 789 q 676 851 738 851 q 672 860 672 851 q 676 868 672 868 l 735 867 q 811 864 782 864 q 878 867 836 864 l 935 868 q 938 860 938 868 q 935 851 938 851 q 851 820 878 851 q 825 722 825 789 l 825 325 q 738 72 825 163 q 501 -18 650 -18 q 322 23 399 -18 q 204 139 246 64 q 163 313 163 214 l 163 756 q 153 817 163 797 q 119 844 144 836 q 39 851 93 851 q 36 860 36 851 q 39 868 36 868 l 106 867 q 199 864 164 864 q 294 867 236 864 l 358 868 q 363 860 363 868 q 358 851 363 851 q 279 843 304 851 q 245 815 254 835 q 236 753 236 794 l 236 361 q 313 110 236 199 q 526 22 389 22 q 724 102 653 22 q 794 324 794 182 l 794 722 m 486 -258 q 445 -244 460 -258 q 431 -206 431 -231 q 445 -167 431 -181 q 486 -153 460 -153 q 525 -167 511 -153 q 539 -206 539 -181 q 525 -244 539 -231 q 486 -258 511 -258 z "},"Ù":{"ha":968,"x_min":36,"x_max":938,"o":"m 794 722 q 766 820 794 789 q 676 851 738 851 q 672 860 672 851 q 676 868 672 868 l 735 867 q 811 864 782 864 q 878 867 836 864 l 935 868 q 938 860 938 868 q 935 851 938 851 q 851 820 878 851 q 825 722 825 789 l 825 325 q 738 72 825 163 q 501 -18 650 -18 q 322 23 399 -18 q 204 139 246 64 q 163 313 163 214 l 163 756 q 153 817 163 797 q 119 844 144 836 q 39 851 93 851 q 36 860 36 851 q 39 868 36 868 l 106 867 q 199 864 164 864 q 294 867 236 864 l 358 868 q 363 860 363 868 q 358 851 363 851 q 279 843 304 851 q 245 815 254 835 q 236 753 236 794 l 236 361 q 313 110 236 199 q 526 22 389 22 q 724 102 653 22 q 794 324 794 182 l 794 722 m 657 943 q 347 1050 500 1013 q 355 1062 338 1051 q 395 1081 372 1072 q 424 1086 418 1089 q 541 1019 479 1054 q 663 957 603 985 q 665 951 665 956 q 663 944 665 947 q 657 943 660 942 z "},"Ủ":{"ha":968,"x_min":36,"x_max":938,"o":"m 794 722 q 766 820 794 789 q 676 851 738 851 q 672 860 672 851 q 676 868 672 868 l 735 867 q 811 864 782 864 q 878 867 836 864 l 935 868 q 938 860 938 868 q 935 851 938 851 q 851 820 878 851 q 825 722 825 789 l 825 325 q 738 72 825 163 q 501 -18 650 -18 q 322 23 399 -18 q 204 139 246 64 q 163 313 163 214 l 163 756 q 153 817 163 797 q 119 844 144 836 q 39 851 93 851 q 36 860 36 851 q 39 868 36 868 l 106 867 q 199 864 164 864 q 294 867 236 864 l 358 868 q 363 860 363 868 q 358 851 363 851 q 279 843 304 851 q 245 815 254 835 q 236 753 236 794 l 236 361 q 313 110 236 199 q 526 22 389 22 q 724 102 653 22 q 794 324 794 182 l 794 722 m 524 904 q 517 901 525 901 q 508 904 510 901 q 504 933 504 921 q 513 971 504 954 q 536 1013 521 988 q 558 1049 551 1033 q 565 1081 565 1064 q 547 1122 565 1107 q 501 1138 528 1138 q 465 1129 485 1138 l 464 1129 q 456 1134 460 1129 q 456 1140 451 1139 q 540 1167 499 1167 q 603 1146 581 1167 q 626 1094 626 1125 q 614 1051 626 1069 q 572 1003 601 1033 q 534 960 547 979 q 521 921 521 942 q 524 904 521 915 z "},"Ư":{"ha":968,"x_min":36,"x_max":1013,"o":"m 825 325 q 735 72 825 163 q 492 -18 644 -18 q 251 71 339 -18 q 163 313 163 160 l 163 756 q 153 817 163 797 q 119 844 144 836 q 39 851 93 851 q 36 860 36 851 q 39 868 36 868 l 106 867 q 199 864 164 864 q 294 867 236 864 l 358 868 q 363 860 363 868 q 358 851 363 851 q 279 843 304 851 q 245 815 254 835 q 236 753 236 794 l 236 361 q 312 109 236 196 q 519 22 388 22 q 721 103 647 22 q 794 324 794 183 l 794 722 q 766 820 794 789 q 676 851 738 851 q 672 860 672 851 q 676 868 672 868 l 735 867 q 811 864 782 864 q 903 878 875 864 q 932 929 932 893 q 919 968 932 950 q 908 996 908 982 q 924 1032 908 1018 q 961 1046 940 1046 q 999 1028 986 1046 q 1013 983 1013 1010 q 979 908 1013 940 q 894 854 946 875 q 845 816 865 843 q 825 722 825 789 l 825 325 z "},"Ứ":{"ha":968,"x_min":36,"x_max":1013,"o":"m 825 325 q 735 72 825 163 q 492 -18 644 -18 q 251 71 339 -18 q 163 313 163 160 l 163 756 q 153 817 163 797 q 119 844 144 836 q 39 851 93 851 q 36 860 36 851 q 39 868 36 868 l 106 867 q 199 864 164 864 q 294 867 236 864 l 358 868 q 363 860 363 868 q 358 851 363 851 q 279 843 304 851 q 245 815 254 835 q 236 753 236 794 l 236 361 q 312 109 236 196 q 519 22 388 22 q 721 103 647 22 q 794 324 794 183 l 794 722 q 766 820 794 789 q 676 851 738 851 q 672 860 672 851 q 676 868 672 868 l 735 867 q 811 864 782 864 q 903 878 875 864 q 932 929 932 893 q 919 968 932 950 q 908 996 908 982 q 924 1032 908 1018 q 961 1046 940 1046 q 999 1028 986 1046 q 1013 983 1013 1010 q 979 908 1013 940 q 894 854 946 875 q 845 816 865 843 q 825 722 825 789 l 825 325 m 381 942 q 373 948 375 942 q 375 957 371 954 q 533 1040 431 982 l 614 1085 q 642 1080 619 1088 q 683 1062 665 1072 q 690 1050 700 1051 q 382 942 526 1008 l 381 942 z "},"Ự":{"ha":968,"x_min":36,"x_max":1013,"o":"m 825 325 q 735 72 825 163 q 492 -18 644 -18 q 251 71 339 -18 q 163 313 163 160 l 163 756 q 153 817 163 797 q 119 844 144 836 q 39 851 93 851 q 36 860 36 851 q 39 868 36 868 l 106 867 q 199 864 164 864 q 294 867 236 864 l 358 868 q 363 860 363 868 q 358 851 363 851 q 279 843 304 851 q 245 815 254 835 q 236 753 236 794 l 236 361 q 312 109 236 196 q 519 22 388 22 q 721 103 647 22 q 794 324 794 183 l 794 722 q 766 820 794 789 q 676 851 738 851 q 672 860 672 851 q 676 868 672 868 l 735 867 q 811 864 782 864 q 903 878 875 864 q 932 929 932 893 q 919 968 932 950 q 908 996 908 982 q 924 1032 908 1018 q 961 1046 940 1046 q 999 1028 986 1046 q 1013 983 1013 1010 q 979 908 1013 940 q 894 854 946 875 q 845 816 865 843 q 825 722 825 789 l 825 325 m 515 -258 q 474 -244 489 -258 q 460 -206 460 -231 q 474 -167 460 -181 q 515 -153 489 -153 q 554 -167 540 -153 q 568 -206 568 -181 q 554 -244 568 -231 q 515 -258 540 -258 z "},"Ừ":{"ha":968,"x_min":36,"x_max":1013,"o":"m 825 325 q 735 72 825 163 q 492 -18 644 -18 q 251 71 339 -18 q 163 313 163 160 l 163 756 q 153 817 163 797 q 119 844 144 836 q 39 851 93 851 q 36 860 36 851 q 39 868 36 868 l 106 867 q 199 864 164 864 q 294 867 236 864 l 358 868 q 363 860 363 868 q 358 851 363 851 q 279 843 304 851 q 245 815 254 835 q 236 753 236 794 l 236 361 q 312 109 236 196 q 519 22 388 22 q 721 103 647 22 q 794 324 794 183 l 794 722 q 766 820 794 789 q 676 851 738 851 q 672 860 672 851 q 676 868 672 868 l 735 867 q 811 864 782 864 q 903 878 875 864 q 932 929 932 893 q 919 968 932 950 q 908 996 908 982 q 924 1032 908 1018 q 961 1046 940 1046 q 999 1028 986 1046 q 1013 983 1013 1010 q 979 908 1013 940 q 894 854 946 875 q 845 816 865 843 q 825 722 825 789 l 825 325 m 654 943 q 344 1050 497 1013 q 352 1062 335 1051 q 392 1081 369 1072 q 421 1086 415 1089 q 538 1019 476 1054 q 660 957 600 985 q 663 951 663 956 q 660 944 663 947 q 654 943 657 942 z "},"Ử":{"ha":968,"x_min":36,"x_max":1013,"o":"m 825 325 q 735 72 825 163 q 492 -18 644 -18 q 251 71 339 -18 q 163 313 163 160 l 163 756 q 153 817 163 797 q 119 844 144 836 q 39 851 93 851 q 36 860 36 851 q 39 868 36 868 l 106 867 q 199 864 164 864 q 294 867 236 864 l 358 868 q 363 860 363 868 q 358 851 363 851 q 279 843 304 851 q 245 815 254 835 q 236 753 236 794 l 236 361 q 312 109 236 196 q 519 22 388 22 q 721 103 647 22 q 794 324 794 183 l 794 722 q 766 820 794 789 q 676 851 738 851 q 672 860 672 851 q 676 868 672 868 l 735 867 q 811 864 782 864 q 903 878 875 864 q 932 929 932 893 q 919 968 932 950 q 908 996 908 982 q 924 1032 908 1018 q 961 1046 940 1046 q 999 1028 986 1046 q 1013 983 1013 1010 q 979 908 1013 940 q 894 854 946 875 q 845 816 865 843 q 825 722 825 789 l 825 325 m 521 904 q 515 901 522 901 q 506 904 507 901 q 501 933 501 921 q 510 971 501 954 q 533 1013 518 988 q 556 1049 549 1033 q 563 1081 563 1064 q 544 1122 563 1107 q 499 1138 525 1138 q 463 1129 482 1138 l 461 1129 q 453 1134 457 1129 q 453 1140 449 1139 q 538 1167 496 1167 q 601 1146 578 1167 q 624 1094 624 1125 q 611 1051 624 1069 q 569 1003 599 1033 q 531 960 544 979 q 518 921 518 942 q 521 904 518 915 z "},"Ữ":{"ha":968,"x_min":36,"x_max":1013,"o":"m 825 325 q 735 72 825 163 q 492 -18 644 -18 q 251 71 339 -18 q 163 313 163 160 l 163 756 q 153 817 163 797 q 119 844 144 836 q 39 851 93 851 q 36 860 36 851 q 39 868 36 868 l 106 867 q 199 864 164 864 q 294 867 236 864 l 358 868 q 363 860 363 868 q 358 851 363 851 q 279 843 304 851 q 245 815 254 835 q 236 753 236 794 l 236 361 q 312 109 236 196 q 519 22 388 22 q 721 103 647 22 q 794 324 794 183 l 794 722 q 766 820 794 789 q 676 851 738 851 q 672 860 672 851 q 676 868 672 868 l 735 867 q 811 864 782 864 q 903 878 875 864 q 932 929 932 893 q 919 968 932 950 q 908 996 908 982 q 924 1032 908 1018 q 961 1046 940 1046 q 999 1028 986 1046 q 1013 983 1013 1010 q 979 908 1013 940 q 894 854 946 875 q 845 816 865 843 q 825 722 825 789 l 825 325 m 624 1057 q 662 1067 647 1057 q 692 1094 676 1076 l 693 1094 q 701 1091 697 1094 q 701 1085 704 1088 q 642 1021 665 1038 q 593 1004 618 1004 q 550 1009 572 1004 q 506 1021 528 1014 q 458 1033 483 1028 q 410 1039 433 1039 q 376 1031 388 1039 q 355 1015 364 1024 q 342 1001 346 1006 l 339 1001 q 332 1005 335 1001 q 332 1011 329 1008 q 385 1066 354 1042 q 449 1090 417 1090 q 492 1084 468 1090 q 521 1076 517 1078 q 624 1057 582 1057 z "},"Ű":{"ha":968,"x_min":36,"x_max":938,"o":"m 794 722 q 766 820 794 789 q 676 851 738 851 q 672 860 672 851 q 676 868 672 868 l 735 867 q 811 864 782 864 q 878 867 836 864 l 935 868 q 938 860 938 868 q 935 851 938 851 q 851 820 878 851 q 825 722 825 789 l 825 325 q 738 72 825 163 q 501 -18 650 -18 q 322 23 399 -18 q 204 139 246 64 q 163 313 163 214 l 163 756 q 153 817 163 797 q 119 844 144 836 q 39 851 93 851 q 36 860 36 851 q 39 868 36 868 l 106 867 q 199 864 164 864 q 294 867 236 864 l 358 868 q 363 860 363 868 q 358 851 363 851 q 279 843 304 851 q 245 815 254 835 q 236 753 236 794 l 236 361 q 313 110 236 199 q 526 22 389 22 q 724 102 653 22 q 794 324 794 182 l 794 722 m 374 942 q 368 948 369 942 q 369 957 367 954 q 494 1078 426 1008 q 523 1076 499 1082 q 566 1063 547 1071 q 575 1050 585 1054 q 376 943 482 1011 l 374 942 m 536 942 q 531 948 532 942 q 532 957 529 954 q 657 1078 589 1008 q 684 1076 661 1082 q 724 1063 707 1071 q 733 1050 742 1054 q 638 1004 682 1029 q 539 943 594 979 l 536 942 z "},"Ū":{"ha":968,"x_min":36,"x_max":938,"o":"m 794 722 q 766 820 794 789 q 676 851 738 851 q 672 860 672 851 q 676 868 672 868 l 735 867 q 811 864 782 864 q 878 867 836 864 l 935 868 q 938 860 938 868 q 935 851 938 851 q 851 820 878 851 q 825 722 825 789 l 825 325 q 738 72 825 163 q 501 -18 650 -18 q 322 23 399 -18 q 204 139 246 64 q 163 313 163 214 l 163 756 q 153 817 163 797 q 119 844 144 836 q 39 851 93 851 q 36 860 36 851 q 39 868 36 868 l 106 867 q 199 864 164 864 q 294 867 236 864 l 358 868 q 363 860 363 868 q 358 851 363 851 q 279 843 304 851 q 245 815 254 835 q 236 753 236 794 l 236 361 q 313 110 236 199 q 526 22 389 22 q 724 102 653 22 q 794 324 794 182 l 794 722 m 344 1006 q 340 1011 342 1006 q 338 1024 338 1017 q 344 1042 338 1042 l 693 1042 q 700 1024 700 1042 q 693 1006 700 1006 l 344 1006 z "},"Ų":{"ha":968,"x_min":36,"x_max":938,"o":"m 935 868 q 938 860 938 868 q 935 851 938 851 q 851 820 878 851 q 825 722 825 789 l 825 325 q 764 104 825 190 q 594 -7 703 18 q 515 -106 540 -57 q 490 -208 490 -154 q 523 -308 490 -272 q 618 -344 556 -344 q 672 -335 650 -344 q 717 -308 694 -326 l 719 -308 q 727 -312 724 -308 q 726 -319 731 -317 q 578 -382 656 -382 q 463 -347 503 -382 q 424 -249 424 -311 q 563 -14 424 -133 q 501 -18 533 -18 q 322 23 399 -18 q 204 139 246 64 q 163 313 163 214 l 163 756 q 153 817 163 797 q 119 844 144 836 q 39 851 93 851 q 36 860 36 851 q 39 868 36 868 l 106 867 q 199 864 164 864 q 294 867 236 864 l 358 868 q 363 860 363 868 q 358 851 363 851 q 279 843 304 851 q 245 815 254 835 q 236 753 236 794 l 236 361 q 313 110 236 199 q 526 22 389 22 q 724 102 653 22 q 794 324 794 182 l 794 722 q 766 820 794 789 q 676 851 738 851 q 672 860 672 851 q 676 868 672 868 l 735 867 q 811 864 782 864 q 878 867 836 864 l 935 868 z "},"Ů":{"ha":968,"x_min":36,"x_max":938,"o":"m 794 722 q 766 820 794 789 q 676 851 738 851 q 672 860 672 851 q 676 868 672 868 l 735 867 q 811 864 782 864 q 878 867 836 864 l 935 868 q 938 860 938 868 q 935 851 938 851 q 851 820 878 851 q 825 722 825 789 l 825 325 q 738 72 825 163 q 501 -18 650 -18 q 322 23 399 -18 q 204 139 246 64 q 163 313 163 214 l 163 756 q 153 817 163 797 q 119 844 144 836 q 39 851 93 851 q 36 860 36 851 q 39 868 36 868 l 106 867 q 199 864 164 864 q 294 867 236 864 l 358 868 q 363 860 363 868 q 358 851 363 851 q 279 843 304 851 q 245 815 254 835 q 236 753 236 794 l 236 361 q 313 110 236 199 q 526 22 389 22 q 724 102 653 22 q 794 324 794 182 l 794 722 m 507 982 q 424 1015 456 982 q 392 1092 392 1047 q 432 1171 392 1142 q 521 1200 472 1200 q 602 1167 568 1200 q 636 1089 636 1135 q 597 1011 636 1040 q 507 982 557 982 m 529 994 q 569 1011 557 994 q 582 1064 582 1028 q 556 1150 582 1114 q 493 1186 531 1186 q 456 1170 467 1186 q 444 1119 444 1154 q 467 1033 444 1072 q 529 994 490 994 z "},"Ũ":{"ha":968,"x_min":36,"x_max":938,"o":"m 794 722 q 766 820 794 789 q 676 851 738 851 q 672 860 672 851 q 676 868 672 868 l 735 867 q 811 864 782 864 q 878 867 836 864 l 935 868 q 938 860 938 868 q 935 851 938 851 q 851 820 878 851 q 825 722 825 789 l 825 325 q 738 72 825 163 q 501 -18 650 -18 q 322 23 399 -18 q 204 139 246 64 q 163 313 163 214 l 163 756 q 153 817 163 797 q 119 844 144 836 q 39 851 93 851 q 36 860 36 851 q 39 868 36 868 l 106 867 q 199 864 164 864 q 294 867 236 864 l 358 868 q 363 860 363 868 q 358 851 363 851 q 279 843 304 851 q 245 815 254 835 q 236 753 236 794 l 236 361 q 313 110 236 199 q 526 22 389 22 q 724 102 653 22 q 794 324 794 182 l 794 722 m 626 1057 q 665 1067 650 1057 q 694 1094 679 1076 l 696 1094 q 703 1091 700 1094 q 704 1085 707 1088 q 644 1021 668 1038 q 596 1004 621 1004 q 553 1009 575 1004 q 508 1021 531 1014 q 461 1033 486 1028 q 413 1039 436 1039 q 378 1031 390 1039 q 358 1015 367 1024 q 344 1001 349 1006 l 342 1001 q 335 1005 338 1001 q 335 1011 332 1008 q 388 1066 357 1042 q 451 1090 419 1090 q 495 1084 471 1090 q 524 1076 519 1078 q 626 1057 585 1057 z "},"V":{"ha":926,"x_min":-7,"x_max":935,"o":"m 931 868 q 935 860 935 868 q 931 851 935 851 q 852 831 883 851 q 797 756 821 811 l 492 1 q 476 -4 490 -4 q 461 1 465 -4 l 118 753 q 67 829 94 807 q -3 851 40 851 q -7 860 -7 851 q -3 868 -7 868 l 57 867 q 115 864 96 864 q 211 867 156 864 l 271 868 q 275 860 275 868 q 271 851 275 851 q 206 842 228 851 q 185 808 185 832 q 197 767 185 792 l 500 99 l 768 764 q 778 804 778 788 q 752 840 778 829 q 668 851 726 851 q 664 860 664 851 q 668 868 664 868 l 724 867 q 807 864 771 864 q 872 867 836 864 l 931 868 z "},"W":{"ha":1300,"x_min":-7,"x_max":1308,"o":"m 1304 868 q 1308 860 1308 868 q 1304 851 1308 851 q 1226 831 1257 851 q 1171 756 1194 811 l 865 1 q 850 -4 864 -4 q 835 1 839 -4 l 653 400 l 492 1 q 476 -4 490 -4 q 461 1 465 -4 l 118 753 q 67 829 94 807 q -3 851 40 851 q -7 860 -7 851 q -3 868 -7 868 l 57 867 q 115 864 96 864 q 211 867 156 864 l 271 868 q 275 860 275 868 q 271 851 275 851 q 206 842 228 851 q 183 807 183 832 q 194 767 183 793 l 501 104 l 636 436 l 492 753 q 441 829 468 807 q 371 851 414 851 q 367 860 367 851 q 371 868 367 868 l 431 867 q 489 864 469 864 q 557 867 518 864 l 596 868 q 600 860 600 868 q 596 851 600 851 q 557 847 568 851 q 546 831 546 843 q 568 767 546 818 l 679 528 l 775 764 q 788 813 788 793 q 772 842 788 833 q 721 851 756 851 q 718 860 718 851 q 721 868 718 868 l 760 867 q 813 864 788 864 q 876 867 840 864 l 936 868 q 939 860 939 868 q 936 851 939 851 q 857 831 889 851 q 803 756 825 811 l 696 492 l 875 104 l 1143 764 q 1153 804 1153 785 q 1127 840 1153 829 q 1042 851 1101 851 q 1038 860 1038 851 q 1042 868 1038 868 l 1097 867 q 1181 864 1144 864 q 1246 867 1210 864 l 1304 868 z "},"Ẃ":{"ha":1300,"x_min":-7,"x_max":1308,"o":"m 1304 868 q 1308 860 1308 868 q 1304 851 1308 851 q 1226 831 1257 851 q 1171 756 1194 811 l 865 1 q 850 -4 864 -4 q 835 1 839 -4 l 653 400 l 492 1 q 476 -4 490 -4 q 461 1 465 -4 l 118 753 q 67 829 94 807 q -3 851 40 851 q -7 860 -7 851 q -3 868 -7 868 l 57 867 q 115 864 96 864 q 211 867 156 864 l 271 868 q 275 860 275 868 q 271 851 275 851 q 206 842 228 851 q 183 807 183 832 q 194 767 183 793 l 501 104 l 636 436 l 492 753 q 441 829 468 807 q 371 851 414 851 q 367 860 367 851 q 371 868 367 868 l 431 867 q 489 864 469 864 q 557 867 518 864 l 596 868 q 600 860 600 868 q 596 851 600 851 q 557 847 568 851 q 546 831 546 843 q 568 767 546 818 l 679 528 l 775 764 q 788 813 788 793 q 772 842 788 833 q 721 851 756 851 q 718 860 718 851 q 721 868 718 868 l 760 867 q 813 864 788 864 q 876 867 840 864 l 936 868 q 939 860 939 868 q 936 851 939 851 q 857 831 889 851 q 803 756 825 811 l 696 492 l 875 104 l 1143 764 q 1153 804 1153 785 q 1127 840 1153 829 q 1042 851 1101 851 q 1038 860 1038 851 q 1042 868 1038 868 l 1097 867 q 1181 864 1144 864 q 1246 867 1210 864 l 1304 868 m 513 942 q 506 948 507 942 q 508 957 504 954 q 678 1047 572 986 l 747 1086 q 776 1081 753 1089 q 816 1062 799 1072 q 824 1050 833 1051 q 666 1003 738 1029 q 515 943 594 978 l 513 942 z "},"Ŵ":{"ha":1300,"x_min":-7,"x_max":1308,"o":"m 1304 868 q 1308 860 1308 868 q 1304 851 1308 851 q 1226 831 1257 851 q 1171 756 1194 811 l 865 1 q 850 -4 864 -4 q 835 1 839 -4 l 653 400 l 492 1 q 476 -4 490 -4 q 461 1 465 -4 l 118 753 q 67 829 94 807 q -3 851 40 851 q -7 860 -7 851 q -3 868 -7 868 l 57 867 q 115 864 96 864 q 211 867 156 864 l 271 868 q 275 860 275 868 q 271 851 275 851 q 206 842 228 851 q 183 807 183 832 q 194 767 183 793 l 501 104 l 636 436 l 492 753 q 441 829 468 807 q 371 851 414 851 q 367 860 367 851 q 371 868 367 868 l 431 867 q 489 864 469 864 q 557 867 518 864 l 596 868 q 600 860 600 868 q 596 851 600 851 q 557 847 568 851 q 546 831 546 843 q 568 767 546 818 l 679 528 l 775 764 q 788 813 788 793 q 772 842 788 833 q 721 851 756 851 q 718 860 718 851 q 721 868 718 868 l 760 867 q 813 864 788 864 q 876 867 840 864 l 936 868 q 939 860 939 868 q 936 851 939 851 q 857 831 889 851 q 803 756 825 811 l 696 492 l 875 104 l 1143 764 q 1153 804 1153 785 q 1127 840 1153 829 q 1042 851 1101 851 q 1038 860 1038 851 q 1042 868 1038 868 l 1097 867 q 1181 864 1144 864 q 1246 867 1210 864 l 1304 868 m 635 1088 q 651 1094 642 1094 q 667 1088 660 1094 l 808 958 q 810 956 810 958 q 806 950 810 953 q 801 949 803 947 l 651 1035 l 500 949 q 493 952 497 947 q 492 958 489 957 l 635 1088 z "},"Ẅ":{"ha":1300,"x_min":-7,"x_max":1308,"o":"m 1304 868 q 1308 860 1308 868 q 1304 851 1308 851 q 1226 831 1257 851 q 1171 756 1194 811 l 865 1 q 850 -4 864 -4 q 835 1 839 -4 l 653 400 l 492 1 q 476 -4 490 -4 q 461 1 465 -4 l 118 753 q 67 829 94 807 q -3 851 40 851 q -7 860 -7 851 q -3 868 -7 868 l 57 867 q 115 864 96 864 q 211 867 156 864 l 271 868 q 275 860 275 868 q 271 851 275 851 q 206 842 228 851 q 183 807 183 832 q 194 767 183 793 l 501 104 l 636 436 l 492 753 q 441 829 468 807 q 371 851 414 851 q 367 860 367 851 q 371 868 367 868 l 431 867 q 489 864 469 864 q 557 867 518 864 l 596 868 q 600 860 600 868 q 596 851 600 851 q 557 847 568 851 q 546 831 546 843 q 568 767 546 818 l 679 528 l 775 764 q 788 813 788 793 q 772 842 788 833 q 721 851 756 851 q 718 860 718 851 q 721 868 718 868 l 760 867 q 813 864 788 864 q 876 867 840 864 l 936 868 q 939 860 939 868 q 936 851 939 851 q 857 831 889 851 q 803 756 825 811 l 696 492 l 875 104 l 1143 764 q 1153 804 1153 785 q 1127 840 1153 829 q 1042 851 1101 851 q 1038 860 1038 851 q 1042 868 1038 868 l 1097 867 q 1181 864 1144 864 q 1246 867 1210 864 l 1304 868 m 529 1000 q 488 1014 503 1000 q 474 1053 474 1028 q 488 1092 474 1078 q 529 1106 503 1106 q 568 1092 554 1106 q 582 1053 582 1078 q 568 1014 582 1028 q 529 1000 554 1000 m 772 1000 q 732 1014 747 1000 q 717 1053 717 1028 q 732 1092 717 1078 q 772 1106 747 1106 q 813 1092 799 1106 q 826 1053 826 1078 q 813 1014 826 1028 q 772 1000 799 1000 z "},"Ẁ":{"ha":1300,"x_min":-7,"x_max":1308,"o":"m 1304 868 q 1308 860 1308 868 q 1304 851 1308 851 q 1226 831 1257 851 q 1171 756 1194 811 l 865 1 q 850 -4 864 -4 q 835 1 839 -4 l 653 400 l 492 1 q 476 -4 490 -4 q 461 1 465 -4 l 118 753 q 67 829 94 807 q -3 851 40 851 q -7 860 -7 851 q -3 868 -7 868 l 57 867 q 115 864 96 864 q 211 867 156 864 l 271 868 q 275 860 275 868 q 271 851 275 851 q 206 842 228 851 q 183 807 183 832 q 194 767 183 793 l 501 104 l 636 436 l 492 753 q 441 829 468 807 q 371 851 414 851 q 367 860 367 851 q 371 868 367 868 l 431 867 q 489 864 469 864 q 557 867 518 864 l 596 868 q 600 860 600 868 q 596 851 600 851 q 557 847 568 851 q 546 831 546 843 q 568 767 546 818 l 679 528 l 775 764 q 788 813 788 793 q 772 842 788 833 q 721 851 756 851 q 718 860 718 851 q 721 868 718 868 l 760 867 q 813 864 788 864 q 876 867 840 864 l 936 868 q 939 860 939 868 q 936 851 939 851 q 857 831 889 851 q 803 756 825 811 l 696 492 l 875 104 l 1143 764 q 1153 804 1153 785 q 1127 840 1153 829 q 1042 851 1101 851 q 1038 860 1038 851 q 1042 868 1038 868 l 1097 867 q 1181 864 1144 864 q 1246 867 1210 864 l 1304 868 m 788 943 q 478 1050 631 1013 q 485 1062 468 1051 q 526 1081 503 1072 q 554 1086 549 1089 q 672 1019 610 1054 q 793 957 733 985 q 796 951 796 956 q 793 944 796 947 q 788 943 790 942 z "},"X":{"ha":907,"x_min":24,"x_max":882,"o":"m 879 17 q 882 8 882 17 q 879 0 882 0 q 822 1 843 0 l 749 3 l 644 1 q 576 0 619 0 q 574 8 574 0 q 576 17 574 17 q 636 22 618 17 q 654 42 654 28 q 642 71 654 53 l 426 397 l 233 128 q 206 63 206 88 q 290 17 206 17 q 294 8 294 17 q 290 0 294 0 q 228 1 249 0 l 135 3 l 78 1 q 28 0 63 0 q 24 8 24 0 q 28 17 24 17 q 119 45 75 17 q 204 128 164 74 l 414 415 l 190 753 q 118 829 154 807 q 32 851 82 851 q 29 860 29 851 q 32 868 29 868 q 85 865 49 868 l 135 864 q 246 867 179 864 l 318 868 q 322 860 322 868 q 318 851 322 851 q 258 845 276 851 q 240 825 240 839 q 253 796 240 815 l 464 479 l 640 728 q 674 804 674 776 q 593 851 674 851 q 589 860 589 851 q 593 868 589 868 l 656 867 q 749 864 708 864 q 806 867 772 864 l 856 868 q 860 860 860 868 q 856 851 860 851 q 669 726 761 851 l 475 461 l 706 115 q 780 38 742 60 q 879 17 818 17 z "},"Y":{"ha":843,"x_min":-7,"x_max":851,"o":"m 849 868 q 851 860 851 868 q 849 851 851 851 q 749 819 797 851 q 661 726 700 786 l 465 429 l 465 113 q 474 50 465 69 q 507 24 482 31 q 588 17 532 17 q 592 8 592 17 q 588 0 592 0 q 522 1 546 0 l 428 3 l 333 1 q 267 0 308 0 q 263 8 263 0 q 267 17 263 17 q 347 24 321 17 q 382 51 372 31 q 392 113 392 71 l 392 408 l 154 753 q 83 829 118 807 q -3 851 49 851 q -7 860 -7 851 q -3 868 -7 868 l 49 867 q 99 864 82 864 q 211 867 144 864 l 283 868 q 286 860 286 868 q 283 851 286 851 q 223 845 242 851 q 204 825 204 839 q 218 796 204 817 l 451 461 l 629 731 q 660 807 660 781 q 585 851 660 851 q 582 860 582 851 q 585 868 582 868 l 647 867 q 740 864 700 864 q 797 867 764 864 l 849 868 z "},"Ý":{"ha":843,"x_min":-7,"x_max":851,"o":"m 849 868 q 851 860 851 868 q 849 851 851 851 q 749 819 797 851 q 661 726 700 786 l 465 429 l 465 113 q 474 50 465 69 q 507 24 482 31 q 588 17 532 17 q 592 8 592 17 q 588 0 592 0 q 522 1 546 0 l 428 3 l 333 1 q 267 0 308 0 q 263 8 263 0 q 267 17 263 17 q 347 24 321 17 q 382 51 372 31 q 392 113 392 71 l 392 408 l 154 753 q 83 829 118 807 q -3 851 49 851 q -7 860 -7 851 q -3 868 -7 868 l 49 867 q 99 864 82 864 q 211 867 144 864 l 283 868 q 286 860 286 868 q 283 851 286 851 q 223 845 242 851 q 204 825 204 839 q 218 796 204 817 l 451 461 l 629 731 q 660 807 660 781 q 585 851 660 851 q 582 860 582 851 q 585 868 582 868 l 647 867 q 740 864 700 864 q 797 867 764 864 l 849 868 m 301 942 q 294 948 296 942 q 297 957 293 954 q 467 1047 361 986 l 536 1086 q 565 1081 542 1089 q 605 1062 588 1072 q 613 1050 622 1051 q 455 1003 526 1029 q 304 943 383 978 l 301 942 z "},"Ŷ":{"ha":843,"x_min":-7,"x_max":851,"o":"m 849 868 q 851 860 851 868 q 849 851 851 851 q 749 819 797 851 q 661 726 700 786 l 465 429 l 465 113 q 474 50 465 69 q 507 24 482 31 q 588 17 532 17 q 592 8 592 17 q 588 0 592 0 q 522 1 546 0 l 428 3 l 333 1 q 267 0 308 0 q 263 8 263 0 q 267 17 263 17 q 347 24 321 17 q 382 51 372 31 q 392 113 392 71 l 392 408 l 154 753 q 83 829 118 807 q -3 851 49 851 q -7 860 -7 851 q -3 868 -7 868 l 49 867 q 99 864 82 864 q 211 867 144 864 l 283 868 q 286 860 286 868 q 283 851 286 851 q 223 845 242 851 q 204 825 204 839 q 218 796 204 817 l 451 461 l 629 731 q 660 807 660 781 q 585 851 660 851 q 582 860 582 851 q 585 868 582 868 l 647 867 q 740 864 700 864 q 797 867 764 864 l 849 868 m 424 1088 q 440 1094 431 1094 q 456 1088 449 1094 l 597 958 q 599 956 599 958 q 595 950 599 953 q 590 949 592 947 l 440 1035 l 289 949 q 282 952 286 947 q 281 958 278 957 l 424 1088 z "},"Ÿ":{"ha":843,"x_min":-7,"x_max":851,"o":"m 849 868 q 851 860 851 868 q 849 851 851 851 q 749 819 797 851 q 661 726 700 786 l 465 429 l 465 113 q 474 50 465 69 q 507 24 482 31 q 588 17 532 17 q 592 8 592 17 q 588 0 592 0 q 522 1 546 0 l 428 3 l 333 1 q 267 0 308 0 q 263 8 263 0 q 267 17 263 17 q 347 24 321 17 q 382 51 372 31 q 392 113 392 71 l 392 408 l 154 753 q 83 829 118 807 q -3 851 49 851 q -7 860 -7 851 q -3 868 -7 868 l 49 867 q 99 864 82 864 q 211 867 144 864 l 283 868 q 286 860 286 868 q 283 851 286 851 q 223 845 242 851 q 204 825 204 839 q 218 796 204 817 l 451 461 l 629 731 q 660 807 660 781 q 585 851 660 851 q 582 860 582 851 q 585 868 582 868 l 647 867 q 740 864 700 864 q 797 867 764 864 l 849 868 m 318 1000 q 277 1014 292 1000 q 263 1053 263 1028 q 277 1092 263 1078 q 318 1106 292 1106 q 357 1092 343 1106 q 371 1053 371 1078 q 357 1014 371 1028 q 318 1000 343 1000 m 561 1000 q 521 1014 536 1000 q 506 1053 506 1028 q 521 1092 506 1078 q 561 1106 536 1106 q 601 1092 588 1106 q 615 1053 615 1078 q 601 1014 615 1028 q 561 1000 588 1000 z "},"Ẏ":{"ha":843,"x_min":-7,"x_max":851,"o":"m 849 868 q 851 860 851 868 q 849 851 851 851 q 749 819 797 851 q 661 726 700 786 l 465 429 l 465 113 q 474 50 465 69 q 507 24 482 31 q 588 17 532 17 q 592 8 592 17 q 588 0 592 0 q 522 1 546 0 l 428 3 l 333 1 q 267 0 308 0 q 263 8 263 0 q 267 17 263 17 q 347 24 321 17 q 382 51 372 31 q 392 113 392 71 l 392 408 l 154 753 q 83 829 118 807 q -3 851 49 851 q -7 860 -7 851 q -3 868 -7 868 l 49 867 q 99 864 82 864 q 211 867 144 864 l 283 868 q 286 860 286 868 q 283 851 286 851 q 223 845 242 851 q 204 825 204 839 q 218 796 204 817 l 451 461 l 629 731 q 660 807 660 781 q 585 851 660 851 q 582 860 582 851 q 585 868 582 868 l 647 867 q 740 864 700 864 q 797 867 764 864 l 849 868 m 439 990 q 398 1004 413 990 q 383 1044 383 1018 q 398 1082 383 1068 q 439 1096 413 1096 q 478 1082 464 1096 q 492 1044 492 1068 q 478 1004 492 1018 q 439 990 464 990 z "},"Ỵ":{"ha":843,"x_min":-7,"x_max":851,"o":"m 849 868 q 851 860 851 868 q 849 851 851 851 q 749 819 797 851 q 661 726 700 786 l 465 429 l 465 113 q 474 50 465 69 q 507 24 482 31 q 588 17 532 17 q 592 8 592 17 q 588 0 592 0 q 522 1 546 0 l 428 3 l 333 1 q 267 0 308 0 q 263 8 263 0 q 267 17 263 17 q 347 24 321 17 q 382 51 372 31 q 392 113 392 71 l 392 408 l 154 753 q 83 829 118 807 q -3 851 49 851 q -7 860 -7 851 q -3 868 -7 868 l 49 867 q 99 864 82 864 q 211 867 144 864 l 283 868 q 286 860 286 868 q 283 851 286 851 q 223 845 242 851 q 204 825 204 839 q 218 796 204 817 l 451 461 l 629 731 q 660 807 660 781 q 585 851 660 851 q 582 860 582 851 q 585 868 582 868 l 647 867 q 740 864 700 864 q 797 867 764 864 l 849 868 m 424 -258 q 383 -244 397 -258 q 368 -206 368 -231 q 383 -167 368 -181 q 424 -153 397 -153 q 463 -167 449 -153 q 476 -206 476 -181 q 463 -244 476 -231 q 424 -258 449 -258 z "},"Ỳ":{"ha":843,"x_min":-7,"x_max":851,"o":"m 849 868 q 851 860 851 868 q 849 851 851 851 q 749 819 797 851 q 661 726 700 786 l 465 429 l 465 113 q 474 50 465 69 q 507 24 482 31 q 588 17 532 17 q 592 8 592 17 q 588 0 592 0 q 522 1 546 0 l 428 3 l 333 1 q 267 0 308 0 q 263 8 263 0 q 267 17 263 17 q 347 24 321 17 q 382 51 372 31 q 392 113 392 71 l 392 408 l 154 753 q 83 829 118 807 q -3 851 49 851 q -7 860 -7 851 q -3 868 -7 868 l 49 867 q 99 864 82 864 q 211 867 144 864 l 283 868 q 286 860 286 868 q 283 851 286 851 q 223 845 242 851 q 204 825 204 839 q 218 796 204 817 l 451 461 l 629 731 q 660 807 660 781 q 585 851 660 851 q 582 860 582 851 q 585 868 582 868 l 647 867 q 740 864 700 864 q 797 867 764 864 l 849 868 m 576 943 q 267 1050 419 1013 q 274 1062 257 1051 q 315 1081 292 1072 q 343 1086 338 1089 q 460 1019 399 1054 q 582 957 522 985 q 585 951 585 956 q 582 944 585 947 q 576 943 579 942 z "},"Ỷ":{"ha":843,"x_min":-7,"x_max":851,"o":"m 849 868 q 851 860 851 868 q 849 851 851 851 q 749 819 797 851 q 661 726 700 786 l 465 429 l 465 113 q 474 50 465 69 q 507 24 482 31 q 588 17 532 17 q 592 8 592 17 q 588 0 592 0 q 522 1 546 0 l 428 3 l 333 1 q 267 0 308 0 q 263 8 263 0 q 267 17 263 17 q 347 24 321 17 q 382 51 372 31 q 392 113 392 71 l 392 408 l 154 753 q 83 829 118 807 q -3 851 49 851 q -7 860 -7 851 q -3 868 -7 868 l 49 867 q 99 864 82 864 q 211 867 144 864 l 283 868 q 286 860 286 868 q 283 851 286 851 q 223 845 242 851 q 204 825 204 839 q 218 796 204 817 l 451 461 l 629 731 q 660 807 660 781 q 585 851 660 851 q 582 860 582 851 q 585 868 582 868 l 647 867 q 740 864 700 864 q 797 867 764 864 l 849 868 m 443 904 q 437 901 444 901 q 428 904 429 901 q 424 933 424 921 q 432 971 424 954 q 456 1013 440 988 q 478 1049 471 1033 q 485 1081 485 1064 q 466 1122 485 1107 q 421 1138 447 1138 q 385 1129 404 1138 l 383 1129 q 375 1134 379 1129 q 375 1140 371 1139 q 460 1167 418 1167 q 523 1146 500 1167 q 546 1094 546 1125 q 533 1051 546 1069 q 492 1003 521 1033 q 453 960 467 979 q 440 921 440 942 q 443 904 440 915 z "},"Ȳ":{"ha":843,"x_min":-7,"x_max":851,"o":"m 849 868 q 851 860 851 868 q 849 851 851 851 q 749 819 797 851 q 661 726 700 786 l 465 429 l 465 113 q 474 50 465 69 q 507 24 482 31 q 588 17 532 17 q 592 8 592 17 q 588 0 592 0 q 522 1 546 0 l 428 3 l 333 1 q 267 0 308 0 q 263 8 263 0 q 267 17 263 17 q 347 24 321 17 q 382 51 372 31 q 392 113 392 71 l 392 408 l 154 753 q 83 829 118 807 q -3 851 49 851 q -7 860 -7 851 q -3 868 -7 868 l 49 867 q 99 864 82 864 q 211 867 144 864 l 283 868 q 286 860 286 868 q 283 851 286 851 q 223 845 242 851 q 204 825 204 839 q 218 796 204 817 l 451 461 l 629 731 q 660 807 660 781 q 585 851 660 851 q 582 860 582 851 q 585 868 582 868 l 647 867 q 740 864 700 864 q 797 867 764 864 l 849 868 m 264 1006 q 259 1011 261 1006 q 257 1024 257 1017 q 264 1042 257 1042 l 613 1042 q 619 1024 619 1042 q 613 1006 619 1006 l 264 1006 z "},"Ỹ":{"ha":843,"x_min":-7,"x_max":851,"o":"m 849 868 q 851 860 851 868 q 849 851 851 851 q 749 819 797 851 q 661 726 700 786 l 465 429 l 465 113 q 474 50 465 69 q 507 24 482 31 q 588 17 532 17 q 592 8 592 17 q 588 0 592 0 q 522 1 546 0 l 428 3 l 333 1 q 267 0 308 0 q 263 8 263 0 q 267 17 263 17 q 347 24 321 17 q 382 51 372 31 q 392 113 392 71 l 392 408 l 154 753 q 83 829 118 807 q -3 851 49 851 q -7 860 -7 851 q -3 868 -7 868 l 49 867 q 99 864 82 864 q 211 867 144 864 l 283 868 q 286 860 286 868 q 283 851 286 851 q 223 845 242 851 q 204 825 204 839 q 218 796 204 817 l 451 461 l 629 731 q 660 807 660 781 q 585 851 660 851 q 582 860 582 851 q 585 868 582 868 l 647 867 q 740 864 700 864 q 797 867 764 864 l 849 868 m 546 1024 q 584 1033 569 1024 q 614 1061 599 1043 l 617 1061 q 624 1058 621 1061 q 624 1051 626 1054 q 564 988 588 1004 q 515 972 540 972 q 472 977 494 972 q 428 989 450 982 q 332 1006 369 1006 q 298 998 310 1006 q 277 981 286 990 q 264 968 268 972 l 263 968 q 255 972 258 968 q 254 978 251 975 q 308 1033 276 1008 q 371 1058 339 1058 q 443 1043 394 1058 q 546 1024 504 1024 z "},"Z":{"ha":824,"x_min":69,"x_max":779,"o":"m 639 833 q 642 842 643 840 q 632 844 642 844 q 268 838 360 844 q 145 804 176 831 q 88 697 114 778 q 82 694 88 694 q 74 697 78 694 q 71 700 69 699 l 126 910 q 132 911 126 911 q 143 907 146 911 q 142 896 142 903 q 158 874 142 879 q 222 868 174 868 l 729 868 q 740 861 736 868 q 739 850 743 854 l 182 38 l 178 29 q 189 26 178 26 l 561 26 q 704 61 658 26 q 764 181 750 96 q 772 183 765 183 q 779 181 779 183 l 760 11 q 756 2 760 7 q 747 -3 753 -3 q 83 0 540 0 q 74 6 76 0 q 75 18 71 13 l 639 833 z "},"Ź":{"ha":824,"x_min":71,"x_max":779,"o":"m 639 833 q 642 842 643 840 q 632 844 642 844 q 268 838 360 844 q 145 804 176 831 q 88 697 114 778 q 82 694 88 694 q 74 697 78 694 q 71 700 69 699 l 126 910 q 132 911 126 911 q 143 907 146 911 q 142 896 142 903 q 158 874 142 879 q 222 868 174 868 l 729 868 q 740 861 736 868 q 739 850 743 854 l 182 38 l 178 29 q 189 26 178 26 l 561 26 q 704 61 658 26 q 764 181 750 96 q 772 183 765 183 q 779 181 779 183 l 760 11 q 756 2 760 7 q 747 -3 753 -3 q 83 0 540 0 q 74 6 76 0 q 75 18 71 13 l 639 833 m 294 942 q 288 948 289 942 q 290 957 286 954 q 460 1047 354 986 l 529 1086 q 558 1081 535 1089 q 598 1062 581 1072 q 606 1050 615 1051 q 448 1003 519 1029 q 297 943 376 978 l 294 942 z "},"Ž":{"ha":824,"x_min":71,"x_max":779,"o":"m 639 833 q 642 842 643 840 q 632 844 642 844 q 268 838 360 844 q 145 804 176 831 q 88 697 114 778 q 82 694 88 694 q 74 697 78 694 q 71 700 69 699 l 126 910 q 132 911 126 911 q 143 907 146 911 q 142 896 142 903 q 158 874 142 879 q 222 868 174 868 l 729 868 q 740 861 736 868 q 739 850 743 854 l 182 38 l 178 29 q 189 26 178 26 l 561 26 q 704 61 658 26 q 764 181 750 96 q 772 183 765 183 q 779 181 779 183 l 760 11 q 756 2 760 7 q 747 -3 753 -3 q 83 0 540 0 q 74 6 76 0 q 75 18 71 13 l 639 833 m 272 1082 q 271 1083 271 1082 q 271 1083 271 1083 q 274 1090 271 1086 q 281 1092 278 1093 l 432 1006 l 582 1092 l 583 1092 q 590 1088 588 1092 q 589 1082 593 1083 l 447 954 q 432 949 442 949 q 415 954 421 949 l 272 1082 z "},"Ż":{"ha":824,"x_min":71,"x_max":779,"o":"m 639 833 q 642 842 643 840 q 632 844 642 844 q 268 838 360 844 q 145 804 176 831 q 88 697 114 778 q 82 694 88 694 q 74 697 78 694 q 71 700 69 699 l 126 910 q 132 911 126 911 q 143 907 146 911 q 142 896 142 903 q 158 874 142 879 q 222 868 174 868 l 729 868 q 740 861 736 868 q 739 850 743 854 l 182 38 l 178 29 q 189 26 178 26 l 561 26 q 704 61 658 26 q 764 181 750 96 q 772 183 765 183 q 779 181 779 183 l 760 11 q 756 2 760 7 q 747 -3 753 -3 q 83 0 540 0 q 74 6 76 0 q 75 18 71 13 l 639 833 m 432 990 q 391 1004 406 990 q 376 1044 376 1018 q 391 1082 376 1068 q 432 1096 406 1096 q 471 1082 457 1096 q 485 1044 485 1068 q 471 1004 485 1018 q 432 990 457 990 z "},"Ẓ":{"ha":824,"x_min":71,"x_max":779,"o":"m 639 833 q 642 842 643 840 q 632 844 642 844 q 268 838 360 844 q 145 804 176 831 q 88 697 114 778 q 82 694 88 694 q 74 697 78 694 q 71 700 69 699 l 126 910 q 132 911 126 911 q 143 907 146 911 q 142 896 142 903 q 158 874 142 879 q 222 868 174 868 l 729 868 q 740 861 736 868 q 739 850 743 854 l 182 38 l 178 29 q 189 26 178 26 l 561 26 q 704 61 658 26 q 764 181 750 96 q 772 183 765 183 q 779 181 779 183 l 760 11 q 756 2 760 7 q 747 -3 753 -3 q 83 0 540 0 q 74 6 76 0 q 75 18 71 13 l 639 833 m 414 -258 q 373 -244 388 -258 q 358 -206 358 -231 q 373 -167 358 -181 q 414 -153 388 -153 q 453 -167 439 -153 q 467 -206 467 -181 q 453 -244 467 -231 q 414 -258 439 -258 z "}}}
